<?xml version="1.0" encoding="UTF-8"?>
<svg xmlns="http://www.w3.org/2000/svg" xmlns:xlink="http://www.w3.org/1999/xlink" width="64pt" height="64pt" viewBox="0 0 64 64" version="1.1">
<defs>
<linearGradient id="linear0" gradientUnits="userSpaceOnUse" x1="0" y1="0" x2="64" y2="64" >
<stop offset="0" style="stop-color:rgb(0%,74.901961%,100%);stop-opacity:1;"/>
<stop offset="1" style="stop-color:rgb(0%,29.803922%,40%);stop-opacity:1;"/>
</linearGradient>
</defs>
<g id="surface16185">
<path style="fill:none;stroke-width:8;stroke-linecap:butt;stroke-linejoin:round;stroke:url(#linear0);stroke-miterlimit:10;" d="M 8 4 L 56 4 L 56 60 L 8 60 Z M 8 4 "/>
<path style=" stroke:none;fill-rule:evenodd;fill:rgb(0%,52.54902%,69.803922%);fill-opacity:1;" d="M 8 4 L 56 4 L 56 60 L 8 60 Z M 8 4 "/>
<path style=" stroke:none;fill-rule:evenodd;fill:rgb(0%,0%,0%);fill-opacity:1;" d="M 10 6 L 54 6 L 54 22 L 10 22 Z M 10 6 "/>
<path style="fill:none;stroke-width:2;stroke-linecap:butt;stroke-linejoin:miter;stroke:rgb(100%,100%,0%);stroke-opacity:1;stroke-miterlimit:10;" d="M 44 8 L 50 8 L 50 20 L 44 20 Z M 44 8 "/>
<path style="fill-rule:evenodd;fill:rgb(96.078431%,96.078431%,86.27451%);fill-opacity:1;stroke-width:4;stroke-linecap:butt;stroke-linejoin:round;stroke:rgb(96.078431%,96.078431%,86.27451%);stroke-opacity:1;stroke-miterlimit:10;" d="M 12 28 L 16 28 L 16 32 L 12 32 Z M 12 28 "/>
<path style="fill-rule:evenodd;fill:rgb(96.078431%,96.078431%,86.27451%);fill-opacity:1;stroke-width:4;stroke-linecap:butt;stroke-linejoin:round;stroke:rgb(96.078431%,96.078431%,86.27451%);stroke-opacity:1;stroke-miterlimit:10;" d="M 24 28 L 28 28 L 28 32 L 24 32 Z M 24 28 "/>
<path style="fill-rule:evenodd;fill:rgb(96.078431%,96.078431%,86.27451%);fill-opacity:1;stroke-width:4;stroke-linecap:butt;stroke-linejoin:round;stroke:rgb(96.078431%,96.078431%,86.27451%);stroke-opacity:1;stroke-miterlimit:10;" d="M 36 28 L 40 28 L 40 32 L 36 32 Z M 36 28 "/>
<path style="fill-rule:evenodd;fill:rgb(96.078431%,96.078431%,86.27451%);fill-opacity:1;stroke-width:4;stroke-linecap:butt;stroke-linejoin:round;stroke:rgb(96.078431%,96.078431%,86.27451%);stroke-opacity:1;stroke-miterlimit:10;" d="M 48 28 L 52 28 L 52 32 L 48 32 Z M 48 28 "/>
<path style="fill-rule:evenodd;fill:rgb(96.078431%,96.078431%,86.27451%);fill-opacity:1;stroke-width:4;stroke-linecap:butt;stroke-linejoin:round;stroke:rgb(96.078431%,96.078431%,86.27451%);stroke-opacity:1;stroke-miterlimit:10;" d="M 12 40 L 16 40 L 16 44 L 12 44 Z M 12 40 "/>
<path style="fill-rule:evenodd;fill:rgb(96.078431%,96.078431%,86.27451%);fill-opacity:1;stroke-width:4;stroke-linecap:butt;stroke-linejoin:round;stroke:rgb(96.078431%,96.078431%,86.27451%);stroke-opacity:1;stroke-miterlimit:10;" d="M 24 40 L 28 40 L 28 44 L 24 44 Z M 24 40 "/>
<path style="fill-rule:evenodd;fill:rgb(96.078431%,96.078431%,86.27451%);fill-opacity:1;stroke-width:4;stroke-linecap:butt;stroke-linejoin:round;stroke:rgb(96.078431%,96.078431%,86.27451%);stroke-opacity:1;stroke-miterlimit:10;" d="M 36 40 L 40 40 L 40 44 L 36 44 Z M 36 40 "/>
<path style="fill-rule:evenodd;fill:rgb(96.078431%,96.078431%,86.27451%);fill-opacity:1;stroke-width:4;stroke-linecap:butt;stroke-linejoin:round;stroke:rgb(96.078431%,96.078431%,86.27451%);stroke-opacity:1;stroke-miterlimit:10;" d="M 48 40 L 52 40 L 52 44 L 48 44 Z M 48 40 "/>
<path style="fill-rule:evenodd;fill:rgb(96.078431%,96.078431%,86.27451%);fill-opacity:1;stroke-width:4;stroke-linecap:butt;stroke-linejoin:round;stroke:rgb(96.078431%,96.078431%,86.27451%);stroke-opacity:1;stroke-miterlimit:10;" d="M 12 52 L 16 52 L 16 56 L 12 56 Z M 12 52 "/>
<path style="fill-rule:evenodd;fill:rgb(96.078431%,96.078431%,86.27451%);fill-opacity:1;stroke-width:4;stroke-linecap:butt;stroke-linejoin:round;stroke:rgb(96.078431%,96.078431%,86.27451%);stroke-opacity:1;stroke-miterlimit:10;" d="M 24 52 L 28 52 L 28 56 L 24 56 Z M 24 52 "/>
<path style="fill-rule:evenodd;fill:rgb(96.078431%,96.078431%,86.27451%);fill-opacity:1;stroke-width:4;stroke-linecap:butt;stroke-linejoin:round;stroke:rgb(96.078431%,96.078431%,86.27451%);stroke-opacity:1;stroke-miterlimit:10;" d="M 36 52 L 40 52 L 40 56 L 36 56 Z M 36 52 "/>
<path style="fill-rule:evenodd;fill:rgb(96.078431%,96.078431%,86.27451%);fill-opacity:1;stroke-width:4;stroke-linecap:butt;stroke-linejoin:round;stroke:rgb(96.078431%,96.078431%,86.27451%);stroke-opacity:1;stroke-miterlimit:10;" d="M 48 52 L 52 52 L 52 56 L 48 56 Z M 48 52 "/>
</g>
</svg>
