<?xml version="1.0" encoding="UTF-8"?>
<svg xmlns="http://www.w3.org/2000/svg" xmlns:xlink="http://www.w3.org/1999/xlink" width="64pt" height="64pt" viewBox="0 0 64 64" version="1.1">
<defs>
<linearGradient id="linear0" gradientUnits="userSpaceOnUse" x1="12" y1="53.6" x2="28.4" y2="61.2" gradientTransform="matrix(1,0,0,1,0,0.000000000000001776)">
<stop offset="0" style="stop-color:rgb(47.843137%,43.529412%,35.294118%);stop-opacity:1;"/>
<stop offset="1" style="stop-color:rgb(96.078431%,87.058824%,70.196078%);stop-opacity:1;"/>
</linearGradient>
<linearGradient id="linear1" gradientUnits="userSpaceOnUse" x1="0" y1="0" x2="64" y2="64" gradientTransform="matrix(0.906308,-0.422618,0.422618,0.906308,-20.910661,12.998105)">
<stop offset="0" style="stop-color:rgb(91.372549%,82.745098%,66.666667%);stop-opacity:1;"/>
<stop offset="1" style="stop-color:rgb(72.156863%,65.098039%,52.54902%);stop-opacity:1;"/>
</linearGradient>
<linearGradient id="linear2" gradientUnits="userSpaceOnUse" x1="4" y1="2" x2="64" y2="64" >
<stop offset="0" style="stop-color:rgb(96.078431%,87.058824%,70.196078%);stop-opacity:1;"/>
<stop offset="1" style="stop-color:rgb(47.843137%,43.529412%,35.294118%);stop-opacity:1;"/>
</linearGradient>
<linearGradient id="linear3" gradientUnits="userSpaceOnUse" x1="7.84" y1="10.74" x2="18.28" y2="21.2" >
<stop offset="0" style="stop-color:rgb(100%,0%,0%);stop-opacity:1;"/>
<stop offset="1" style="stop-color:rgb(69.803922%,0%,0%);stop-opacity:1;"/>
</linearGradient>
<linearGradient id="linear4" gradientUnits="userSpaceOnUse" x1="24.6" y1="5.8" x2="36.26" y2="17.4" >
<stop offset="0" style="stop-color:rgb(25.490196%,41.176471%,88.235294%);stop-opacity:1;"/>
<stop offset="1" style="stop-color:rgb(17.647059%,28.627451%,61.568627%);stop-opacity:1;"/>
</linearGradient>
<linearGradient id="linear5" gradientUnits="userSpaceOnUse" x1="41.7" y1="14.2" x2="51" y2="23.5" >
<stop offset="0" style="stop-color:rgb(0%,100%,0%);stop-opacity:1;"/>
<stop offset="1" style="stop-color:rgb(0%,69.803922%,0%);stop-opacity:1;"/>
</linearGradient>
<linearGradient id="linear6" gradientUnits="userSpaceOnUse" x1="45.4" y1="29.6" x2="62.6" y2="40" >
<stop offset="0" style="stop-color:rgb(100%,100%,0%);stop-opacity:1;"/>
<stop offset="1" style="stop-color:rgb(69.803922%,69.803922%,0%);stop-opacity:1;"/>
</linearGradient>
<linearGradient id="linear7" gradientUnits="userSpaceOnUse" x1="27.8" y1="26.4" x2="36" y2="34.6" >
<stop offset="0" style="stop-color:rgb(100%,0%,100%);stop-opacity:1;"/>
<stop offset="1" style="stop-color:rgb(69.803922%,0%,69.803922%);stop-opacity:1;"/>
</linearGradient>
<linearGradient id="linear8" gradientUnits="userSpaceOnUse" x1="33.6" y1="40.8" x2="47.4" y2="54.82" >
<stop offset="0" style="stop-color:rgb(100%,100%,100%);stop-opacity:1;"/>
<stop offset="1" style="stop-color:rgb(80%,80%,80%);stop-opacity:1;"/>
</linearGradient>
</defs>
<g id="surface16257">
<path style="fill:none;stroke-width:3;stroke-linecap:butt;stroke-linejoin:miter;stroke:url(#linear0);stroke-miterlimit:10;" d="M 28.320073 53.058866 C 28.321962 56.262128 24.684543 58.858802 20.202004 58.858944 C 15.714274 58.860975 12.081696 56.261961 12.079807 53.058698 C 12.081459 49.857086 15.715337 47.258762 20.201416 47.260271 C 24.683955 47.260129 28.321725 49.857254 28.320073 53.058866 Z M 28.320073 53.058866 " transform="matrix(0.906308,-0.422618,0.422618,0.906308,-20.910661,12.998105)"/>
<path style="fill-rule:evenodd;fill:url(#linear1);stroke-width:1;stroke-linecap:butt;stroke-linejoin:miter;stroke:url(#linear2);stroke-miterlimit:10;" d="M 27.179688 49.117188 C 28.535156 52.019531 26.335938 55.910156 22.273438 57.804688 C 18.207031 59.703125 13.816406 58.882812 12.460938 55.980469 C 11.109375 53.078125 13.304688 49.1875 17.371094 47.292969 C 21.433594 45.398438 25.828125 46.214844 27.179688 49.117188 Z M 8.699219 56.558594 C 2.898438 44.960938 43.5 39.160156 14.5 33.359375 C 0 30.460938 -2.898438 15.960938 8.699219 7.261719 C 23.199219 -2.898438 62.359375 -1.460938 60.898438 33.359375 C 60.898438 62.359375 13.058594 68 8.699219 56.558594 " transform="matrix(1,0,0,1,0,-0.000000000000001776)"/>
<path style=" stroke:none;fill-rule:evenodd;fill:url(#linear3);" d="M 18.261719 16 C 18.261719 22.933594 7.859375 22.933594 7.859375 16 C 7.859375 9.066406 18.261719 9.066406 18.261719 16 Z M 18.261719 16 "/>
<path style=" stroke:none;fill-rule:evenodd;fill:url(#linear4);" d="M 36.261719 11.601562 C 36.261719 14.804688 33.664062 17.398438 30.460938 17.398438 C 27.257812 17.398438 24.660156 14.804688 24.660156 11.601562 C 24.660156 8.398438 27.257812 5.800781 30.460938 5.800781 C 33.664062 5.800781 36.261719 8.398438 36.261719 11.601562 Z M 36.261719 11.601562 "/>
<path style=" stroke:none;fill-rule:evenodd;fill:url(#linear5);" d="M 51 18.859375 C 51 24.992188 41.800781 24.992188 41.800781 18.859375 C 41.800781 12.726562 51 12.726562 51 18.859375 Z M 51 18.859375 "/>
<path style=" stroke:none;fill-rule:evenodd;fill:url(#linear6);" d="M 55.960938 34.800781 C 55.960938 41.734375 45.558594 41.734375 45.558594 34.800781 C 45.558594 27.867188 55.960938 27.867188 55.960938 34.800781 Z M 55.960938 34.800781 "/>
<path style=" stroke:none;fill-rule:evenodd;fill:url(#linear7);" d="M 36 30.398438 C 36 35.734375 28 35.734375 28 30.398438 C 28 25.066406 36 25.066406 36 30.398438 Z M 36 30.398438 "/>
<path style=" stroke:none;fill-rule:evenodd;fill:url(#linear8);" d="M 47.601562 47.859375 C 47.601562 51.726562 44.464844 54.859375 40.601562 54.859375 C 36.734375 54.859375 33.601562 51.726562 33.601562 47.859375 C 33.601562 43.992188 36.734375 40.859375 40.601562 40.859375 C 44.464844 40.859375 47.601562 43.992188 47.601562 47.859375 Z M 47.601562 47.859375 "/>
</g>
</svg>
