<?xml version="1.0" encoding="UTF-8"?>
<svg xmlns="http://www.w3.org/2000/svg" xmlns:xlink="http://www.w3.org/1999/xlink" width="64pt" height="64pt" viewBox="0 0 64 64" version="1.1">
<defs>
<linearGradient id="linear0" gradientUnits="userSpaceOnUse" x1="0" y1="0" x2="64" y2="64" >
<stop offset="0" style="stop-color:rgb(91.372549%,94.901961%,93.333333%);stop-opacity:1;"/>
<stop offset="1" style="stop-color:rgb(81.568627%,85.098039%,83.529412%);stop-opacity:1;"/>
</linearGradient>
<linearGradient id="linear1" gradientUnits="userSpaceOnUse" x1="0" y1="0" x2="64" y2="64" >
<stop offset="0" style="stop-color:rgb(96.078431%,100%,98.039216%);stop-opacity:1;"/>
<stop offset="1" style="stop-color:rgb(76.862745%,80%,78.431373%);stop-opacity:1;"/>
</linearGradient>
</defs>
<g id="surface16297">
<path style="fill-rule:evenodd;fill:url(#linear0);stroke-width:2;stroke-linecap:butt;stroke-linejoin:miter;stroke:url(#linear1);stroke-miterlimit:10;" d="M 2 2 L 2 62 L 62 62 L 62 2 Z M 2 2 "/>
<path style="fill:none;stroke-width:4;stroke-linecap:butt;stroke-linejoin:miter;stroke:rgb(75.294118%,75.294118%,75.294118%);stroke-opacity:1;stroke-miterlimit:10;" d="M 34 34 L 38 34 L 38 38 L 34 38 Z M 54 34 L 58 34 L 58 38 L 54 38 Z M 19.859375 19.859375 L 23.859375 19.859375 L 23.859375 23.859375 L 19.859375 23.859375 Z M 48.140625 19.859375 L 52.140625 19.859375 L 52.140625 23.859375 L 48.140625 23.859375 Z M 48.140625 19.859375 "/>
<path style="fill:none;stroke-width:4;stroke-linecap:butt;stroke-linejoin:miter;stroke:rgb(75.294118%,75.294118%,75.294118%);stroke-opacity:1;stroke-miterlimit:10;" d="M 50.140625 21.859375 C 55.863281 27.578125 57.574219 36.179688 54.476562 43.652344 C 51.382812 51.128906 44.089844 56 36 56 C 27.910156 56 20.617188 51.128906 17.523438 43.652344 C 14.425781 36.179688 16.136719 27.578125 21.859375 21.859375 "/>
<path style="fill:none;stroke-width:4;stroke-linecap:butt;stroke-linejoin:miter;stroke:rgb(39.215686%,58.431373%,92.941176%);stroke-opacity:1;stroke-miterlimit:10;" d="M 28 28 L 32 28 L 32 32 L 28 32 Z M 48 28 L 52 28 L 52 32 L 48 32 Z M 13.859375 13.859375 L 17.859375 13.859375 L 17.859375 17.859375 L 13.859375 17.859375 Z M 42.140625 13.859375 L 46.140625 13.859375 L 46.140625 17.859375 L 42.140625 17.859375 Z M 42.140625 13.859375 "/>
<path style="fill:none;stroke-width:4;stroke-linecap:butt;stroke-linejoin:miter;stroke:rgb(0%,0%,0%);stroke-opacity:1;stroke-miterlimit:10;" d="M 44.140625 15.859375 C 49.863281 21.578125 51.574219 30.179688 48.476562 37.652344 C 45.382812 45.128906 38.089844 50 30 50 C 21.910156 50 14.617188 45.128906 11.523438 37.652344 C 8.425781 30.179688 10.136719 21.578125 15.859375 15.859375 "/>
</g>
</svg>
