<?xml version="1.0" encoding="UTF-8"?>
<svg xmlns="http://www.w3.org/2000/svg" xmlns:xlink="http://www.w3.org/1999/xlink" width="64pt" height="64pt" viewBox="0 0 64 64" version="1.1">
<g id="surface16741">
<path style="fill:none;stroke-width:4;stroke-linecap:butt;stroke-linejoin:miter;stroke:rgb(82.745098%,82.745098%,82.745098%);stroke-opacity:1;stroke-miterlimit:10;" d="M 16 38 L 20 38 L 20 42 L 16 42 Z M 26 22 L 30 22 L 30 26 L 26 26 Z M 36 52 L 40 52 L 40 56 L 36 56 Z M 56 56 L 60 56 L 60 60 L 56 60 Z M 46 28 L 50 28 L 50 32 L 46 32 Z M 46 28 "/>
<path style="fill:none;stroke-width:4;stroke-linecap:butt;stroke-linejoin:bevel;stroke:rgb(82.745098%,82.745098%,82.745098%);stroke-opacity:1;stroke-miterlimit:10;" d="M 18 40 L 28 24 L 38 54 L 58 58 L 48 30 "/>
<path style="fill:none;stroke-width:4;stroke-linecap:butt;stroke-linejoin:miter;stroke:rgb(50.196078%,50.196078%,50.196078%);stroke-opacity:1;stroke-miterlimit:10;" d="M 10 32 L 14 32 L 14 36 L 10 36 Z M 20 16 L 24 16 L 24 20 L 20 20 Z M 30 46 L 34 46 L 34 50 L 30 50 Z M 50 50 L 54 50 L 54 54 L 50 54 Z M 40 22 L 44 22 L 44 26 L 40 26 Z M 40 22 "/>
<path style="fill:none;stroke-width:4;stroke-linecap:butt;stroke-linejoin:bevel;stroke:rgb(50.196078%,50.196078%,50.196078%);stroke-opacity:1;stroke-miterlimit:10;" d="M 12 34 L 22 18 L 32 48 L 52 52 L 42 24 "/>
</g>
</svg>
