<?xml version="1.0" encoding="UTF-8"?>
<svg xmlns="http://www.w3.org/2000/svg" xmlns:xlink="http://www.w3.org/1999/xlink" width="64pt" height="64pt" viewBox="0 0 64 64" version="1.1">
<g id="surface16733">
<path style="fill:none;stroke-width:4;stroke-linecap:butt;stroke-linejoin:miter;stroke:rgb(82.745098%,82.745098%,82.745098%);stroke-opacity:1;stroke-miterlimit:10;" d="M 16 32 L 20 32 L 20 36 L 16 36 Z M 28 10 L 32 10 L 32 14 L 28 14 Z M 40 54 L 44 54 L 44 58 L 40 58 Z M 52 32 L 56 32 L 56 36 L 52 36 Z M 52 32 "/>
<path style="fill:none;stroke-width:4;stroke-linecap:butt;stroke-linejoin:miter;stroke:rgb(82.745098%,82.745098%,82.745098%);stroke-opacity:1;stroke-miterlimit:10;" d="M 18 34 C 30 10 42 58 54 34 "/>
<path style="fill:none;stroke-width:4;stroke-linecap:butt;stroke-linejoin:miter;stroke:rgb(50.196078%,50.196078%,50.196078%);stroke-opacity:1;stroke-miterlimit:10;" d="M 10 26 L 14 26 L 14 30 L 10 30 Z M 22 4 L 26 4 L 26 8 L 22 8 Z M 34 48 L 38 48 L 38 52 L 34 52 Z M 46 26 L 50 26 L 50 30 L 46 30 Z M 46 26 "/>
<path style="fill:none;stroke-width:4;stroke-linecap:butt;stroke-linejoin:miter;stroke:rgb(50.196078%,50.196078%,50.196078%);stroke-opacity:1;stroke-miterlimit:10;" d="M 12 28 C 24 4 36 52 48 28 "/>
</g>
</svg>
