<?xml version="1.0" encoding="UTF-8"?>
<svg xmlns="http://www.w3.org/2000/svg" xmlns:xlink="http://www.w3.org/1999/xlink" width="64pt" height="64pt" viewBox="0 0 64 64" version="1.1">
<defs>
<linearGradient id="linear0" gradientUnits="userSpaceOnUse" x1="0" y1="0" x2="64" y2="0" >
<stop offset="0" style="stop-color:rgb(85.098039%,85.098039%,85.098039%);stop-opacity:1;"/>
<stop offset="0.55" style="stop-color:rgb(100%,100%,100%);stop-opacity:1;"/>
<stop offset="1" style="stop-color:rgb(85.098039%,85.098039%,85.098039%);stop-opacity:1;"/>
</linearGradient>
<linearGradient id="linear1" gradientUnits="userSpaceOnUse" x1="8" y1="8" x2="56" y2="62" >
<stop offset="0" style="stop-color:rgb(11.764706%,56.470588%,100%);stop-opacity:1;"/>
<stop offset="1" style="stop-color:rgb(3.529412%,16.862745%,29.803922%);stop-opacity:1;"/>
</linearGradient>
<linearGradient id="linear2" gradientUnits="userSpaceOnUse" x1="8" y1="4" x2="56" y2="60" >
<stop offset="0" style="stop-color:rgb(66.27451%,66.27451%,66.27451%);stop-opacity:1;"/>
<stop offset="1" style="stop-color:rgb(32.941176%,32.941176%,32.941176%);stop-opacity:1;"/>
</linearGradient>
<linearGradient id="linear3" gradientUnits="userSpaceOnUse" x1="28" y1="0" x2="36" y2="0" >
<stop offset="0" style="stop-color:rgb(82.352941%,70.588235%,54.901961%);stop-opacity:1;"/>
<stop offset="1" style="stop-color:rgb(41.176471%,35.294118%,27.45098%);stop-opacity:1;"/>
</linearGradient>
<linearGradient id="linear4" gradientUnits="userSpaceOnUse" x1="28" y1="0" x2="36" y2="0" >
<stop offset="0" style="stop-color:rgb(90.196078%,83.137255%,49.019608%);stop-opacity:1;"/>
<stop offset="0.25" style="stop-color:rgb(100%,92.54902%,54.509804%);stop-opacity:1;"/>
<stop offset="1" style="stop-color:rgb(50.196078%,46.27451%,27.45098%);stop-opacity:1;"/>
</linearGradient>
<linearGradient id="linear5" gradientUnits="userSpaceOnUse" x1="28" y1="0" x2="36" y2="0" >
<stop offset="0" style="stop-color:rgb(60%,55.686275%,32.54902%);stop-opacity:1;"/>
<stop offset="0.1" style="stop-color:rgb(100%,92.54902%,54.509804%);stop-opacity:1;"/>
<stop offset="1" style="stop-color:rgb(29.803922%,27.843137%,16.470588%);stop-opacity:1;"/>
</linearGradient>
<linearGradient id="linear6" gradientUnits="userSpaceOnUse" x1="28" y1="0" x2="36" y2="0" >
<stop offset="0" style="stop-color:rgb(100%,27.058824%,0%);stop-opacity:1;"/>
<stop offset="1" style="stop-color:rgb(50.196078%,13.333333%,0%);stop-opacity:1;"/>
</linearGradient>
<linearGradient id="linear7" gradientUnits="userSpaceOnUse" x1="28" y1="0" x2="36" y2="0" gradientTransform="matrix(0.636396,0.636396,-0.636396,0.636396,40.25513,-3.019805)">
<stop offset="0" style="stop-color:rgb(87.058824%,72.156863%,52.941176%);stop-opacity:1;"/>
<stop offset="1" style="stop-color:rgb(60.784314%,50.588235%,36.862745%);stop-opacity:1;"/>
</linearGradient>
<linearGradient id="linear8" gradientUnits="userSpaceOnUse" x1="30" y1="0" x2="34" y2="0" gradientTransform="matrix(0.636396,0.636396,-0.636396,0.636396,40.25513,-3.019805)">
<stop offset="0" style="stop-color:rgb(41.176471%,41.176471%,41.176471%);stop-opacity:1;"/>
<stop offset="1" style="stop-color:rgb(0%,0%,0%);stop-opacity:1;"/>
</linearGradient>
</defs>
<g id="surface16453">
<path style=" stroke:none;fill-rule:evenodd;fill:rgb(50.196078%,50.196078%,50.196078%);fill-opacity:1;" d="M 10 10 L 58 10 L 58 64 L 10 64 Z M 10 10 "/>
<path style="fill-rule:evenodd;fill:url(#linear0);stroke-width:1;stroke-linecap:butt;stroke-linejoin:miter;stroke:url(#linear1);stroke-miterlimit:10;" d="M 8 8 L 56 8 L 56 62 L 8 62 Z M 8 8 "/>
<path style="fill:none;stroke-width:2;stroke-linecap:butt;stroke-linejoin:miter;stroke:url(#linear2);stroke-miterlimit:10;" d="M 14 18 L 34 18 M 14 26 L 40 26 M 14 34 L 28 34 M 14 42 L 22 42 "/>
<path style="fill:none;stroke-width:9;stroke-linecap:round;stroke-linejoin:miter;stroke:url(#linear3);stroke-miterlimit:10;" d="M 32.000132 4.000135 L 32.000132 7.001656 " transform="matrix(0.636396,0.636396,-0.636396,0.636396,40.25513,-3.019805)"/>
<path style="fill:none;stroke-width:10;stroke-linecap:butt;stroke-linejoin:miter;stroke:url(#linear4);stroke-miterlimit:10;" d="M 32.000132 7.001656 L 32.000132 16.000081 " transform="matrix(0.636396,0.636396,-0.636396,0.636396,40.25513,-3.019805)"/>
<path style="fill:none;stroke-width:1;stroke-linecap:butt;stroke-linejoin:miter;stroke:url(#linear5);stroke-miterlimit:10;" d="M 27.000666 8.999601 L 36.999598 8.999601 M 27.000666 14.002136 L 36.999598 14.002136 " transform="matrix(0.636396,0.636396,-0.636396,0.636396,40.25513,-3.019805)"/>
<path style="fill:none;stroke-width:10;stroke-linecap:butt;stroke-linejoin:miter;stroke:url(#linear6);stroke-miterlimit:10;" d="M 32.000132 16.000081 L 32.000132 51.999919 " transform="matrix(0.636396,0.636396,-0.636396,0.636396,40.25513,-3.019805)"/>
<path style=" stroke:none;fill-rule:evenodd;fill:url(#linear7);" d="M 24.34375 47.253906 L 19.890625 58.074219 L 30.710938 53.621094 Z M 24.34375 47.253906 "/>
<path style=" stroke:none;fill-rule:evenodd;fill:url(#linear8);" d="M 21.800781 53.621094 L 19.890625 58.074219 L 24.34375 56.164062 Z M 21.800781 53.621094 "/>
</g>
</svg>
