<?xml version="1.0" encoding="UTF-8"?>
<svg xmlns="http://www.w3.org/2000/svg" xmlns:xlink="http://www.w3.org/1999/xlink" width="64pt" height="64pt" viewBox="0 0 64 64" version="1.1">
<defs>
<linearGradient id="linear0" gradientUnits="userSpaceOnUse" x1="24" y1="0" x2="48" y2="4" >
<stop offset="0" style="stop-color:rgb(90.196078%,24.313725%,0%);stop-opacity:1;"/>
<stop offset="0.3" style="stop-color:rgb(90.196078%,24.313725%,0%);stop-opacity:1;"/>
<stop offset="1" style="stop-color:rgb(40%,10.980392%,0%);stop-opacity:1;"/>
</linearGradient>
<linearGradient id="linear1" gradientUnits="userSpaceOnUse" x1="28" y1="0" x2="36" y2="0" >
<stop offset="0" style="stop-color:rgb(80%,21.568627%,0%);stop-opacity:1;"/>
<stop offset="1" style="stop-color:rgb(29.803922%,8.235294%,0%);stop-opacity:1;"/>
</linearGradient>
<linearGradient id="linear2" gradientUnits="userSpaceOnUse" x1="26" y1="0" x2="36" y2="0" >
<stop offset="0" style="stop-color:rgb(65.882353%,69.803922%,65.882353%);stop-opacity:1;"/>
<stop offset="0.4" style="stop-color:rgb(94.117647%,100%,94.117647%);stop-opacity:1;"/>
<stop offset="1" style="stop-color:rgb(47.058824%,50.196078%,47.058824%);stop-opacity:1;"/>
</linearGradient>
<linearGradient id="linear3" gradientUnits="userSpaceOnUse" x1="26" y1="0" x2="36" y2="0" >
<stop offset="0" style="stop-color:rgb(56.470588%,60%,56.470588%);stop-opacity:1;"/>
<stop offset="0.4" style="stop-color:rgb(75.294118%,80%,75.294118%);stop-opacity:1;"/>
<stop offset="1" style="stop-color:rgb(47.058824%,50.196078%,47.058824%);stop-opacity:1;"/>
</linearGradient>
<linearGradient id="linear4" gradientUnits="userSpaceOnUse" x1="30" y1="0" x2="34" y2="0" >
<stop offset="0" style="stop-color:rgb(75.294118%,80%,75.294118%);stop-opacity:1;"/>
<stop offset="1" style="stop-color:rgb(47.058824%,50.196078%,47.058824%);stop-opacity:1;"/>
</linearGradient>
</defs>
<g id="surface16225">
<path style=" stroke:none;fill-rule:evenodd;fill:url(#linear0);" d="M 42 10 C 42 15.523438 37.523438 20 32 20 C 26.476562 20 22 15.523438 22 10 C 22 4.476562 26.476562 0 32 0 C 37.523438 0 42 4.476562 42 10 Z M 42 10 "/>
<path style="fill:none;stroke-width:12;stroke-linecap:butt;stroke-linejoin:miter;stroke:url(#linear1);stroke-miterlimit:10;" d="M 32 18 L 32 22 "/>
<path style="fill:none;stroke-width:10;stroke-linecap:butt;stroke-linejoin:miter;stroke:url(#linear2);stroke-miterlimit:10;" d="M 32 22 L 32 52 "/>
<path style=" stroke:none;fill-rule:evenodd;fill:url(#linear3);" d="M 27 52 L 32 64 L 37 52 Z M 27 52 "/>
<path style=" stroke:none;fill-rule:evenodd;fill:url(#linear4);" d="M 30 59 L 31 64 L 33 64 L 34 59 Z M 30 59 "/>
</g>
</svg>
