<?xml version="1.0" encoding="UTF-8"?>
<svg xmlns="http://www.w3.org/2000/svg" xmlns:xlink="http://www.w3.org/1999/xlink" width="64pt" height="64pt" viewBox="0 0 64 64" version="1.1">
<defs>
<linearGradient id="linear0" gradientUnits="userSpaceOnUse" x1="0" y1="24" x2="0" y2="38" >
<stop offset="0" style="stop-color:rgb(45.098039%,45.098039%,45.098039%);stop-opacity:1;"/>
<stop offset="0.5" style="stop-color:rgb(75.294118%,75.294118%,75.294118%);stop-opacity:1;"/>
<stop offset="1" style="stop-color:rgb(45.098039%,45.098039%,45.098039%);stop-opacity:1;"/>
</linearGradient>
<linearGradient id="linear1" gradientUnits="userSpaceOnUse" x1="0" y1="24" x2="0" y2="38" >
<stop offset="0" style="stop-color:rgb(45.098039%,45.098039%,45.098039%);stop-opacity:1;"/>
<stop offset="0.5" style="stop-color:rgb(75.294118%,75.294118%,75.294118%);stop-opacity:1;"/>
<stop offset="1" style="stop-color:rgb(45.098039%,45.098039%,45.098039%);stop-opacity:1;"/>
</linearGradient>
<linearGradient id="linear2" gradientUnits="userSpaceOnUse" x1="12" y1="0" x2="48" y2="0" >
<stop offset="0" style="stop-color:rgb(66.27451%,66.27451%,66.27451%);stop-opacity:1;"/>
<stop offset="1" style="stop-color:rgb(32.941176%,32.941176%,32.941176%);stop-opacity:1;"/>
</linearGradient>
<linearGradient id="linear3" gradientUnits="userSpaceOnUse" x1="12" y1="0" x2="48" y2="0" >
<stop offset="0" style="stop-color:rgb(66.27451%,66.27451%,66.27451%);stop-opacity:1;"/>
<stop offset="1" style="stop-color:rgb(32.941176%,32.941176%,32.941176%);stop-opacity:1;"/>
</linearGradient>
<linearGradient id="linear4" gradientUnits="userSpaceOnUse" x1="12" y1="0" x2="48" y2="0" >
<stop offset="0" style="stop-color:rgb(66.27451%,66.27451%,66.27451%);stop-opacity:1;"/>
<stop offset="1" style="stop-color:rgb(32.941176%,32.941176%,32.941176%);stop-opacity:1;"/>
</linearGradient>
</defs>
<g id="surface16577">
<path style=" stroke:none;fill-rule:evenodd;fill:url(#linear0);" d="M 6 32 C 6 36.417969 5.105469 40 4 40 C 2.894531 40 2 36.417969 2 32 C 2 27.582031 2.894531 24 4 24 C 5.105469 24 6 27.582031 6 32 Z M 6 32 "/>
<path style=" stroke:none;fill-rule:evenodd;fill:url(#linear1);" d="M 4 24 L 60 24 L 60 40 L 4 40 Z M 4 24 "/>
<path style=" stroke:none;fill-rule:evenodd;fill:rgb(45.098039%,45.098039%,45.098039%);fill-opacity:1;" d="M 62 32 C 62 36.417969 61.105469 40 60 40 C 58.894531 40 58 36.417969 58 32 C 58 27.582031 58.894531 24 60 24 C 61.105469 24 62 27.582031 62 32 Z M 62 32 "/>
<path style=" stroke:none;fill-rule:evenodd;fill:url(#linear2);" d="M 20 44 L 40 44 L 40 20 L 20 20 Z M 20 44 "/>
<path style=" stroke:none;fill-rule:evenodd;fill:url(#linear3);" d="M 10 44 L 30 64 L 50 44 Z M 10 44 "/>
<path style=" stroke:none;fill-rule:evenodd;fill:url(#linear4);" d="M 10 20 L 30 0 L 50 20 Z M 10 20 "/>
</g>
</svg>
