<?xml version="1.0" encoding="UTF-8"?>
<svg xmlns="http://www.w3.org/2000/svg" xmlns:xlink="http://www.w3.org/1999/xlink" width="64pt" height="64pt" viewBox="0 0 64 64" version="1.1">
<defs>
<linearGradient id="linear0" gradientUnits="userSpaceOnUse" x1="0" y1="0" x2="64" y2="64" >
<stop offset="0" style="stop-color:rgb(94.901961%,94.901961%,89.411765%);stop-opacity:1;"/>
<stop offset="1" style="stop-color:rgb(85.098039%,85.098039%,80%);stop-opacity:1;"/>
</linearGradient>
<linearGradient id="linear1" gradientUnits="userSpaceOnUse" x1="0" y1="0" x2="64" y2="64" >
<stop offset="0" style="stop-color:rgb(100%,100%,94.117647%);stop-opacity:1;"/>
<stop offset="1" style="stop-color:rgb(80%,80%,75.294118%);stop-opacity:1;"/>
</linearGradient>
<linearGradient id="linear2" gradientUnits="userSpaceOnUse" x1="0" y1="16" x2="0" y2="56" >
<stop offset="0" style="stop-color:rgb(82.745098%,82.745098%,82.745098%);stop-opacity:1;"/>
<stop offset="1" style="stop-color:rgb(58.039216%,58.039216%,58.039216%);stop-opacity:1;"/>
</linearGradient>
<linearGradient id="linear3" gradientUnits="userSpaceOnUse" x1="0" y1="10" x2="0" y2="50" >
<stop offset="0" style="stop-color:rgb(100%,84.313725%,0%);stop-opacity:1;"/>
<stop offset="1" style="stop-color:rgb(69.803922%,58.823529%,0%);stop-opacity:1;"/>
</linearGradient>
<linearGradient id="linear4" gradientUnits="userSpaceOnUse" x1="16" y1="0" x2="50" y2="0" gradientTransform="matrix(-0.565685,0.565685,0.565685,0.565685,39.337258,-8.341125)">
<stop offset="0" style="stop-color:rgb(9.411765%,45.098039%,80%);stop-opacity:1;"/>
<stop offset="0.3" style="stop-color:rgb(11.764706%,56.470588%,100%);stop-opacity:1;"/>
<stop offset="1" style="stop-color:rgb(7.058824%,33.72549%,60%);stop-opacity:1;"/>
</linearGradient>
<linearGradient id="linear5" gradientUnits="userSpaceOnUse" x1="16" y1="0" x2="50" y2="0" gradientTransform="matrix(1,0.000000000000000056,-0.000000000000000056,1,0.000000000000007105,-0.000000000000003553)">
<stop offset="0" style="stop-color:rgb(9.411765%,45.098039%,80%);stop-opacity:1;"/>
<stop offset="0.3" style="stop-color:rgb(11.764706%,56.470588%,100%);stop-opacity:1;"/>
<stop offset="1" style="stop-color:rgb(7.058824%,33.72549%,60%);stop-opacity:1;"/>
</linearGradient>
<linearGradient id="linear6" gradientUnits="userSpaceOnUse" x1="14" y1="0" x2="51" y2="0" gradientTransform="matrix(1,0.000000000000000056,-0.000000000000000056,1,0.000000000000007105,-0.000000000000003553)">
<stop offset="0" style="stop-color:rgb(60%,60%,60%);stop-opacity:1;"/>
<stop offset="0.3" style="stop-color:rgb(100%,100%,100%);stop-opacity:1;"/>
<stop offset="1" style="stop-color:rgb(50.196078%,50.196078%,50.196078%);stop-opacity:1;"/>
</linearGradient>
</defs>
<g id="surface16401">
<path style="fill-rule:evenodd;fill:url(#linear0);stroke-width:2;stroke-linecap:butt;stroke-linejoin:miter;stroke:url(#linear1);stroke-miterlimit:10;" d="M 2 2 L 2 62 L 62 62 L 62 2 Z M 2 2 "/>
<path style="fill-rule:evenodd;fill:url(#linear2);stroke-width:2;stroke-linecap:butt;stroke-linejoin:miter;stroke:rgb(82.745098%,82.745098%,82.745098%);stroke-opacity:1;stroke-miterlimit:10;" d="M 16 16 L 56 16 L 56 56 L 16 56 Z M 16 16 "/>
<path style="fill-rule:evenodd;fill:url(#linear3);stroke-width:2;stroke-linecap:butt;stroke-linejoin:miter;stroke:rgb(0%,0%,0%);stroke-opacity:1;stroke-miterlimit:10;" d="M 10 10 L 50 10 L 50 50 L 10 50 Z M 10 10 "/>
<path style="fill:none;stroke-width:6;stroke-linecap:butt;stroke-linejoin:round;stroke:rgb(7.058824%,33.72549%,60%);stroke-opacity:1;stroke-miterlimit:10;" d="M 40.00148 22.998199 L 50.000412 22.998199 L 40.00148 30.000214 Z M 40.00148 22.998199 " transform="matrix(-0.565685,0.565685,0.565685,0.565685,39.337258,-8.341125)"/>
<path style="fill:none;stroke-width:2;stroke-linecap:butt;stroke-linejoin:miter;stroke:rgb(60%,50.588235%,0%);stroke-opacity:1;stroke-miterlimit:10;" d="M 53.598331 37.498721 C 54.428409 38.934268 53.935245 40.770206 52.499698 41.600284 " transform="matrix(-0.8,0,0,0.8,64.937258,2.262742)"/>
<path style=" stroke:none;fill-rule:evenodd;fill:url(#linear4);" d="M 31.984375 38.609375 L 38.207031 44.832031 C 39.457031 46.082031 41.480469 46.082031 42.730469 44.832031 L 56.308594 31.257812 C 57.558594 30.007812 57.558594 27.980469 56.308594 26.730469 L 43.863281 14.285156 C 42.613281 13.035156 40.585938 13.035156 39.335938 14.285156 L 25.761719 27.863281 C 24.511719 29.113281 24.511719 31.136719 25.761719 32.386719 Z M 31.984375 38.609375 "/>
<path style="fill:none;stroke-width:3;stroke-linecap:butt;stroke-linejoin:miter;stroke:url(#linear5);stroke-miterlimit:10;" d="M 20.000164 34.001858 C 20.000164 39.52613 17.313987 44.00079 13.999424 44.00079 C 10.684861 44.00079 8.002136 39.522677 7.998684 34.001858 C 7.998684 28.477586 10.688313 23.999473 14.002877 23.999473 C 17.313987 24.002926 20.000164 28.477586 20.000164 34.001858 Z M 20.000164 34.001858 " transform="matrix(-0.565685,0.565685,0.565685,0.565685,39.337258,-8.341125)"/>
<path style="fill:none;stroke-width:3;stroke-linecap:butt;stroke-linejoin:miter;stroke:url(#linear6);stroke-miterlimit:10;" d="M 15.000698 20.999103 L 50.998234 20.999103 " transform="matrix(-0.565685,0.565685,0.565685,0.565685,39.337258,-8.341125)"/>
</g>
</svg>
