<?xml version="1.0" encoding="UTF-8"?>
<svg xmlns="http://www.w3.org/2000/svg" xmlns:xlink="http://www.w3.org/1999/xlink" width="64pt" height="64pt" viewBox="0 0 64 64" version="1.1">
<g id="surface16829">
<path style="fill-rule:evenodd;fill:rgb(82.745098%,82.745098%,82.745098%);fill-opacity:1;stroke-width:2;stroke-linecap:butt;stroke-linejoin:miter;stroke:rgb(82.745098%,82.745098%,82.745098%);stroke-opacity:1;stroke-miterlimit:10;" d="M 12 44 L 36 28 L 60 44 L 36 60 Z M 12 44 "/>
<path style="fill-rule:evenodd;fill:rgb(82.745098%,82.745098%,82.745098%);fill-opacity:1;stroke-width:2;stroke-linecap:butt;stroke-linejoin:miter;stroke:rgb(82.745098%,82.745098%,82.745098%);stroke-opacity:1;stroke-miterlimit:10;" d="M 12 36 L 36 20 L 60 36 L 36 52 Z M 12 36 "/>
<path style="fill-rule:evenodd;fill:rgb(82.745098%,82.745098%,82.745098%);fill-opacity:1;stroke-width:2;stroke-linecap:butt;stroke-linejoin:miter;stroke:rgb(82.745098%,82.745098%,82.745098%);stroke-opacity:1;stroke-miterlimit:10;" d="M 12 28 L 36 12 L 60 28 L 36 44 Z M 12 28 "/>
<path style="fill-rule:evenodd;fill:rgb(66.27451%,66.27451%,66.27451%);fill-opacity:1;stroke-width:2;stroke-linecap:butt;stroke-linejoin:miter;stroke:rgb(63.137255%,63.137255%,63.137255%);stroke-opacity:1;stroke-miterlimit:10;" d="M 6 38 L 30 22 L 54 38 L 30 54 Z M 6 38 "/>
<path style="fill-rule:evenodd;fill:rgb(82.745098%,82.745098%,82.745098%);fill-opacity:1;stroke-width:2;stroke-linecap:butt;stroke-linejoin:miter;stroke:rgb(78.431373%,78.431373%,78.431373%);stroke-opacity:1;stroke-miterlimit:10;" d="M 6 30 L 30 14 L 54 30 L 30 46 Z M 6 30 "/>
<path style="fill-rule:evenodd;fill:rgb(82.745098%,82.745098%,82.745098%);fill-opacity:1;stroke-width:2;stroke-linecap:butt;stroke-linejoin:miter;stroke:rgb(78.431373%,78.431373%,78.431373%);stroke-opacity:1;stroke-miterlimit:10;" d="M 6 22 L 30 6 L 54 22 L 30 38 Z M 6 22 "/>
</g>
</svg>
