<?xml version="1.0" encoding="UTF-8"?>
<svg xmlns="http://www.w3.org/2000/svg" xmlns:xlink="http://www.w3.org/1999/xlink" width="64pt" height="64pt" viewBox="0 0 64 64" version="1.1">
<defs>
<linearGradient id="linear0" gradientUnits="userSpaceOnUse" x1="0" y1="4" x2="0" y2="60" >
<stop offset="0" style="stop-color:rgb(100%,100%,100%);stop-opacity:1;"/>
<stop offset="1" style="stop-color:rgb(85.098039%,85.098039%,85.098039%);stop-opacity:1;"/>
</linearGradient>
<linearGradient id="linear1" gradientUnits="userSpaceOnUse" x1="8" y1="4" x2="56" y2="60" >
<stop offset="0" style="stop-color:rgb(11.764706%,56.470588%,100%);stop-opacity:1;"/>
<stop offset="1" style="stop-color:rgb(4.705882%,22.745098%,40%);stop-opacity:1;"/>
</linearGradient>
<linearGradient id="linear2" gradientUnits="userSpaceOnUse" x1="8" y1="4" x2="56" y2="60" >
<stop offset="0" style="stop-color:rgb(11.764706%,56.470588%,100%);stop-opacity:1;"/>
<stop offset="1" style="stop-color:rgb(4.705882%,22.745098%,40%);stop-opacity:1;"/>
</linearGradient>
<linearGradient id="linear3" gradientUnits="userSpaceOnUse" x1="14" y1="26" x2="50" y2="54" >
<stop offset="0" style="stop-color:rgb(11.764706%,56.470588%,100%);stop-opacity:1;"/>
<stop offset="1" style="stop-color:rgb(4.705882%,22.745098%,40%);stop-opacity:1;"/>
</linearGradient>
</defs>
<g id="surface16501">
<path style=" stroke:none;fill-rule:evenodd;fill:rgb(74.901961%,74.901961%,74.901961%);fill-opacity:1;" d="M 35 7 L 47 7 L 59 19 L 59 57 C 59 60.3125 56.3125 63 53 63 L 17 63 C 13.6875 63 11 60.3125 11 57 L 11 13 C 11 9.6875 13.6875 7 17 7 Z M 35 7 "/>
<path style="fill-rule:evenodd;fill:url(#linear0);stroke-width:2;stroke-linecap:butt;stroke-linejoin:bevel;stroke:url(#linear1);stroke-miterlimit:10;" d="M 32 4 L 44 4 L 56 16 L 56 56 C 56 58.210938 54.210938 60 52 60 L 12 60 C 9.789062 60 8 58.210938 8 56 L 8 8 C 8 5.789062 9.789062 4 12 4 Z M 32 4 "/>
<path style="fill:none;stroke-width:2;stroke-linecap:butt;stroke-linejoin:bevel;stroke:url(#linear2);stroke-miterlimit:10;" d="M 44 4 L 44 16 L 56 16 "/>
<path style=" stroke:none;fill-rule:evenodd;fill:url(#linear3);" d="M 14 38 L 26 26 L 50 26 L 50 50 L 26 50 Z M 14 38 "/>
<path style="fill:none;stroke-width:6;stroke-linecap:butt;stroke-linejoin:miter;stroke:rgb(100%,100%,100%);stroke-opacity:1;stroke-miterlimit:10;" d="M 30 30 L 46 46 M 46 30 L 30 46 "/>
</g>
</svg>
