<?xml version="1.0" encoding="UTF-8"?>
<svg xmlns="http://www.w3.org/2000/svg" xmlns:xlink="http://www.w3.org/1999/xlink" width="64pt" height="64pt" viewBox="0 0 64 64" version="1.1">
<g id="surface16729">
<path style="fill:none;stroke-width:4;stroke-linecap:butt;stroke-linejoin:miter;stroke:rgb(82.745098%,82.745098%,82.745098%);stroke-opacity:1;stroke-miterlimit:10;" d="M 34 34 L 38 34 L 38 38 L 34 38 Z M 54 34 L 58 34 L 58 38 L 54 38 Z M 19.859375 24 L 23.859375 24 L 23.859375 28 L 19.859375 28 Z M 48.140625 24 L 52.140625 24 L 52.140625 28 L 48.140625 28 Z M 48.140625 24 "/>
<path style="fill:none;stroke-width:4;stroke-linecap:butt;stroke-linejoin:miter;stroke:rgb(82.745098%,82.745098%,82.745098%);stroke-opacity:1;stroke-miterlimit:10;" d="M 47.46875 24.53125 C 54.621094 28.035156 57.699219 34.382812 55.074219 40.207031 C 52.449219 46.035156 44.730469 50 36 50 C 27.269531 50 19.550781 46.035156 16.925781 40.207031 C 14.300781 34.382812 17.378906 28.035156 24.53125 24.53125 "/>
<path style="fill:none;stroke-width:4;stroke-linecap:butt;stroke-linejoin:miter;stroke:rgb(50.196078%,50.196078%,50.196078%);stroke-opacity:1;stroke-miterlimit:10;" d="M 28 28 L 32 28 L 32 32 L 28 32 Z M 48 28 L 52 28 L 52 32 L 48 32 Z M 13.859375 18 L 17.859375 18 L 17.859375 22 L 13.859375 22 Z M 42.140625 18 L 46.140625 18 L 46.140625 22 L 42.140625 22 Z M 42.140625 18 "/>
<path style="fill:none;stroke-width:4;stroke-linecap:butt;stroke-linejoin:miter;stroke:rgb(50.196078%,50.196078%,50.196078%);stroke-opacity:1;stroke-miterlimit:10;" d="M 41.46875 18.53125 C 48.621094 22.035156 51.699219 28.382812 49.074219 34.207031 C 46.449219 40.035156 38.730469 44 30 44 C 21.269531 44 13.550781 40.035156 10.925781 34.207031 C 8.300781 28.382812 11.378906 22.035156 18.53125 18.53125 "/>
</g>
</svg>
