<?xml version="1.0" encoding="UTF-8"?>
<svg xmlns="http://www.w3.org/2000/svg" xmlns:xlink="http://www.w3.org/1999/xlink" width="64pt" height="64pt" viewBox="0 0 64 64" version="1.1">
<g id="surface16713">
<path style="fill:none;stroke-width:4;stroke-linecap:butt;stroke-linejoin:miter;stroke:rgb(82.745098%,82.745098%,82.745098%);stroke-opacity:1;stroke-miterlimit:10;" d="M 12 36 L 16 36 L 16 40 L 12 40 Z M 28 56 L 32 56 L 32 60 L 28 60 Z M 48 54 L 52 54 L 52 58 L 48 58 Z M 56 26 L 60 26 L 60 30 L 56 30 Z M 32 16 L 36 16 L 36 20 L 32 20 Z M 32 16 "/>
<path style="fill:none;stroke-width:4;stroke-linecap:butt;stroke-linejoin:bevel;stroke:rgb(82.745098%,82.745098%,82.745098%);stroke-opacity:1;stroke-miterlimit:10;" d="M 14 38 L 30 58 L 50 56 L 58 28 L 34 18 Z M 14 38 "/>
<path style="fill:none;stroke-width:4;stroke-linecap:butt;stroke-linejoin:miter;stroke:rgb(50.196078%,50.196078%,50.196078%);stroke-opacity:1;stroke-miterlimit:10;" d="M 6 30 L 10 30 L 10 34 L 6 34 Z M 22 50 L 26 50 L 26 54 L 22 54 Z M 42 48 L 46 48 L 46 52 L 42 52 Z M 50 20 L 54 20 L 54 24 L 50 24 Z M 26 10 L 30 10 L 30 14 L 26 14 Z M 26 10 "/>
<path style="fill:none;stroke-width:4;stroke-linecap:butt;stroke-linejoin:bevel;stroke:rgb(50.196078%,50.196078%,50.196078%);stroke-opacity:1;stroke-miterlimit:10;" d="M 8 32 L 24 52 L 44 50 L 52 22 L 28 12 Z M 8 32 "/>
</g>
</svg>
