<?xml version="1.0" encoding="UTF-8"?>
<svg xmlns="http://www.w3.org/2000/svg" xmlns:xlink="http://www.w3.org/1999/xlink" width="64pt" height="64pt" viewBox="0 0 64 64" version="1.1">
<defs>
<linearGradient id="linear0" gradientUnits="userSpaceOnUse" x1="12" y1="0" x2="52" y2="0" >
<stop offset="0" style="stop-color:rgb(75.294118%,80%,75.294118%);stop-opacity:1;"/>
<stop offset="0.2" style="stop-color:rgb(94.117647%,100%,94.117647%);stop-opacity:1;"/>
<stop offset="1" style="stop-color:rgb(61.176471%,65.098039%,61.176471%);stop-opacity:1;"/>
</linearGradient>
<linearGradient id="linear1" gradientUnits="userSpaceOnUse" x1="12" y1="0" x2="52" y2="0" >
<stop offset="0" style="stop-color:rgb(75.294118%,80%,75.294118%);stop-opacity:1;"/>
<stop offset="0.2" style="stop-color:rgb(94.117647%,100%,94.117647%);stop-opacity:1;"/>
<stop offset="1" style="stop-color:rgb(61.176471%,65.098039%,61.176471%);stop-opacity:1;"/>
</linearGradient>
<linearGradient id="linear2" gradientUnits="userSpaceOnUse" x1="12" y1="0" x2="52" y2="0" >
<stop offset="0" style="stop-color:rgb(65.882353%,69.803922%,65.882353%);stop-opacity:1;"/>
<stop offset="0.2" style="stop-color:rgb(84.705882%,90.196078%,84.705882%);stop-opacity:1;"/>
<stop offset="1" style="stop-color:rgb(51.764706%,54.901961%,51.764706%);stop-opacity:1;"/>
</linearGradient>
<linearGradient id="linear3" gradientUnits="userSpaceOnUse" x1="12" y1="0" x2="52" y2="0" >
<stop offset="0" style="stop-color:rgb(65.882353%,69.803922%,65.882353%);stop-opacity:1;"/>
<stop offset="0.2" style="stop-color:rgb(84.705882%,90.196078%,84.705882%);stop-opacity:1;"/>
<stop offset="1" style="stop-color:rgb(51.764706%,54.901961%,51.764706%);stop-opacity:1;"/>
</linearGradient>
<linearGradient id="linear4" gradientUnits="userSpaceOnUse" x1="12" y1="0" x2="52" y2="0" >
<stop offset="0" style="stop-color:rgb(84.705882%,90.196078%,84.705882%);stop-opacity:1;"/>
<stop offset="0.2" style="stop-color:rgb(94.117647%,100%,94.117647%);stop-opacity:1;"/>
<stop offset="1" style="stop-color:rgb(75.294118%,80%,75.294118%);stop-opacity:1;"/>
</linearGradient>
<linearGradient id="linear5" gradientUnits="userSpaceOnUse" x1="12" y1="0" x2="54" y2="4" >
<stop offset="0" style="stop-color:rgb(90.196078%,24.313725%,0%);stop-opacity:1;"/>
<stop offset="0.3" style="stop-color:rgb(100%,27.058824%,0%);stop-opacity:1;"/>
<stop offset="1" style="stop-color:rgb(69.803922%,18.823529%,0%);stop-opacity:1;"/>
</linearGradient>
<linearGradient id="linear6" gradientUnits="userSpaceOnUse" x1="12" y1="0" x2="54" y2="4" >
<stop offset="0" style="stop-color:rgb(90.196078%,24.313725%,0%);stop-opacity:1;"/>
<stop offset="0.3" style="stop-color:rgb(100%,27.058824%,0%);stop-opacity:1;"/>
<stop offset="1" style="stop-color:rgb(69.803922%,18.823529%,0%);stop-opacity:1;"/>
</linearGradient>
<linearGradient id="linear7" gradientUnits="userSpaceOnUse" x1="12" y1="0" x2="48" y2="4" >
<stop offset="0" style="stop-color:rgb(69.803922%,18.823529%,0%);stop-opacity:1;"/>
<stop offset="0.3" style="stop-color:rgb(100%,27.058824%,0%);stop-opacity:1;"/>
<stop offset="1" style="stop-color:rgb(60%,16.078431%,0%);stop-opacity:1;"/>
</linearGradient>
</defs>
<g id="surface16249">
<path style="fill:none;stroke-width:2;stroke-linecap:round;stroke-linejoin:miter;stroke:rgb(80%,21.568627%,0%);stroke-opacity:1;stroke-miterlimit:10;" d="M 12.5 34 L 13.5 44 M 51.5 34 L 50.5 44 "/>
<path style="fill:none;stroke-width:4;stroke-linecap:butt;stroke-linejoin:round;stroke:url(#linear0);stroke-miterlimit:10;" d="M 15 36 L 13 50 L 51 50 L 49 36 Z M 15 36 "/>
<path style=" stroke:none;fill-rule:evenodd;fill:url(#linear1);" d="M 15 36 L 13 50 L 51 50 L 49 36 Z M 15 36 "/>
<path style="fill:none;stroke-width:4;stroke-linecap:butt;stroke-linejoin:round;stroke:url(#linear2);stroke-miterlimit:10;" d="M 13 52 L 15.398438 58 L 48.597656 58 L 50.996094 52 Z M 13 52 "/>
<path style=" stroke:none;fill-rule:evenodd;fill:url(#linear3);" d="M 13 52 L 15.398438 58 L 48.597656 58 L 50.996094 52 Z M 13 52 "/>
<path style="fill:none;stroke-width:2;stroke-linecap:round;stroke-linejoin:miter;stroke:url(#linear4);stroke-miterlimit:10;" d="M 13 51 L 51 51 "/>
<path style="fill:none;stroke-width:3;stroke-linecap:butt;stroke-linejoin:round;stroke:url(#linear5);stroke-miterlimit:10;" d="M 17 4 L 13 34 L 51 34 L 47 4 Z M 17 4 "/>
<path style=" stroke:none;fill-rule:evenodd;fill:url(#linear6);" d="M 17 4 L 13 34 L 51 34 L 47 4 Z M 17 4 "/>
<path style="fill:none;stroke-width:2;stroke-linecap:butt;stroke-linejoin:round;stroke:rgb(69.803922%,18.823529%,0%);stroke-opacity:1;stroke-miterlimit:10;" d="M 12 34 L 50 34 "/>
<path style="fill:none;stroke-width:2;stroke-linecap:butt;stroke-linejoin:round;stroke:url(#linear7);stroke-miterlimit:10;" d="M 20 12 L 44 12 M 19 18 L 45 18 M 18 24 L 46 24 "/>
</g>
</svg>
