<?xml version="1.0" encoding="UTF-8"?>
<svg xmlns="http://www.w3.org/2000/svg" xmlns:xlink="http://www.w3.org/1999/xlink" width="64pt" height="64pt" viewBox="0 0 64 64" version="1.1">
<g id="surface16253">
<path style="fill:none;stroke-width:2;stroke-linecap:round;stroke-linejoin:miter;stroke:rgb(64.313725%,0%,0%);stroke-opacity:1;stroke-miterlimit:10;" d="M 12.5 34 L 13.5 44 M 51.5 34 L 50.5 44 "/>
<path style="fill:none;stroke-width:4;stroke-linecap:butt;stroke-linejoin:round;stroke:rgb(82.745098%,82.745098%,82.745098%);stroke-opacity:1;stroke-miterlimit:10;" d="M 15 36 L 13 50 L 51 50 L 49 36 Z M 15 36 "/>
<path style=" stroke:none;fill-rule:evenodd;fill:rgb(82.745098%,82.745098%,82.745098%);fill-opacity:1;" d="M 15 36 L 13 50 L 51 50 L 49 36 Z M 15 36 "/>
<path style="fill:none;stroke-width:4;stroke-linecap:butt;stroke-linejoin:round;stroke:rgb(66.27451%,66.27451%,66.27451%);stroke-opacity:1;stroke-miterlimit:10;" d="M 13 52 L 15.398438 58 L 48.597656 58 L 50.996094 52 Z M 13 52 "/>
<path style=" stroke:none;fill-rule:evenodd;fill:rgb(66.27451%,66.27451%,66.27451%);fill-opacity:1;" d="M 13 52 L 15.398438 58 L 48.597656 58 L 50.996094 52 Z M 13 52 "/>
<path style="fill:none;stroke-width:2;stroke-linecap:round;stroke-linejoin:miter;stroke:rgb(66.27451%,66.27451%,66.27451%);stroke-opacity:1;stroke-miterlimit:10;" d="M 13 51 L 51 51 "/>
<path style="fill:none;stroke-width:3;stroke-linecap:butt;stroke-linejoin:round;stroke:rgb(80.392157%,0%,0%);stroke-opacity:1;stroke-miterlimit:10;" d="M 17 4 L 13 34 L 51 34 L 47 4 Z M 17 4 "/>
<path style=" stroke:none;fill-rule:evenodd;fill:rgb(80.392157%,0%,0%);fill-opacity:1;" d="M 17 4 L 13 34 L 51 34 L 47 4 Z M 17 4 "/>
<path style="fill:none;stroke-width:2;stroke-linecap:butt;stroke-linejoin:round;stroke:rgb(56.078431%,0%,0%);stroke-opacity:1;stroke-miterlimit:10;" d="M 12 34 L 50 34 "/>
<path style="fill:none;stroke-width:2;stroke-linecap:butt;stroke-linejoin:round;stroke:rgb(80.392157%,0%,0%);stroke-opacity:1;stroke-miterlimit:10;" d="M 20 12 L 44 12 M 19 18 L 45 18 M 18 24 L 46 24 "/>
</g>
</svg>
