<?xml version="1.0" encoding="UTF-8"?>
<svg xmlns="http://www.w3.org/2000/svg" xmlns:xlink="http://www.w3.org/1999/xlink" width="64pt" height="64pt" viewBox="0 0 64 64" version="1.1">
<defs>
<linearGradient id="linear0" gradientUnits="userSpaceOnUse" x1="44" y1="0" x2="58" y2="0" gradientTransform="matrix(-1,0,0,1,64,0)">
<stop offset="0" style="stop-color:rgb(40%,25.882353%,0%);stop-opacity:1;"/>
<stop offset="0.8" style="stop-color:rgb(90.196078%,58.431373%,0%);stop-opacity:1;"/>
<stop offset="1" style="stop-color:rgb(69.803922%,45.098039%,0%);stop-opacity:1;"/>
</linearGradient>
<linearGradient id="linear1" gradientUnits="userSpaceOnUse" x1="44" y1="0" x2="58" y2="0" gradientTransform="matrix(-1,0,0,1,64,0)">
<stop offset="0" style="stop-color:rgb(40%,25.882353%,0%);stop-opacity:1;"/>
<stop offset="0.8" style="stop-color:rgb(90.196078%,58.431373%,0%);stop-opacity:1;"/>
<stop offset="1" style="stop-color:rgb(69.803922%,45.098039%,0%);stop-opacity:1;"/>
</linearGradient>
<linearGradient id="linear2" gradientUnits="userSpaceOnUse" x1="44" y1="0" x2="58" y2="0" gradientTransform="matrix(-1,0,0,1,64,0)">
<stop offset="0" style="stop-color:rgb(40%,25.882353%,0%);stop-opacity:1;"/>
<stop offset="0.8" style="stop-color:rgb(90.196078%,58.431373%,0%);stop-opacity:1;"/>
<stop offset="1" style="stop-color:rgb(69.803922%,45.098039%,0%);stop-opacity:1;"/>
</linearGradient>
<linearGradient id="linear3" gradientUnits="userSpaceOnUse" x1="16" y1="0" x2="50" y2="0" gradientTransform="matrix(-0.707107,0.707107,0.707107,0.707107,32,-13.254834)">
<stop offset="0" style="stop-color:rgb(80%,21.568627%,0%);stop-opacity:1;"/>
<stop offset="0.3" style="stop-color:rgb(100%,27.058824%,0%);stop-opacity:1;"/>
<stop offset="1" style="stop-color:rgb(60%,16.078431%,0%);stop-opacity:1;"/>
</linearGradient>
<linearGradient id="linear4" gradientUnits="userSpaceOnUse" x1="16" y1="0" x2="50" y2="0" gradientTransform="matrix(1,0,0,1,0,-0.000000000000003553)">
<stop offset="0" style="stop-color:rgb(80%,21.568627%,0%);stop-opacity:1;"/>
<stop offset="0.3" style="stop-color:rgb(100%,27.058824%,0%);stop-opacity:1;"/>
<stop offset="1" style="stop-color:rgb(60%,16.078431%,0%);stop-opacity:1;"/>
</linearGradient>
<linearGradient id="linear5" gradientUnits="userSpaceOnUse" x1="20" y1="0" x2="44" y2="0" gradientTransform="matrix(1,0,0,1,0,-0.000000000000003553)">
<stop offset="0" style="stop-color:rgb(60%,60%,60%);stop-opacity:1;"/>
<stop offset="0.3" style="stop-color:rgb(100%,100%,100%);stop-opacity:1;"/>
<stop offset="1" style="stop-color:rgb(50.196078%,50.196078%,50.196078%);stop-opacity:1;"/>
</linearGradient>
</defs>
<g id="surface16233">
<path style=" stroke:none;fill-rule:evenodd;fill:url(#linear0);" d="M 6 52 C 6 58.667969 16 58.667969 16 52 "/>
<path style=" stroke:none;fill-rule:evenodd;fill:url(#linear1);" d="M 12.980469 46 C 12.980469 43.359375 9.019531 43.359375 9.019531 46 "/>
<path style=" stroke:none;fill-rule:evenodd;fill:url(#linear2);" d="M 13 46 L 16 52 L 6 52 L 9 46 Z M 13 46 "/>
<path style="fill:none;stroke-width:6;stroke-linecap:butt;stroke-linejoin:round;stroke:rgb(60%,16.078431%,0%);stroke-opacity:1;stroke-miterlimit:10;" d="M 39.999145 23.000961 L 50.000839 22.998199 L 39.999145 30.000214 Z M 39.999145 23.000961 " transform="matrix(-0.707107,0.707107,0.707107,0.707107,32,-13.254834)"/>
<path style=" stroke:none;fill-rule:evenodd;fill:url(#linear3);" d="M 22.808594 45.433594 L 30.585938 53.210938 C 32.148438 54.773438 34.679688 54.773438 36.242188 53.210938 L 53.210938 36.242188 C 54.773438 34.679688 54.773438 32.148438 53.214844 30.585938 L 37.65625 15.027344 C 36.09375 13.46875 33.5625 13.46875 32 15.03125 L 15.03125 32 C 13.46875 33.5625 13.46875 36.09375 15.03125 37.65625 Z M 22.808594 45.433594 "/>
<path style="fill:none;stroke-width:3;stroke-linecap:butt;stroke-linejoin:miter;stroke:url(#linear4);stroke-miterlimit:10;" d="M 20.001282 33.999786 C 20.001282 39.524058 17.313724 44.00148 13.999161 44.00148 C 10.68736 43.998718 7.999801 39.521296 7.999801 34.002549 C 7.999801 28.478277 10.68736 24.000855 13.999161 23.998092 C 17.313724 23.998092 19.99852 28.478277 20.001282 33.999786 Z M 20.001282 33.999786 " transform="matrix(-0.707107,0.707107,0.707107,0.707107,32,-13.254834)"/>
<path style="fill:none;stroke-width:3;stroke-linecap:butt;stroke-linejoin:miter;stroke:url(#linear5);stroke-miterlimit:10;" d="M 14.999054 20.998413 L 51.000733 20.998413 " transform="matrix(-0.707107,0.707107,0.707107,0.707107,32,-13.254834)"/>
<path style="fill:none;stroke-width:2;stroke-linecap:butt;stroke-linejoin:miter;stroke:rgb(60%,38.823529%,0%);stroke-opacity:1;stroke-miterlimit:10;" d="M 53.597656 37.5 C 54.425781 38.933594 53.933594 40.769531 52.5 41.597656 " transform="matrix(-1,0,0,1,64,0.000000000000005329)"/>
</g>
</svg>
