<?xml version="1.0" encoding="UTF-8"?>
<svg xmlns="http://www.w3.org/2000/svg" xmlns:xlink="http://www.w3.org/1999/xlink" width="64pt" height="64pt" viewBox="0 0 64 64" version="1.1">
<defs>
<linearGradient id="linear0" gradientUnits="userSpaceOnUse" x1="0" y1="0" x2="64" y2="0" >
<stop offset="0" style="stop-color:rgb(85.098039%,85.098039%,74.509804%);stop-opacity:1;"/>
<stop offset="1" style="stop-color:rgb(69.803922%,69.803922%,61.568627%);stop-opacity:1;"/>
</linearGradient>
<linearGradient id="linear1" gradientUnits="userSpaceOnUse" x1="0" y1="0" x2="64" y2="0" >
<stop offset="0" style="stop-color:rgb(85.098039%,85.098039%,74.509804%);stop-opacity:1;"/>
<stop offset="1" style="stop-color:rgb(69.803922%,69.803922%,61.568627%);stop-opacity:1;"/>
</linearGradient>
<linearGradient id="linear2" gradientUnits="userSpaceOnUse" x1="0" y1="0" x2="64" y2="64" >
<stop offset="0" style="stop-color:rgb(100%,84.313725%,0%);stop-opacity:1;"/>
<stop offset="1" style="stop-color:rgb(50.196078%,42.352941%,0%);stop-opacity:1;"/>
</linearGradient>
<linearGradient id="linear3" gradientUnits="userSpaceOnUse" x1="0" y1="0" x2="64" y2="64" gradientTransform="matrix(1,0,0,1,0,-12)">
<stop offset="0" style="stop-color:rgb(100%,84.313725%,0%);stop-opacity:1;"/>
<stop offset="1" style="stop-color:rgb(50.196078%,42.352941%,0%);stop-opacity:1;"/>
</linearGradient>
</defs>
<g id="surface16137">
<path style="fill-rule:evenodd;fill:url(#linear0);stroke-width:4;stroke-linecap:butt;stroke-linejoin:miter;stroke:url(#linear1);stroke-miterlimit:10;" d="M 4 32 L 4 20 C 4 17.789062 5.789062 16 8 16 L 16 16 C 18.210938 16 20 17.789062 20 20 C 20 21.105469 20.894531 22 22 22 L 44 22 C 46.210938 22 48 23.789062 48 26 L 48 32 Z M 4 32 " transform="matrix(1,0,0,1,0,-12)"/>
<path style="fill:none;stroke-width:8;stroke-linecap:butt;stroke-linejoin:round;stroke:url(#linear2);stroke-miterlimit:10;" d="M 4 30 L 48 30 L 48 60 L 4 60 Z M 4 30 " transform="matrix(1,0,0,1,0,-12)"/>
<path style=" stroke:none;fill-rule:evenodd;fill:url(#linear3);" d="M 4 18 L 48 18 L 48 48 L 4 48 Z M 4 18 "/>
<path style="fill:none;stroke-width:5.877486;stroke-linecap:butt;stroke-linejoin:miter;stroke:rgb(0%,0%,0%);stroke-opacity:1;stroke-miterlimit:10;" d="M 17.828125 37.886719 L 3.65625 52.058594 " transform="matrix(0.000000000000000061,-1,1,0.000000000000000061,0,64)"/>
<path style="fill:none;stroke-width:3.2;stroke-linecap:butt;stroke-linejoin:miter;stroke:rgb(0%,0%,0%);stroke-opacity:1;stroke-miterlimit:10;" d="M 42.972656 26 C 42.972656 33.320312 37.035156 39.257812 29.714844 39.257812 C 22.390625 39.257812 16.457031 33.320312 16.457031 26 C 16.457031 18.679688 22.390625 12.742187 29.714844 12.742187 C 37.035156 12.742187 42.972656 18.679687 42.972656 26 Z M 42.972656 26 " transform="matrix(0.000000000000000061,-1,1,0.000000000000000061,0,64)"/>
<path style="fill:none;stroke-width:2.605714;stroke-linecap:butt;stroke-linejoin:miter;stroke:rgb(0%,0%,0%);stroke-opacity:1;stroke-miterlimit:10;" d="M 29.714844 18.230469 C 34.007812 18.230469 37.484375 21.707031 37.484375 26 " transform="matrix(0.000000000000000061,-1,1,0.000000000000000061,0,64)"/>
</g>
</svg>
