<?xml version="1.0" encoding="UTF-8"?>
<svg xmlns="http://www.w3.org/2000/svg" xmlns:xlink="http://www.w3.org/1999/xlink" width="64pt" height="64pt" viewBox="0 0 64 64" version="1.1">
<g id="surface16121">
<path style="fill:none;stroke-width:6.3296;stroke-linecap:butt;stroke-linejoin:miter;stroke:rgb(0%,0%,0%);stroke-opacity:1;stroke-miterlimit:10;" d="M 29.199219 36.03125 L 13.9375 51.292969 " transform="matrix(0.000000000000000061,-1,1,0.000000000000000061,0,64)"/>
<path style="fill:none;stroke-width:3.446154;stroke-linecap:butt;stroke-linejoin:miter;stroke:rgb(0%,0%,0%);stroke-opacity:1;stroke-miterlimit:10;" d="M 56.277344 23.230469 C 56.277344 31.117187 49.886719 37.507812 42 37.507812 C 34.113281 37.507812 27.722656 31.117188 27.722656 23.230469 C 27.722656 15.347656 34.113281 8.953125 42 8.953125 C 49.886719 8.953125 56.277344 15.347656 56.277344 23.230469 Z M 56.277344 23.230469 " transform="matrix(0.000000000000000061,-1,1,0.000000000000000061,0,64)"/>
<path style="fill:none;stroke-width:2.806154;stroke-linecap:butt;stroke-linejoin:miter;stroke:rgb(0%,0%,0%);stroke-opacity:1;stroke-miterlimit:10;" d="M 42 14.863281 C 46.621094 14.863281 50.371094 18.609375 50.371094 23.230469 " transform="matrix(0.000000000000000061,-1,1,0.000000000000000061,0,64)"/>
<path style="fill:none;stroke-width:9;stroke-linecap:round;stroke-linejoin:miter;stroke:rgb(0%,0%,0%);stroke-opacity:1;stroke-miterlimit:10;" d="M 32.000036 3.997796 L 32.000036 12.999109 " transform="matrix(0.601041,0.601041,-0.601041,0.601041,39.821856,4.961492)"/>
<path style="fill:none;stroke-width:10;stroke-linecap:butt;stroke-linejoin:miter;stroke:rgb(96.078431%,96.078431%,96.078431%);stroke-opacity:1;stroke-miterlimit:10;" d="M 32.000036 10.997373 L 32.000036 13.999977 " transform="matrix(0.601041,0.601041,-0.601041,0.601041,39.821856,4.961492)"/>
<path style="fill:none;stroke-width:10;stroke-linecap:butt;stroke-linejoin:miter;stroke:rgb(80.392157%,0%,0%);stroke-opacity:1;stroke-miterlimit:10;" d="M 32.000036 13.999977 L 32.000036 52.000468 " transform="matrix(0.601041,0.601041,-0.601041,0.601041,39.821856,4.961492)"/>
<path style=" stroke:none;fill-rule:evenodd;fill:rgb(87.058824%,72.156863%,52.941176%);fill-opacity:1;" d="M 24.796875 52.445312 L 20.589844 62.660156 L 30.804688 58.453125 Z M 24.796875 52.445312 "/>
<path style=" stroke:none;fill-rule:evenodd;fill:rgb(0%,0%,0%);fill-opacity:1;" d="M 22.992188 57.132812 L 20.589844 62.660156 L 26.117188 60.257812 Z M 22.992188 57.132812 "/>
</g>
</svg>
