<?xml version="1.0" encoding="UTF-8"?>
<svg xmlns="http://www.w3.org/2000/svg" xmlns:xlink="http://www.w3.org/1999/xlink" width="64pt" height="64pt" viewBox="0 0 64 64" version="1.1">
<g id="surface16141">
<path style="fill:none;stroke-width:8;stroke-linecap:butt;stroke-linejoin:round;stroke:rgb(85.490196%,64.705882%,12.54902%);stroke-opacity:1;stroke-miterlimit:10;" d="M 4 32 L 48 32 L 48 60 L 4 60 Z M 4 32 " transform="matrix(1,0,0,1,0,-12)"/>
<path style=" stroke:none;fill-rule:evenodd;fill:rgb(85.490196%,64.705882%,12.54902%);fill-opacity:1;" d="M 4 20 L 48 20 L 48 48 L 4 48 Z M 4 20 "/>
<path style="fill:none;stroke-width:4;stroke-linecap:butt;stroke-linejoin:miter;stroke:rgb(85.490196%,64.705882%,12.54902%);stroke-opacity:1;stroke-miterlimit:10;" d="M 4 32 L 4 20 C 4 17.789062 5.789062 16 8 16 L 16 16 C 18.210938 16 20 17.789062 20 20 C 20 21.105469 20.894531 22 22 22 L 44 22 C 46.210938 22 48 23.789062 48 26 L 48 32 " transform="matrix(1,0,0,1,0,-12)"/>
<path style="fill:none;stroke-width:5.877486;stroke-linecap:butt;stroke-linejoin:miter;stroke:rgb(0%,0%,0%);stroke-opacity:1;stroke-miterlimit:10;" d="M 17.828125 37.886719 L 3.65625 52.058594 " transform="matrix(0.000000000000000061,-1,1,0.000000000000000061,0,64)"/>
<path style="fill:none;stroke-width:3.2;stroke-linecap:butt;stroke-linejoin:miter;stroke:rgb(0%,0%,0%);stroke-opacity:1;stroke-miterlimit:10;" d="M 42.972656 26 C 42.972656 33.320312 37.035156 39.257812 29.714844 39.257812 C 22.390625 39.257812 16.457031 33.320312 16.457031 26 C 16.457031 18.679688 22.390625 12.742187 29.714844 12.742187 C 37.035156 12.742187 42.972656 18.679687 42.972656 26 Z M 42.972656 26 " transform="matrix(0.000000000000000061,-1,1,0.000000000000000061,0,64)"/>
<path style="fill:none;stroke-width:2.605714;stroke-linecap:butt;stroke-linejoin:miter;stroke:rgb(0%,0%,0%);stroke-opacity:1;stroke-miterlimit:10;" d="M 29.714844 18.230469 C 34.007812 18.230469 37.484375 21.707031 37.484375 26 " transform="matrix(0.000000000000000061,-1,1,0.000000000000000061,0,64)"/>
</g>
</svg>
