<?xml version="1.0" encoding="UTF-8"?>
<svg xmlns="http://www.w3.org/2000/svg" xmlns:xlink="http://www.w3.org/1999/xlink" width="64pt" height="64pt" viewBox="0 0 64 64" version="1.1">
<defs>
<linearGradient id="linear0" gradientUnits="userSpaceOnUse" x1="0" y1="0" x2="64" y2="0" >
<stop offset="0" style="stop-color:rgb(85.098039%,85.098039%,74.509804%);stop-opacity:1;"/>
<stop offset="1" style="stop-color:rgb(69.803922%,69.803922%,61.568627%);stop-opacity:1;"/>
</linearGradient>
<linearGradient id="linear1" gradientUnits="userSpaceOnUse" x1="0" y1="0" x2="64" y2="0" >
<stop offset="0" style="stop-color:rgb(85.098039%,85.098039%,74.509804%);stop-opacity:1;"/>
<stop offset="1" style="stop-color:rgb(69.803922%,69.803922%,61.568627%);stop-opacity:1;"/>
</linearGradient>
<linearGradient id="linear2" gradientUnits="userSpaceOnUse" x1="0" y1="0" x2="64" y2="0" >
<stop offset="0" style="stop-color:rgb(85.098039%,85.098039%,74.509804%);stop-opacity:1;"/>
<stop offset="1" style="stop-color:rgb(69.803922%,69.803922%,61.568627%);stop-opacity:1;"/>
</linearGradient>
<linearGradient id="linear3" gradientUnits="userSpaceOnUse" x1="0" y1="0" x2="64" y2="64" >
<stop offset="0" style="stop-color:rgb(100%,84.313725%,0%);stop-opacity:1;"/>
<stop offset="1" style="stop-color:rgb(50.196078%,42.352941%,0%);stop-opacity:1;"/>
</linearGradient>
<linearGradient id="linear4" gradientUnits="userSpaceOnUse" x1="0" y1="0" x2="64" y2="64" >
<stop offset="0" style="stop-color:rgb(100%,84.313725%,0%);stop-opacity:1;"/>
<stop offset="1" style="stop-color:rgb(50.196078%,42.352941%,0%);stop-opacity:1;"/>
</linearGradient>
</defs>
<g id="surface16125">
<path style="fill:none;stroke-width:4;stroke-linecap:butt;stroke-linejoin:miter;stroke:url(#linear0);stroke-miterlimit:10;" d="M 4 32 L 4 12 C 4 9.789062 5.789062 8 8 8 L 20 8 C 22.210938 8 24 9.789062 24 12 "/>
<path style="fill-rule:evenodd;fill:url(#linear1);stroke-width:4;stroke-linecap:butt;stroke-linejoin:miter;stroke:url(#linear2);stroke-miterlimit:10;" d="M 4 32 L 4 12 C 4 9.789062 5.789062 8 8 8 L 20 8 C 22.210938 8 24 9.789062 24 12 C 24 13.105469 24.894531 14 26 14 L 56 14 C 58.210938 14 60 15.789062 60 18 L 60 32 Z M 4 32 "/>
<path style="fill:none;stroke-width:8;stroke-linecap:butt;stroke-linejoin:round;stroke:url(#linear3);stroke-miterlimit:10;" d="M 4 24 L 60 24 L 60 54 L 4 54 Z M 4 24 "/>
<path style=" stroke:none;fill-rule:evenodd;fill:url(#linear4);" d="M 4 24 L 60 24 L 60 54 L 4 54 Z M 4 24 "/>
</g>
</svg>
