<?xml version="1.0" encoding="UTF-8"?>
<svg xmlns="http://www.w3.org/2000/svg" xmlns:xlink="http://www.w3.org/1999/xlink" width="64pt" height="64pt" viewBox="0 0 64 64" version="1.1">
<defs>
<linearGradient id="linear0" gradientUnits="userSpaceOnUse" x1="0" y1="0" x2="64" y2="0" >
<stop offset="0" style="stop-color:rgb(100%,27.058824%,0%);stop-opacity:1;"/>
<stop offset="1" style="stop-color:rgb(65.098039%,17.647059%,0%);stop-opacity:1;"/>
</linearGradient>
<radialGradient id="radial0" gradientUnits="userSpaceOnUse" cx="36" cy="32" fx="36" fy="32" r="8" gradientTransform="matrix(0.000000000000000061,1,1,-0.000000000000000061,0,0.000000000000003919)">
<stop offset="0" style="stop-color:rgb(100%,84.313725%,0%);stop-opacity:1;"/>
<stop offset="1" style="stop-color:rgb(65.098039%,54.901961%,0%);stop-opacity:1;"/>
</radialGradient>
<linearGradient id="linear1" gradientUnits="userSpaceOnUse" x1="0" y1="0" x2="64" y2="0" gradientTransform="matrix(0.000000000000000061,1,1,-0.000000000000000061,0,0.000000000000003919)">
<stop offset="0" style="stop-color:rgb(100%,27.058824%,0%);stop-opacity:1;"/>
<stop offset="1" style="stop-color:rgb(65.098039%,17.647059%,0%);stop-opacity:1;"/>
</linearGradient>
</defs>
<g id="surface16173">
<path style="fill:none;stroke-width:16;stroke-linecap:butt;stroke-linejoin:miter;stroke:url(#linear0);stroke-miterlimit:10;" d="M 16.003906 30.347656 C 15.910156 25.015625 17.953125 19.867188 21.675781 16.042969 C 25.394531 12.222656 30.492187 10.046875 35.824219 10 C 41.160156 9.953125 46.292969 12.039062 50.082031 15.796875 C 53.867187 19.550781 56 24.664062 56 30 L 56 40 M 16 30 L 16 44 " transform="matrix(0.000000000000000061,1,1,-0.000000000000000061,0,0.000000000000003919)"/>
<path style=" stroke:none;fill-rule:evenodd;fill:url(#radial0);" d="M 32 44 C 36.417969 44 40 40.417969 40 36 C 40 31.582031 36.417969 28 32 28 C 27.582031 28 24 31.582031 24 36 C 24 40.417969 27.582031 44 32 44 Z M 32 44 "/>
<path style=" stroke:none;fill-rule:evenodd;fill:url(#linear1);" d="M 44 0 L 64 16 L 44 32 Z M 44 0 "/>
</g>
</svg>
