<?xml version="1.0" encoding="UTF-8"?>
<svg xmlns="http://www.w3.org/2000/svg" xmlns:xlink="http://www.w3.org/1999/xlink" width="64pt" height="64pt" viewBox="0 0 64 64" version="1.1">
<defs>
<linearGradient id="linear0" gradientUnits="userSpaceOnUse" x1="0" y1="0" x2="64" y2="64" >
<stop offset="0" style="stop-color:rgb(96.078431%,96.078431%,96.078431%);stop-opacity:1;"/>
<stop offset="1" style="stop-color:rgb(67.058824%,67.058824%,67.058824%);stop-opacity:1;"/>
</linearGradient>
<linearGradient id="linear1" gradientUnits="userSpaceOnUse" x1="0" y1="0" x2="64" y2="64" >
<stop offset="0" style="stop-color:rgb(96.078431%,96.078431%,96.078431%);stop-opacity:1;"/>
<stop offset="1" style="stop-color:rgb(57.647059%,57.647059%,57.647059%);stop-opacity:1;"/>
</linearGradient>
</defs>
<g id="surface16621">
<path style="fill:none;stroke-width:12;stroke-linecap:butt;stroke-linejoin:miter;stroke:url(#linear0);stroke-miterlimit:10;" d="M 56 60 L 56 12 L 12 56 L 62 56 "/>
<path style="fill:none;stroke-width:4;stroke-linecap:butt;stroke-linejoin:miter;stroke:url(#linear1);stroke-miterlimit:10;" d="M 60 62 L 60 4 L 4 60 L 62 60 "/>
<path style="fill:none;stroke-width:0.5;stroke-linecap:butt;stroke-linejoin:miter;stroke:rgb(62.352941%,62.352941%,62.352941%);stroke-opacity:1;stroke-miterlimit:10;" d="M 50 50 L 50 26 L 26 50 L 50 50 "/>
<path style="fill:none;stroke-width:0.5;stroke-linecap:butt;stroke-linejoin:miter;stroke:rgb(41.176471%,41.176471%,41.176471%);stroke-opacity:1;stroke-miterlimit:10;" d="M 4 62 L 4 58 M 12 62 L 12 58 M 20 62 L 20 58 M 28 62 L 28 58 M 36 62 L 36 58 M 44 62 L 44 58 M 52 62 L 52 58 M 60 62 L 60 58 "/>
<path style="fill:none;stroke-width:0.5;stroke-linecap:butt;stroke-linejoin:miter;stroke:rgb(41.176471%,41.176471%,41.176471%);stroke-opacity:1;stroke-miterlimit:10;" d="M 4 62 L 4 58 M 12 62 L 12 58 M 20 62 L 20 58 M 28 62 L 28 58 M 36 62 L 36 58 M 44 62 L 44 58 M 52 62 L 52 58 M 60 62 L 60 58 " transform="matrix(0.000000000000000061,-1,1,0.000000000000000061,0,64)"/>
<path style="fill:none;stroke-width:0.5;stroke-linecap:butt;stroke-linejoin:miter;stroke:rgb(41.176471%,41.176471%,41.176471%);stroke-opacity:1;stroke-miterlimit:10;" d="M 4.000229 62.001267 L 4.000229 58.001694 M 11.999374 62.001267 L 11.999374 58.001694 M 19.99852 62.001267 L 20.001282 57.998932 M 28.000427 61.998505 L 28.000427 57.998932 M 35.999573 61.998505 L 35.999573 57.998932 M 44.00148 62.001267 L 43.998718 57.998932 M 52.000626 62.001267 L 52.000626 58.001694 M 59.999771 62.001267 L 59.999771 58.001694 M 67.998917 62.001267 L 68.001679 57.998932 M 76.000824 61.998505 L 76.000824 57.998932 M 83.99997 61.998505 L 83.99997 57.998932 " transform="matrix(-0.707107,0.707107,-0.707107,-0.707107,104.568542,43.313708)"/>
</g>
</svg>
