<?xml version="1.0" encoding="UTF-8"?>
<svg xmlns="http://www.w3.org/2000/svg" xmlns:xlink="http://www.w3.org/1999/xlink" width="64pt" height="64pt" viewBox="0 0 64 64" version="1.1">
<defs>
<linearGradient id="linear0" gradientUnits="userSpaceOnUse" x1="0" y1="0" x2="64" y2="64" >
<stop offset="0" style="stop-color:rgb(94.901961%,94.901961%,89.411765%);stop-opacity:1;"/>
<stop offset="1" style="stop-color:rgb(85.098039%,85.098039%,80%);stop-opacity:1;"/>
</linearGradient>
<linearGradient id="linear1" gradientUnits="userSpaceOnUse" x1="0" y1="0" x2="64" y2="64" >
<stop offset="0" style="stop-color:rgb(100%,100%,94.117647%);stop-opacity:1;"/>
<stop offset="1" style="stop-color:rgb(80%,80%,75.294118%);stop-opacity:1;"/>
</linearGradient>
</defs>
<g id="surface16321">
<path style="fill-rule:evenodd;fill:url(#linear0);stroke-width:2;stroke-linecap:butt;stroke-linejoin:miter;stroke:url(#linear1);stroke-miterlimit:10;" d="M 2 2 L 2 62 L 62 62 L 62 2 Z M 2 2 "/>
<path style="fill:none;stroke-width:4;stroke-linecap:butt;stroke-linejoin:miter;stroke:rgb(75.294118%,75.294118%,75.294118%);stroke-opacity:1;stroke-miterlimit:10;" d="M 14 14 L 22 14 L 22 22 L 14 22 Z M 50 14 L 58 14 L 58 22 L 50 22 Z M 14 50 L 22 50 L 22 58 L 14 58 Z M 50 50 L 58 50 L 58 58 L 50 58 Z M 50 50 "/>
<path style="fill-rule:evenodd;fill:rgb(60.392157%,60.392157%,60.392157%);fill-opacity:1;stroke-width:3;stroke-linecap:butt;stroke-linejoin:miter;stroke:rgb(75.294118%,75.294118%,75.294118%);stroke-opacity:1;stroke-dasharray:4;stroke-miterlimit:10;" d="M 18 18 L 54 18 L 54 54 L 18 54 Z M 18 18 "/>
<path style="fill:none;stroke-width:4;stroke-linecap:butt;stroke-linejoin:miter;stroke:rgb(39.215686%,58.431373%,92.941176%);stroke-opacity:1;stroke-miterlimit:10;" d="M 8 8 L 16 8 L 16 16 L 8 16 Z M 44 8 L 52 8 L 52 16 L 44 16 Z M 8 44 L 16 44 L 16 52 L 8 52 Z M 44 44 L 52 44 L 52 52 L 44 52 Z M 44 44 "/>
<path style="fill-rule:evenodd;fill:rgb(31.372549%,46.666667%,74.509804%);fill-opacity:1;stroke-width:3;stroke-linecap:butt;stroke-linejoin:miter;stroke:rgb(0%,0%,0%);stroke-opacity:1;stroke-dasharray:4;stroke-miterlimit:10;" d="M 12 12 L 48 12 L 48 48 L 12 48 Z M 12 12 "/>
</g>
</svg>
