<?xml version="1.0" encoding="UTF-8"?>
<svg xmlns="http://www.w3.org/2000/svg" xmlns:xlink="http://www.w3.org/1999/xlink" width="64pt" height="64pt" viewBox="0 0 64 64" version="1.1">
<defs>
<linearGradient id="linear0" gradientUnits="userSpaceOnUse" x1="0" y1="0" x2="64" y2="0" >
<stop offset="0" style="stop-color:rgb(85.098039%,85.098039%,85.098039%);stop-opacity:1;"/>
<stop offset="0.55" style="stop-color:rgb(100%,100%,100%);stop-opacity:1;"/>
<stop offset="1" style="stop-color:rgb(85.098039%,85.098039%,85.098039%);stop-opacity:1;"/>
</linearGradient>
<linearGradient id="linear1" gradientUnits="userSpaceOnUse" x1="8" y1="8" x2="56" y2="62" >
<stop offset="0" style="stop-color:rgb(11.764706%,56.470588%,100%);stop-opacity:1;"/>
<stop offset="1" style="stop-color:rgb(3.529412%,16.862745%,29.803922%);stop-opacity:1;"/>
</linearGradient>
<linearGradient id="linear2" gradientUnits="userSpaceOnUse" x1="12" y1="22" x2="52" y2="54" >
<stop offset="0" style="stop-color:rgb(11.764706%,56.470588%,100%);stop-opacity:1;"/>
<stop offset="1" style="stop-color:rgb(5.882353%,28.235294%,50.196078%);stop-opacity:1;"/>
</linearGradient>
<linearGradient id="linear3" gradientUnits="userSpaceOnUse" x1="14" y1="27" x2="26" y2="50" >
<stop offset="0" style="stop-color:rgb(100%,100%,100%);stop-opacity:1;"/>
<stop offset="1" style="stop-color:rgb(69.803922%,69.803922%,69.803922%);stop-opacity:1;"/>
</linearGradient>
<linearGradient id="linear4" gradientUnits="userSpaceOnUse" x1="30" y1="26" x2="50" y2="52" >
<stop offset="0" style="stop-color:rgb(100%,100%,100%);stop-opacity:1;"/>
<stop offset="1" style="stop-color:rgb(69.803922%,69.803922%,69.803922%);stop-opacity:1;"/>
</linearGradient>
<linearGradient id="linear5" gradientUnits="userSpaceOnUse" x1="30" y1="26" x2="50" y2="52" >
<stop offset="0" style="stop-color:rgb(100%,100%,100%);stop-opacity:1;"/>
<stop offset="1" style="stop-color:rgb(69.803922%,69.803922%,69.803922%);stop-opacity:1;"/>
</linearGradient>
</defs>
<g id="surface16485">
<path style=" stroke:none;fill-rule:evenodd;fill:rgb(50.196078%,50.196078%,50.196078%);fill-opacity:1;" d="M 10 10 L 58 10 L 58 64 L 10 64 Z M 10 10 "/>
<path style="fill-rule:evenodd;fill:url(#linear0);stroke-width:1;stroke-linecap:butt;stroke-linejoin:miter;stroke:url(#linear1);stroke-miterlimit:10;" d="M 8 8 L 56 8 L 56 62 L 8 62 Z M 8 8 "/>
<path style=" stroke:none;fill-rule:evenodd;fill:url(#linear2);" d="M 12 22 L 52 22 L 52 54 L 12 54 Z M 12 22 "/>
<path style="fill:none;stroke-width:4;stroke-linecap:butt;stroke-linejoin:miter;stroke:rgb(46.27451%,46.27451%,46.27451%);stroke-opacity:1;stroke-miterlimit:10;" d="M 16 18 L 26 18 "/>
<path style="fill:none;stroke-width:4;stroke-linecap:butt;stroke-linejoin:miter;stroke:url(#linear3);stroke-miterlimit:10;" d="M 16 28 L 26 28 M 16 38 L 26 38 M 16 48 L 26 48 "/>
<path style=" stroke:none;fill-rule:evenodd;fill:url(#linear4);" d="M 30 38 L 40 52 L 50 38 Z M 30 38 "/>
<path style="fill:none;stroke-width:8;stroke-linecap:butt;stroke-linejoin:miter;stroke:url(#linear5);stroke-miterlimit:10;" d="M 40 26 L 40 38 "/>
</g>
</svg>
