<?xml version="1.0" encoding="UTF-8"?>
<svg xmlns="http://www.w3.org/2000/svg" xmlns:xlink="http://www.w3.org/1999/xlink" width="64pt" height="64pt" viewBox="0 0 64 64" version="1.1">
<defs>
<linearGradient id="linear0" gradientUnits="userSpaceOnUse" x1="4" y1="4" x2="57" y2="62" >
<stop offset="0" style="stop-color:rgb(86.27451%,58.039216%,33.72549%);stop-opacity:1;"/>
<stop offset="1" style="stop-color:rgb(76.470588%,51.372549%,30.196078%);stop-opacity:1;"/>
</linearGradient>
<linearGradient id="linear1" gradientUnits="userSpaceOnUse" x1="4" y1="4" x2="57" y2="62" >
<stop offset="0" style="stop-color:rgb(95.686275%,64.313725%,37.647059%);stop-opacity:1;"/>
<stop offset="1" style="stop-color:rgb(57.254902%,38.431373%,22.745098%);stop-opacity:1;"/>
</linearGradient>
<linearGradient id="linear2" gradientUnits="userSpaceOnUse" x1="0" y1="15" x2="0" y2="21" >
<stop offset="0" style="stop-color:rgb(29.803922%,29.803922%,29.803922%);stop-opacity:1;"/>
<stop offset="0.6" style="stop-color:rgb(80%,80%,80%);stop-opacity:1;"/>
<stop offset="1" style="stop-color:rgb(0%,0%,0%);stop-opacity:1;"/>
</linearGradient>
</defs>
<g id="surface16409">
<path style="fill-rule:evenodd;fill:url(#linear0);stroke-width:2;stroke-linecap:butt;stroke-linejoin:bevel;stroke:url(#linear1);stroke-miterlimit:10;" d="M 7 7 L 57 7 L 57 62 L 7 62 Z M 7 7 "/>
<path style="fill:none;stroke-width:2;stroke-linecap:butt;stroke-linejoin:miter;stroke:rgb(100%,100%,100%);stroke-opacity:1;stroke-miterlimit:10;" d="M 26.089844 7.957031 C 26.597656 5.089844 29.089844 3 32 3 C 34.910156 3 37.402344 5.089844 37.910156 7.957031 " transform="matrix(1,0,0,1,1,1)"/>
<path style="fill:none;stroke-width:14;stroke-linecap:butt;stroke-linejoin:round;stroke:rgb(100%,100%,100%);stroke-opacity:1;stroke-miterlimit:10;" d="M 25 14 L 39 14 " transform="matrix(1,0,0,1,1,1)"/>
<path style=" stroke:none;fill-rule:evenodd;fill:rgb(100%,100%,100%);fill-opacity:1;" d="M 20 22 C 20 18.6875 22.6875 16 26 16 L 40 16 C 43.3125 16 46 18.6875 46 22 Z M 20 22 "/>
<path style="fill:none;stroke-width:2;stroke-linecap:butt;stroke-linejoin:miter;stroke:rgb(0%,0%,0%);stroke-opacity:1;stroke-miterlimit:10;" d="M 26.089844 7.957031 C 26.597656 5.089844 29.089844 3 32 3 C 34.910156 3 37.402344 5.089844 37.910156 7.957031 "/>
<path style="fill:none;stroke-width:14;stroke-linecap:butt;stroke-linejoin:round;stroke:rgb(0%,0%,0%);stroke-opacity:1;stroke-miterlimit:10;" d="M 25 14 L 39 14 "/>
<path style=" stroke:none;fill-rule:evenodd;fill:url(#linear2);" d="M 19 21 C 19 17.6875 21.6875 15 25 15 L 39 15 C 42.3125 15 45 17.6875 45 21 Z M 19 21 "/>
<path style=" stroke:none;fill-rule:evenodd;fill:rgb(100%,100%,100%);fill-opacity:1;" d="M 15 27 L 31 39 L 15 51 Z M 15 27 "/>
<path style="fill:none;stroke-width:10;stroke-linecap:butt;stroke-linejoin:miter;stroke:rgb(100%,100%,100%);stroke-opacity:1;stroke-miterlimit:10;" d="M 16 40 L 0 40 " transform="matrix(1,0,0,1,-1,-1)"/>
<path style=" stroke:none;fill-rule:evenodd;fill:rgb(28.235294%,23.921569%,54.509804%);fill-opacity:1;" d="M 14 26 L 30 38 L 14 50 Z M 14 26 "/>
<path style="fill:none;stroke-width:10;stroke-linecap:butt;stroke-linejoin:miter;stroke:rgb(28.235294%,23.921569%,54.509804%);stroke-opacity:1;stroke-miterlimit:10;" d="M 16 40 L 0 40 " transform="matrix(1,0,0,1,-2,-2)"/>
</g>
</svg>
