<?xml version="1.0" encoding="UTF-8"?>
<svg xmlns="http://www.w3.org/2000/svg" xmlns:xlink="http://www.w3.org/1999/xlink" width="64pt" height="64pt" viewBox="0 0 64 64" version="1.1">
<g id="surface14745">
<path style="fill:none;stroke-width:4;stroke-linecap:butt;stroke-linejoin:miter;stroke:rgb(100%,0%,0%);stroke-opacity:1;stroke-miterlimit:10;" d="M 62 32 C 62 38.628906 48.570312 44 32 44 C 15.429688 44 2 38.628906 2 32 C 2 25.371094 15.429688 20 32 20 C 48.570312 20 62 25.371094 62 32 Z M 62 32 "/>
<path style="fill:none;stroke-width:4;stroke-linecap:butt;stroke-linejoin:miter;stroke:rgb(56.470588%,93.333333%,56.470588%);stroke-opacity:1;stroke-miterlimit:10;" d="M 61.999746 31.999853 C 61.999314 38.625601 48.5669 44.0006 32.00084 43.998545 C 15.432827 43.999873 1.999823 38.625894 2.000254 32.000147 C 2.000686 25.374399 15.4331 19.9994 31.99916 20.001455 C 48.567173 20.000127 62.000177 25.374106 61.999746 31.999853 Z M 61.999746 31.999853 " transform="matrix(0.5,0.866025,-0.866025,0.5,43.712813,-11.712813)"/>
<path style="fill:none;stroke-width:4;stroke-linecap:butt;stroke-linejoin:miter;stroke:rgb(0%,0%,100%);stroke-opacity:1;stroke-miterlimit:10;" d="M 61.999746 32.000147 C 62.000177 38.625894 48.567173 43.999873 31.99916 43.998545 C 15.4331 44.0006 2.000686 38.625601 2.000254 31.999853 C 1.999823 25.374106 15.432827 20.000127 32.00084 20.001455 C 48.5669 19.9994 61.999314 25.374399 61.999746 32.000147 Z M 61.999746 32.000147 " transform="matrix(-0.5,0.866025,-0.866025,-0.5,75.712813,20.287187)"/>
<path style=" stroke:none;fill-rule:evenodd;fill:rgb(0%,0%,100%);fill-opacity:1;" d="M 29 37.195312 C 26.128906 35.539062 25.148438 31.871094 26.804688 29 C 28.460938 26.128906 32.128906 25.148438 35 26.804688 C 37.871094 28.460938 38.851562 32.128906 37.195312 35 C 35.539062 37.871094 31.871094 38.851562 29 37.195312 Z M 29 37.195312 "/>
</g>
</svg>
