<?xml version="1.0" encoding="UTF-8"?>
<svg xmlns="http://www.w3.org/2000/svg" xmlns:xlink="http://www.w3.org/1999/xlink" width="64pt" height="64pt" viewBox="0 0 64 64" version="1.1">
<g id="surface14493">
<path style=" stroke:none;fill-rule:evenodd;fill:rgb(0%,0%,0%);fill-opacity:1;" d="M 64 32 C 64 49.671875 49.671875 64 32 64 C 14.328125 64 0 49.671875 0 32 C 0 14.328125 14.328125 0 32 0 C 49.671875 0 64 14.328125 64 32 Z M 64 32 "/>
<path style=" stroke:none;fill-rule:evenodd;fill:rgb(100%,100%,100%);fill-opacity:1;" d="M 32 15.359375 L 30.398438 15.359375 L 30.71875 17.28125 C 21.121094 17.28125 25.601562 34.558594 19.839844 36.480469 L 32 36.480469 M 32 40.640625 C 30.234375 40.640625 28.800781 39.207031 28.800781 37.441406 L 32 37.441406 "/>
<path style="fill:none;stroke-width:3.2;stroke-linecap:butt;stroke-linejoin:miter;stroke:rgb(100%,100%,100%);stroke-opacity:1;stroke-miterlimit:10;" d="M 21.097656 44.992188 C 17.257812 41.769531 15.039062 37.011719 15.039062 32 C 15.039062 26.988281 17.257812 22.230469 21.097656 19.007812 M 16.984375 49.894531 C 11.695312 45.457031 8.640625 38.90625 8.640625 32 C 8.640625 25.09375 11.695312 18.542969 16.984375 14.105469 "/>
<path style=" stroke:none;fill-rule:evenodd;fill:rgb(100%,100%,100%);fill-opacity:1;" d="M 32 15.359375 L 33.601562 15.359375 L 33.28125 17.28125 C 42.878906 17.28125 38.398438 34.558594 44.160156 36.480469 L 32 36.480469 M 32 40.640625 C 33.765625 40.640625 35.199219 39.207031 35.199219 37.441406 L 32 37.441406 "/>
<path style="fill:none;stroke-width:3.2;stroke-linecap:butt;stroke-linejoin:miter;stroke:rgb(100%,100%,100%);stroke-opacity:1;stroke-miterlimit:10;" d="M 21.097656 44.992188 C 17.257812 41.769531 15.039062 37.011719 15.039062 32 C 15.039062 26.988281 17.257812 22.230469 21.097656 19.007812 M 16.984375 49.894531 C 11.695312 45.457031 8.640625 38.90625 8.640625 32 C 8.640625 25.09375 11.695312 18.542969 16.984375 14.105469 " transform="matrix(-1,0,0,1,64,0)"/>
</g>
</svg>
