<?xml version="1.0" encoding="UTF-8"?>
<svg xmlns="http://www.w3.org/2000/svg" xmlns:xlink="http://www.w3.org/1999/xlink" width="64pt" height="64pt" viewBox="0 0 64 64" version="1.1">
<g id="surface14885">
<path style=" stroke:none;fill-rule:evenodd;fill:rgb(50.196078%,50.196078%,50.196078%);fill-opacity:1;" d="M 36 11 L 36 12 C 36 13.105469 35.105469 14 34 14 L 30 14 C 28.894531 14 28 13.105469 28 12 L 28 10 C 28 8.894531 28.894531 8 30 8 L 34 8 C 35.105469 8 36 8.894531 36 10 Z M 36 11 "/>
<path style=" stroke:none;fill-rule:evenodd;fill:rgb(0%,0%,0%);fill-opacity:1;" d="M 46 36 L 46 56 C 46 58.210938 44.210938 60 42 60 L 22 60 C 19.789062 60 18 58.210938 18 56 L 18 16 C 18 13.789062 19.789062 12 22 12 L 42 12 C 44.210938 12 46 13.789062 46 16 Z M 46 36 "/>
<path style=" stroke:none;fill-rule:evenodd;fill:rgb(100%,100%,0%);fill-opacity:1;" d="M 35.375 20.25 L 24.125 38.25 L 29.75 38.25 L 29.75 51.75 L 41 33.75 L 35.375 33.75 Z M 35.375 20.25 "/>
</g>
</svg>
