<?xml version="1.0" encoding="UTF-8"?>
<svg xmlns="http://www.w3.org/2000/svg" xmlns:xlink="http://www.w3.org/1999/xlink" width="64pt" height="64pt" viewBox="0 0 64 64" version="1.1">
<g id="surface15557">
<path style=" stroke:none;fill-rule:evenodd;fill:rgb(75.294118%,75.294118%,75.294118%);fill-opacity:1;" d="M 39.070312 24.929688 C 45.320312 31.175781 42.785156 43.839844 33.414062 53.214844 C 24.042969 62.585938 11.378906 65.117188 5.128906 58.871094 C -1.117188 52.621094 1.414062 39.957031 10.785156 30.585938 C 20.160156 21.214844 32.824219 18.679688 39.070312 24.929688 Z M 39.070312 24.929688 "/>
<path style=" stroke:none;fill-rule:evenodd;fill:rgb(41.176471%,41.176471%,41.176471%);fill-opacity:1;" d="M 47.554688 16.445312 C 51.460938 20.347656 52.09375 26.046875 48.96875 29.171875 C 45.847656 32.296875 40.148438 31.664062 36.242188 27.757812 C 32.335938 23.851562 31.703125 18.152344 34.828125 15.03125 C 37.953125 11.90625 43.652344 12.539062 47.554688 16.445312 Z M 47.554688 16.445312 "/>
<path style="fill:none;stroke-width:0.6;stroke-linecap:butt;stroke-linejoin:miter;stroke:rgb(41.176471%,41.176471%,41.176471%);stroke-opacity:1;stroke-miterlimit:10;" d="M 38 24 L 38 3 M 38 24 L 60 24 "/>
<path style=" stroke:none;fill-rule:evenodd;fill:rgb(41.176471%,41.176471%,41.176471%);fill-opacity:1;" d="M 62 24 C 62 26.667969 58 26.667969 58 24 C 58 21.332031 62 21.332031 62 24 Z M 40 4 C 40 6.667969 36 6.667969 36 4 C 36 1.332031 40 1.332031 40 4 Z M 40 4 "/>
<path style=" stroke:none;fill-rule:evenodd;fill:rgb(41.176471%,41.176471%,41.176471%);fill-opacity:1;" d="M 36 38 C 36 43.332031 28 43.332031 28 38 C 28 32.667969 36 32.667969 36 38 Z M 26 32 C 26 37.332031 18 37.332031 18 32 C 18 26.667969 26 26.667969 26 32 Z M 14 40 C 14 45.332031 6 45.332031 6 40 C 6 34.667969 14 34.667969 14 40 Z M 32 50 C 32 55.332031 24 55.332031 24 50 C 24 44.667969 32 44.667969 32 50 Z M 18 56 C 18 61.332031 10 61.332031 10 56 C 10 50.667969 18 50.667969 18 56 Z M 18 56 "/>
<path style="fill:none;stroke-width:0.5;stroke-linecap:butt;stroke-linejoin:miter;stroke:rgb(41.176471%,41.176471%,41.176471%);stroke-opacity:1;stroke-miterlimit:10;" d="M 45 18 L 5 58.5 "/>
</g>
</svg>
