<?xml version="1.0" encoding="UTF-8"?>
<svg xmlns="http://www.w3.org/2000/svg" xmlns:xlink="http://www.w3.org/1999/xlink" width="64pt" height="64pt" viewBox="0 0 64 64" version="1.1">
<g id="surface15081">
<path style=" stroke:none;fill-rule:evenodd;fill:rgb(100%,100%,100%);fill-opacity:1;" d="M 1 0 L 64 0 L 64 63 L 1 63 Z M 1 0 "/>
<path style="fill:none;stroke-width:1;stroke-linecap:butt;stroke-linejoin:miter;stroke:rgb(0%,0%,0%);stroke-opacity:1;stroke-miterlimit:10;" d="M 0 0 L 0 64 M 0 0 L 4 0 M 0 16 L 4 16 M 0 32 L 4 32 M 0 48 L 4 48 M 0 64 L 4 64 "/>
<path style="fill:none;stroke-width:1;stroke-linecap:butt;stroke-linejoin:miter;stroke:rgb(0%,0%,0%);stroke-opacity:1;stroke-miterlimit:10;" d="M 0 -0.000000000000007105 L -0.000000000000014211 64 M 0 -0.000000000000007105 L 4 -0.000000000000006371 M 0 16 L 4 16 M 0 32 L 4 32 M -0.000000000000014211 48 L 4 48 M -0.000000000000014211 64 L 4 64 " transform="matrix(-0.000000000000000184,-1,1,-0.000000000000000184,0.000000000000007105,64)"/>
<path style="fill:none;stroke-width:1;stroke-linecap:butt;stroke-linejoin:miter;stroke:rgb(0%,0%,100%);stroke-opacity:1;stroke-miterlimit:10;" d="M 16 20 L 16 44 M 16 32 L 24 32 "/>
<path style="fill:none;stroke-width:1;stroke-linecap:butt;stroke-linejoin:miter;stroke:rgb(0%,0%,100%);stroke-opacity:1;stroke-miterlimit:10;" d="M 32 36 L 32 52 M 32 44 L 40 44 "/>
<path style="fill:none;stroke-width:1;stroke-linecap:butt;stroke-linejoin:miter;stroke:rgb(0%,0%,100%);stroke-opacity:1;stroke-miterlimit:10;" d="M 48 12 L 48 36 M 48 24 L 56 24 "/>
</g>
</svg>
