<?xml version="1.0" encoding="UTF-8"?>
<svg xmlns="http://www.w3.org/2000/svg" xmlns:xlink="http://www.w3.org/1999/xlink" width="64pt" height="64pt" viewBox="0 0 64 64" version="1.1">
<g id="surface15973">
<path style="fill-rule:evenodd;fill:rgb(45.098039%,45.098039%,45.098039%);fill-opacity:1;stroke-width:2;stroke-linecap:butt;stroke-linejoin:miter;stroke:rgb(45.098039%,45.098039%,45.098039%);stroke-opacity:1;stroke-miterlimit:10;" d="M 60.667969 34 L 60 40 C 60 49.941406 47.464844 58 32 58 L 32 48 Z M 60.667969 34 " transform="matrix(1,0,0,1,0,-2)"/>
<path style="fill-rule:evenodd;fill:rgb(45.098039%,45.098039%,45.098039%);fill-opacity:1;stroke-width:2;stroke-linecap:butt;stroke-linejoin:miter;stroke:rgb(45.098039%,45.098039%,45.098039%);stroke-opacity:1;stroke-miterlimit:10;" d="M 31 48 L 31.371094 57.996094 C 16.15625 57.777344 4 49.785156 4 40 L 3.332031 34 Z M 31 48 " transform="matrix(1,0,0,1,0,-2)"/>
<path style="fill-rule:evenodd;fill:rgb(45.098039%,45.098039%,45.098039%);fill-opacity:1;stroke-width:2;stroke-linecap:butt;stroke-linejoin:miter;stroke:rgb(45.098039%,45.098039%,45.098039%);stroke-opacity:1;stroke-miterlimit:10;" d="M 14 16 L 18.707031 30.15625 C 27.003906 27.28125 36.996094 27.28125 45.292969 30.15625 L 50 16 Z M 14 16 " transform="matrix(1,0,0,1,0,-2)"/>
<path style="fill:none;stroke-width:12;stroke-linecap:butt;stroke-linejoin:miter;stroke:rgb(75.294118%,75.294118%,75.294118%);stroke-opacity:1;stroke-miterlimit:10;" d="M 14.941406 20.152344 C 19.449219 17.496094 25.59375 16 32 16 C 38.40625 16 44.550781 17.496094 49.058594 20.152344 " transform="matrix(1,0,0,1,0,-2)"/>
<path style="fill:none;stroke-width:12;stroke-linecap:butt;stroke-linejoin:miter;stroke:rgb(75.294118%,75.294118%,75.294118%);stroke-opacity:1;stroke-miterlimit:10;" d="M 49.058594 20.152344 C 55.871094 24.167969 57.878906 30.175781 54.148438 35.390625 C 50.421875 40.605469 41.683594 44 32 44 " transform="matrix(1,0,0,1,0,-2)"/>
<path style="fill:none;stroke-width:12;stroke-linecap:butt;stroke-linejoin:miter;stroke:rgb(75.294118%,75.294118%,75.294118%);stroke-opacity:1;stroke-miterlimit:10;" d="M 32 44 C 22.316406 44 13.578125 40.605469 9.851562 35.390625 C 6.121094 30.175781 8.128906 24.167969 14.941406 20.152344 " transform="matrix(1,0,0,1,0,-2)"/>
<path style="fill:none;stroke-width:2;stroke-linecap:butt;stroke-linejoin:miter;stroke:rgb(24.705882%,24.705882%,24.705882%);stroke-opacity:1;stroke-miterlimit:10;" d="M 58 20 L 48 26 L 48 32 " transform="matrix(1,0,0,1,0,-2)"/>
<path style="fill:none;stroke-width:2;stroke-linecap:butt;stroke-linejoin:miter;stroke:rgb(24.705882%,24.705882%,24.705882%);stroke-opacity:1;stroke-miterlimit:10;" d="M 6 20 L 16 26 L 16 32 " transform="matrix(1,0,0,1,0,-2)"/>
<path style="fill:none;stroke-width:2;stroke-linecap:butt;stroke-linejoin:miter;stroke:rgb(24.705882%,24.705882%,24.705882%);stroke-opacity:1;stroke-miterlimit:10;" d="M 32 38 L 32 58 " transform="matrix(1,0,0,1,0,-2)"/>
</g>
</svg>
