<?xml version="1.0" encoding="UTF-8"?>
<svg xmlns="http://www.w3.org/2000/svg" xmlns:xlink="http://www.w3.org/1999/xlink" width="64pt" height="64pt" viewBox="0 0 64 64" version="1.1">
<g id="surface14845">
<path style=" stroke:none;fill-rule:evenodd;fill:rgb(0%,0%,0%);fill-opacity:1;" d="M 13 43 L 51 43 L 51 61 L 13 61 Z M 13 43 "/>
<path style=" stroke:none;fill-rule:evenodd;fill:rgb(0%,0%,0%);fill-opacity:1;" d="M 11 14 C 11 20.667969 1 20.667969 1 14 C 1 7.332031 11 7.332031 11 14 Z M 23 10 C 23 16.667969 13 16.667969 13 10 C 13 3.332031 23 3.332031 23 10 Z M 37 8 C 37 14.667969 27 14.667969 27 8 C 27 1.332031 37 1.332031 37 8 Z M 51 10 C 51 16.667969 41 16.667969 41 10 C 41 3.332031 51 3.332031 51 10 Z M 63 14 C 63 20.667969 53 20.667969 53 14 C 53 7.332031 63 7.332031 63 14 Z M 63 14 "/>
<path style="fill:none;stroke-width:2;stroke-linecap:butt;stroke-linejoin:miter;stroke:rgb(0%,0%,0%);stroke-opacity:1;stroke-miterlimit:10;" d="M 14.398438 44.601562 L 7 17.5 L 16 34 L 18 13 L 26 32 L 32 12 L 38 32 L 45 14 L 48 34 L 56 18 L 50 44 "/>
<path style=" stroke:none;fill-rule:evenodd;fill:rgb(0%,0%,0%);fill-opacity:1;" d="M 14.398438 44.601562 L 7 17.5 L 16 34 L 18 13 L 26 32 L 32 12 L 38 32 L 45 14 L 48 34 L 56 18 L 50 44 "/>
<path style="fill:none;stroke-width:2.6;stroke-linecap:butt;stroke-linejoin:miter;stroke:rgb(96.078431%,96.078431%,96.078431%);stroke-opacity:1;stroke-miterlimit:10;" d="M 14 40 L 50 40 M 14 58 L 50 58 "/>
<path style=" stroke:none;fill-rule:evenodd;fill:rgb(96.078431%,96.078431%,96.078431%);fill-opacity:1;" d="M 32 48 L 36 50 L 32 52 L 28 50 Z M 20 48 L 24 50 L 20 52 L 16 50 Z M 44 48 L 48 50 L 44 52 L 40 50 Z M 44 48 "/>
</g>
</svg>
