<?xml version="1.0" encoding="UTF-8"?>
<svg xmlns="http://www.w3.org/2000/svg" xmlns:xlink="http://www.w3.org/1999/xlink" width="64pt" height="64pt" viewBox="0 0 64 64" version="1.1">
<g id="surface15677">
<path style="fill:none;stroke-width:1;stroke-linecap:butt;stroke-linejoin:miter;stroke:rgb(75.294118%,75.294118%,75.294118%);stroke-opacity:1;stroke-miterlimit:10;" d="M 42.001694 31.999161 C 41.998932 40.835233 37.524272 48.000214 32 48.000214 C 26.475728 48.000214 22.001068 40.835233 21.998306 31.999161 C 22.001068 23.163088 26.47849 16.00087 32 15.998108 C 37.52151 16.00087 41.998932 23.163088 42.001694 31.999161 Z M 42.001694 31.999161 " transform="matrix(0.707107,0.707107,-0.707107,0.707107,44.727922,-7.982756)"/>
<path style=" stroke:none;fill-rule:evenodd;fill:rgb(96.078431%,96.078431%,96.078431%);fill-opacity:1;" d="M 51.800781 44.34375 C 45.550781 50.589844 37.320312 52.492188 33.414062 48.585938 C 29.507812 44.679688 31.410156 36.449219 37.65625 30.199219 C 43.90625 23.953125 52.136719 22.054688 56.042969 25.957031 C 59.945312 29.863281 58.046875 38.09375 51.800781 44.34375 Z M 51.800781 44.34375 "/>
<path style="fill:none;stroke-width:1;stroke-linecap:butt;stroke-linejoin:miter;stroke:rgb(75.294118%,75.294118%,75.294118%);stroke-opacity:1;stroke-miterlimit:10;" d="M 37.999359 32.001923 C 37.999359 38.625525 35.314563 44.000641 32 44.000641 C 28.685437 44.000641 26.000641 38.625525 26.000641 32.001923 C 26.000641 25.372797 28.688199 20.000442 32 19.99768 C 35.311801 20.000442 37.999359 25.372797 37.999359 32.001923 Z M 37.999359 32.001923 " transform="matrix(0.707107,0.707107,-0.707107,0.707107,44.727922,-7.982756)"/>
<path style="fill:none;stroke-width:1;stroke-linecap:butt;stroke-linejoin:miter;stroke:rgb(75.294118%,75.294118%,75.294118%);stroke-opacity:1;stroke-miterlimit:10;" d="M 42.001694 31.999161 C 41.998932 40.835233 37.524272 48.000214 32 48.000214 C 26.475728 48.000214 22.001068 40.835233 21.998306 31.999161 C 22.001068 23.163088 26.47849 16.00087 32 15.998108 C 37.52151 16.00087 41.998932 23.163088 42.001694 31.999161 Z M 42.001694 31.999161 " transform="matrix(0.707107,-0.707107,0.707107,0.707107,-25.982756,37.272078)"/>
<path style=" stroke:none;fill-rule:evenodd;fill:rgb(96.078431%,96.078431%,96.078431%);fill-opacity:1;" d="M 26.34375 30.199219 C 32.589844 36.449219 34.492188 44.679688 30.585938 48.585938 C 26.679688 52.492188 18.449219 50.589844 12.199219 44.34375 C 5.953125 38.09375 4.054688 29.863281 7.957031 25.957031 C 11.863281 22.054688 20.09375 23.953125 26.34375 30.199219 Z M 26.34375 30.199219 "/>
<path style="fill:none;stroke-width:1;stroke-linecap:butt;stroke-linejoin:miter;stroke:rgb(75.294118%,75.294118%,75.294118%);stroke-opacity:1;stroke-miterlimit:10;" d="M 37.999359 32.001923 C 37.999359 38.625525 35.314563 44.000641 32 44.000641 C 28.685437 44.000641 26.000641 38.625525 26.000641 32.001923 C 26.000641 25.372797 28.688199 20.000442 32 19.99768 C 35.311801 20.000442 37.999359 25.372797 37.999359 32.001923 Z M 37.999359 32.001923 " transform="matrix(0.707107,-0.707107,0.707107,0.707107,-25.982756,37.272078)"/>
<path style=" stroke:none;fill-rule:evenodd;fill:rgb(96.078431%,96.078431%,96.078431%);fill-opacity:1;" d="M 29.5 38 L 33.5 38 L 33.5 44 L 29.5 44 Z M 29.5 38 "/>
<path style="fill:none;stroke-width:1;stroke-linecap:butt;stroke-linejoin:miter;stroke:rgb(75.294118%,75.294118%,75.294118%);stroke-opacity:1;stroke-miterlimit:10;" d="M 12 44 L 52 44 L 52 60 L 12 60 Z M 12 44 "/>
<path style=" stroke:none;fill-rule:evenodd;fill:rgb(96.078431%,96.078431%,96.078431%);fill-opacity:1;" d="M 12 44 L 52 44 L 52 60 L 12 60 Z M 12 44 "/>
<path style="fill:none;stroke-width:2;stroke-linecap:butt;stroke-linejoin:miter;stroke:rgb(75.294118%,75.294118%,75.294118%);stroke-opacity:1;stroke-miterlimit:10;" d="M 17 50 L 23 50 M 20 47 L 20 53 "/>
<path style="fill:none;stroke-width:2;stroke-linecap:butt;stroke-linejoin:miter;stroke:rgb(75.294118%,75.294118%,75.294118%);stroke-opacity:1;stroke-miterlimit:10;" d="M 29 50 L 35 50 M 32 47 L 32 53 "/>
<path style="fill:none;stroke-width:2;stroke-linecap:butt;stroke-linejoin:miter;stroke:rgb(75.294118%,75.294118%,75.294118%);stroke-opacity:1;stroke-miterlimit:10;" d="M 41 50 L 47 50 M 44 47 L 44 53 "/>
<path style="fill:none;stroke-width:1;stroke-linecap:butt;stroke-linejoin:miter;stroke:rgb(75.294118%,75.294118%,75.294118%);stroke-opacity:1;stroke-miterlimit:10;" d="M 14 57 L 50 57 "/>
<path style=" stroke:none;fill-rule:evenodd;fill:rgb(75.294118%,75.294118%,75.294118%);fill-opacity:1;" d="M 41 23 C 41 27.96875 36.96875 32 32 32 C 27.03125 32 23 27.96875 23 23 C 23 18.03125 27.03125 14 32 14 C 36.96875 14 41 18.03125 41 23 Z M 41 23 "/>
<path style=" stroke:none;fill-rule:evenodd;fill:rgb(96.078431%,96.078431%,96.078431%);fill-opacity:1;" d="M 40 23 C 40 27.417969 36.417969 31 32 31 C 27.582031 31 24 27.417969 24 23 C 24 18.582031 27.582031 15 32 15 C 36.417969 15 40 18.582031 40 23 Z M 40 23 "/>
<path style="fill:none;stroke-width:1;stroke-linecap:butt;stroke-linejoin:miter;stroke:rgb(75.294118%,75.294118%,75.294118%);stroke-opacity:1;stroke-miterlimit:10;" d="M 37 23 C 37 29.667969 27 29.667969 27 23 C 27 16.332031 37 16.332031 37 23 Z M 37 23 "/>
<path style="fill:none;stroke-width:3;stroke-linecap:butt;stroke-linejoin:miter;stroke:rgb(75.294118%,75.294118%,75.294118%);stroke-opacity:1;stroke-miterlimit:10;" d="M 27 10 L 37 10 M 32 5 L 32 15 "/>
<path style="fill:none;stroke-width:1;stroke-linecap:butt;stroke-linejoin:miter;stroke:rgb(96.078431%,96.078431%,96.078431%);stroke-opacity:1;stroke-miterlimit:10;" d="M 28 10 L 36 10 M 32 6 L 32 14 "/>
</g>
</svg>
