<?xml version="1.0" encoding="UTF-8"?>
<svg xmlns="http://www.w3.org/2000/svg" xmlns:xlink="http://www.w3.org/1999/xlink" width="64pt" height="64pt" viewBox="0 0 64 64" version="1.1">
<g id="surface14841">
<path style="fill:none;stroke-width:2;stroke-linecap:butt;stroke-linejoin:miter;stroke:rgb(0%,0%,0%);stroke-opacity:1;stroke-miterlimit:10;" d="M 14 44 L 50 44 L 50 60 L 14 60 Z M 14 56 L 50 56 "/>
<path style="fill:none;stroke-width:2;stroke-linecap:butt;stroke-linejoin:miter;stroke:rgb(0%,0%,0%);stroke-opacity:1;stroke-miterlimit:10;" d="M 14.398438 44.601562 L 7 17.5 L 16 34 L 18 13 L 26 32 L 32 12 L 38 32 L 45 14 L 48 34 L 56 18 L 50 44 "/>
<path style=" stroke:none;fill-rule:evenodd;fill:rgb(96.078431%,96.078431%,96.078431%);fill-opacity:1;" d="M 14.398438 44.601562 L 7 17.5 L 16 34 L 18 13 L 26 32 L 32 12 L 38 32 L 45 14 L 48 34 L 56 18 L 50 44 "/>
<path style="fill:none;stroke-width:2;stroke-linecap:butt;stroke-linejoin:miter;stroke:rgb(0%,0%,0%);stroke-opacity:1;stroke-miterlimit:10;" d="M 10 14 C 10 19.332031 2 19.332031 2 14 C 2 8.667969 10 8.667969 10 14 Z M 22 10 C 22 15.332031 14 15.332031 14 10 C 14 4.667969 22 4.667969 22 10 Z M 36 8 C 36 13.332031 28 13.332031 28 8 C 28 2.667969 36 2.667969 36 8 Z M 50 10 C 50 15.332031 42 15.332031 42 10 C 42 4.667969 50 4.667969 50 10 Z M 62 14 C 62 19.332031 54 19.332031 54 14 C 54 8.667969 62 8.667969 62 14 Z M 62 14 "/>
<path style=" stroke:none;fill-rule:evenodd;fill:rgb(96.078431%,96.078431%,96.078431%);fill-opacity:1;" d="M 10 14 C 10 19.332031 2 19.332031 2 14 C 2 8.667969 10 8.667969 10 14 Z M 22 10 C 22 15.332031 14 15.332031 14 10 C 14 4.667969 22 4.667969 22 10 Z M 36 8 C 36 13.332031 28 13.332031 28 8 C 28 2.667969 36 2.667969 36 8 Z M 50 10 C 50 15.332031 42 15.332031 42 10 C 42 4.667969 50 4.667969 50 10 Z M 62 14 C 62 19.332031 54 19.332031 54 14 C 54 8.667969 62 8.667969 62 14 Z M 62 14 "/>
<path style="fill:none;stroke-width:2;stroke-linecap:butt;stroke-linejoin:miter;stroke:rgb(0%,0%,0%);stroke-opacity:1;stroke-miterlimit:10;" d="M 14 40 L 50 40 "/>
<path style=" stroke:none;fill-rule:evenodd;fill:rgb(0%,0%,0%);fill-opacity:1;" d="M 32 48 L 36 50 L 32 52 L 28 50 Z M 20 48 L 24 50 L 20 52 L 16 50 Z M 44 48 L 48 50 L 44 52 L 40 50 Z M 44 48 "/>
</g>
</svg>
