<?xml version="1.0" encoding="UTF-8"?>
<svg xmlns="http://www.w3.org/2000/svg" xmlns:xlink="http://www.w3.org/1999/xlink" width="64pt" height="64pt" viewBox="0 0 64 64" version="1.1">
<g id="surface14597">
<path style="fill:none;stroke-width:6;stroke-linecap:butt;stroke-linejoin:miter;stroke:rgb(0%,0%,50.196078%);stroke-opacity:1;stroke-miterlimit:10;" d="M 37.692762 53.249111 C 28.075005 55.828946 17.926918 51.624975 12.946787 42.998825 C 7.969418 34.375437 9.402966 23.484335 16.443651 16.443651 C 23.484335 9.402966 34.375437 7.969418 42.998825 12.946787 C 51.624975 17.926918 55.828946 28.075005 53.249111 37.692762 M 34.588121 41.659189 C 30.218422 42.830335 25.602893 40.921699 23.337942 36.999466 C 21.075753 33.079995 21.727617 28.130248 24.928932 24.928932 C 28.130248 21.727617 33.079995 21.075753 36.999466 23.337942 C 40.921699 25.602893 42.830335 30.218422 41.659189 34.588121 M 41.899495 13.615224 L 44.727922 13.615224 L 50.384776 10.786797 L 53.213203 13.615224 L 50.384776 19.272078 L 50.384776 22.100505 M 52.000626 25.997879 L 54.000412 27.997665 L 60.002533 30.000214 L 60.002533 33.999786 L 54.000412 36.002335 L 52.000626 38.002121 M 38.002121 52.000626 L 36.002335 54.000412 L 33.999786 60.002533 L 30.000214 60.002533 L 27.997665 54.000412 L 25.997879 52.000626 M 22.100505 50.384776 L 19.272078 50.384776 L 13.615224 53.213203 L 10.786797 50.384776 L 13.615224 44.727922 L 13.615224 41.899495 M 11.999374 38.002121 L 9.999588 36.002335 L 3.997467 33.999786 L 3.997467 30.000214 L 9.999588 27.997665 L 11.999374 25.997879 M 13.615224 22.100505 L 13.615224 19.272078 L 10.786797 13.615224 L 13.615224 10.786797 L 19.272078 13.615224 L 22.100505 13.615224 M 25.997879 11.999374 L 27.997665 9.999588 L 30.000214 3.997467 L 33.999786 3.997467 L 36.002335 9.999588 L 38.002121 11.999374 " transform="matrix(0.707107,-0.707107,0.707107,0.707107,-13.254834,32)"/>
</g>
</svg>
