<?xml version="1.0" encoding="UTF-8"?>
<svg xmlns="http://www.w3.org/2000/svg" xmlns:xlink="http://www.w3.org/1999/xlink" width="64pt" height="64pt" viewBox="0 0 64 64" version="1.1">
<g id="surface14989">
<path style="fill:none;stroke-width:5;stroke-linecap:butt;stroke-linejoin:miter;stroke:rgb(0%,0%,50.196078%);stroke-opacity:1;stroke-miterlimit:10;" d="M 37 52 C 37 56.417969 34.761719 60 32 60 C 29.238281 60 27 56.417969 27 52 C 27 47.582031 29.238281 44 32 44 C 34.761719 44 37 47.582031 37 52 Z M 37 52 "/>
<path style="fill:none;stroke-width:5;stroke-linecap:butt;stroke-linejoin:miter;stroke:rgb(0%,0%,50.196078%);stroke-opacity:1;stroke-miterlimit:10;" d="M 38.999252 51.998077 C 38.999252 56.417495 36.75916 59.999985 34.002549 59.999985 C 31.240413 59.999985 29.00032 56.417495 29.00032 51.998077 C 28.997558 47.581422 31.237651 43.998932 33.999786 43.998932 C 36.761922 43.998932 39.002014 47.581422 38.999252 51.998077 Z M 38.999252 51.998077 " transform="matrix(0.707107,0.707107,-0.707107,0.707107,33.414214,-12.669048)"/>
<path style="fill:none;stroke-width:2.4;stroke-linecap:butt;stroke-linejoin:miter;stroke:rgb(0%,0%,50.196078%);stroke-opacity:1;stroke-miterlimit:10;" d="M 32 43.998932 L 32 7.997253 L 36.002335 11.999588 L 35.999573 43.998932 " transform="matrix(0.707107,0.707107,-0.707107,0.707107,33.414214,-12.669048)"/>
<path style="fill:none;stroke-width:2.4;stroke-linecap:butt;stroke-linejoin:miter;stroke:rgb(0%,0%,50.196078%);stroke-opacity:1;stroke-miterlimit:10;" d="M 30 44 L 30 12 L 34 8 L 34 44 "/>
<path style=" stroke:none;fill-rule:evenodd;fill:rgb(100%,100%,100%);fill-opacity:1;" d="M 34 36 C 34 38.667969 30 38.667969 30 36 C 30 33.332031 34 33.332031 34 36 Z M 34 36 "/>
</g>
</svg>
