<?xml version="1.0" encoding="UTF-8"?>
<svg xmlns="http://www.w3.org/2000/svg" xmlns:xlink="http://www.w3.org/1999/xlink" width="64pt" height="64pt" viewBox="0 0 64 64" version="1.1">
<g id="surface14685">
<path style=" stroke:none;fill-rule:evenodd;fill:rgb(13.333333%,54.509804%,13.333333%);fill-opacity:1;" d="M 32 56 C 20.953125 56 12 45.253906 12 32 C 12 18.746094 20.953125 8 32 8 Z M 32 56 "/>
<path style=" stroke:none;fill-rule:evenodd;fill:rgb(13.333333%,54.509804%,13.333333%);fill-opacity:1;" d="M 12 32 L 12 12 L 32 4 L 32 32 Z M 12 32 "/>
<path style=" stroke:none;fill-rule:evenodd;fill:rgb(0%,39.215686%,0%);fill-opacity:1;" d="M 32 8 C 43.046875 8 52 18.746094 52 32 C 52 45.253906 43.046875 56 32 56 Z M 32 8 "/>
<path style=" stroke:none;fill-rule:evenodd;fill:rgb(0%,39.215686%,0%);fill-opacity:1;" d="M 52 32 L 52 12 L 32 4 L 32 32 Z M 52 32 "/>
<path style="fill:none;stroke-width:4.266667;stroke-linecap:butt;stroke-linejoin:miter;stroke:rgb(100%,100%,100%);stroke-opacity:1;stroke-miterlimit:10;" d="M 23.464844 32 L 32 38.398438 L 40.535156 23.464844 "/>
</g>
</svg>
