<?xml version="1.0" encoding="UTF-8"?>
<svg xmlns="http://www.w3.org/2000/svg" xmlns:xlink="http://www.w3.org/1999/xlink" width="64pt" height="64pt" viewBox="0 0 64 64" version="1.1">
<g id="surface14741">
<path style="fill:none;stroke-width:2;stroke-linecap:butt;stroke-linejoin:miter;stroke:rgb(19.607843%,80.392157%,19.607843%);stroke-opacity:1;stroke-miterlimit:10;" d="M 60.800781 32 C 60.800781 47.90625 47.90625 60.800781 32 60.800781 C 16.09375 60.800781 3.199219 47.90625 3.199219 32 C 3.199219 16.09375 16.09375 3.199219 32 3.199219 C 47.90625 3.199219 60.800781 16.09375 60.800781 32 Z M 60.800781 32 "/>
<path style=" stroke:none;fill-rule:evenodd;fill:rgb(96.078431%,96.078431%,96.078431%);fill-opacity:1;" d="M 60.800781 32 C 60.800781 47.90625 47.90625 60.800781 32 60.800781 C 16.09375 60.800781 3.199219 47.90625 3.199219 32 C 3.199219 16.09375 16.09375 3.199219 32 3.199219 C 47.90625 3.199219 60.800781 16.09375 60.800781 32 Z M 60.800781 32 "/>
<path style=" stroke:none;fill-rule:evenodd;fill:rgb(19.607843%,80.392157%,19.607843%);fill-opacity:1;" d="M 57.601562 32 C 57.601562 46.136719 46.136719 57.601562 32 57.601562 C 17.863281 57.601562 6.398438 46.136719 6.398438 32 C 6.398438 17.863281 17.863281 6.398438 32 6.398438 C 46.136719 6.398438 57.601562 17.863281 57.601562 32 Z M 57.601562 32 "/>
<path style=" stroke:none;fill-rule:evenodd;fill:rgb(96.078431%,96.078431%,96.078431%);fill-opacity:1;" d="M 31.359375 32 L 30.71875 6.398438 L 33.28125 6.398438 L 32.640625 32 Z M 31.589844 31.507812 L 50.789062 14.5625 L 52.433594 16.523438 L 32.410156 32.492188 Z M 32.367188 31.476562 L 53.703125 45.636719 L 52.234375 47.730469 L 31.632812 32.523438 Z M 32.628906 31.890625 L 37.707031 56.988281 L 35.183594 57.433594 L 31.371094 32.109375 Z M 32.367188 32.523438 L 11.765625 47.730469 L 10.296875 45.636719 L 31.632812 31.476562 Z M 31.78125 32.601562 L 7.507812 24.445312 L 8.382812 22.042969 L 32.21875 31.398438 Z M 31.78125 32.601562 "/>
<path style=" stroke:none;fill-rule:evenodd;fill:rgb(96.078431%,96.078431%,96.078431%);fill-opacity:1;" d="M 33.367188 28.242188 C 38.378906 30.066406 35.644531 37.582031 30.632812 35.757812 C 25.621094 33.933594 28.355469 26.417969 33.367188 28.242188 Z M 33.367188 28.242188 "/>
</g>
</svg>
