<?xml version="1.0" encoding="UTF-8"?>
<svg xmlns="http://www.w3.org/2000/svg" xmlns:xlink="http://www.w3.org/1999/xlink" width="64pt" height="64pt" viewBox="0 0 64 64" version="1.1">
<g id="surface15353">
<rect x="0" y="0" width="64" height="64" style="fill:rgb(75.294118%,75.294118%,75.294118%);fill-opacity:1;stroke:none;"/>
<path style=" stroke:none;fill-rule:evenodd;fill:rgb(96.078431%,96.078431%,96.078431%);fill-opacity:1;" d="M 25.160156 2.378906 C 15.769531 4.546875 7.964844 11.039062 4.121094 19.878906 C 0.277344 28.714844 0.855469 38.851562 5.671875 47.199219 C 10.492188 55.546875 18.984375 61.113281 28.558594 62.203125 C 38.132812 63.296875 47.660156 59.78125 54.234375 52.734375 L 54.117188 52.617188 C 41.234375 55.355469 28.054688 49.484375 21.46875 38.078125 C 14.882812 26.675781 16.390625 12.324219 25.203125 2.539062 "/>
<path style=" stroke:none;fill-rule:evenodd;fill:rgb(96.078431%,96.078431%,96.078431%);fill-opacity:1;" d="M 38.398438 3.199219 L 40.980469 10.21875 L 48 12.800781 L 40.980469 15.378906 L 38.398438 22.398438 L 35.820312 15.378906 L 28.800781 12.800781 L 35.820312 10.21875 Z M 51.199219 19.199219 L 52.917969 23.878906 L 57.601562 25.601562 L 52.917969 27.320312 L 51.199219 32 L 49.480469 27.320312 L 44.800781 25.601562 L 49.480469 23.878906 Z M 51.199219 19.199219 "/>
</g>
</svg>
