<?xml version="1.0" encoding="UTF-8"?>
<svg xmlns="http://www.w3.org/2000/svg" xmlns:xlink="http://www.w3.org/1999/xlink" width="64pt" height="64pt" viewBox="0 0 64 64" version="1.1">
<g id="surface14709">
<rect x="0" y="0" width="64" height="64" style="fill:rgb(100%,100%,100%);fill-opacity:1;stroke:none;"/>
<path style=" stroke:none;fill-rule:evenodd;fill:rgb(67.843137%,84.705882%,90.196078%);fill-opacity:1;" d="M 4 4 L 60 4 L 60 60 L 4 60 Z M 4 4 "/>
<path style=" stroke:none;fill-rule:evenodd;fill:rgb(48.627451%,98.823529%,0%);fill-opacity:1;" d="M 4 32 L 60 32 L 60 60 L 4 60 Z M 4 32 "/>
<path style=" stroke:none;fill-rule:evenodd;fill:rgb(100%,100%,0%);fill-opacity:1;" d="M 38 18 C 38 24.628906 35.3125 30 32 30 C 28.6875 30 26 24.628906 26 18 C 26 11.371094 28.6875 6 32 6 C 35.3125 6 38 11.371094 38 18 Z M 38 18 "/>
<path style=" stroke:none;fill-rule:evenodd;fill:rgb(100%,100%,0%);fill-opacity:1;" d="M 44.726562 25.757812 C 40.042969 30.445312 34.34375 32.34375 32 30 C 29.65625 27.65625 31.554688 21.957031 36.242188 17.273438 C 40.929688 12.585938 46.628906 10.6875 48.96875 13.03125 C 51.3125 15.371094 49.414062 21.070312 44.726562 25.757812 Z M 44.726562 25.757812 "/>
<path style=" stroke:none;fill-rule:evenodd;fill:rgb(100%,100%,0%);fill-opacity:1;" d="M 44 36 C 37.371094 36 32 33.3125 32 30 C 32 26.6875 37.371094 24 44 24 C 50.628906 24 56 26.6875 56 30 C 56 33.3125 50.628906 36 44 36 Z M 44 36 "/>
<path style=" stroke:none;fill-rule:evenodd;fill:rgb(100%,100%,0%);fill-opacity:1;" d="M 36.242188 42.726562 C 31.554688 38.042969 29.65625 32.34375 32 30 C 34.34375 27.65625 40.042969 29.554688 44.726562 34.242188 C 49.414062 38.929688 51.3125 44.628906 48.96875 46.96875 C 46.628906 49.3125 40.929688 47.414062 36.242188 42.726562 Z M 36.242188 42.726562 "/>
<path style=" stroke:none;fill-rule:evenodd;fill:rgb(100%,100%,0%);fill-opacity:1;" d="M 19.273438 34.242188 C 23.957031 29.554688 29.65625 27.65625 32 30 C 34.34375 32.34375 32.445312 38.042969 27.757812 42.726562 C 23.070312 47.414062 17.371094 49.3125 15.03125 46.96875 C 12.6875 44.628906 14.585938 38.929688 19.273438 34.242188 Z M 19.273438 34.242188 "/>
<path style=" stroke:none;fill-rule:evenodd;fill:rgb(100%,100%,0%);fill-opacity:1;" d="M 20 24 C 26.628906 24 32 26.6875 32 30 C 32 33.3125 26.628906 36 20 36 C 13.371094 36 8 33.3125 8 30 C 8 26.6875 13.371094 24 20 24 Z M 20 24 "/>
<path style=" stroke:none;fill-rule:evenodd;fill:rgb(100%,100%,0%);fill-opacity:1;" d="M 27.757812 17.273438 C 32.445312 21.957031 34.34375 27.65625 32 30 C 29.65625 32.34375 23.957031 30.445312 19.273438 25.757812 C 14.585938 21.070312 12.6875 15.371094 15.03125 13.03125 C 17.371094 10.6875 23.070312 12.585938 27.757812 17.273438 Z M 27.757812 17.273438 "/>
<path style="fill:none;stroke-width:4;stroke-linecap:butt;stroke-linejoin:miter;stroke:rgb(0%,39.215686%,0%);stroke-opacity:1;stroke-miterlimit:10;" d="M 32 30 L 32 60 " transform="matrix(1,-0.000000000000000666,0.000000000000000666,1,-0.000000000000008882,0.000000000000021316)"/>
<path style=" stroke:none;fill-rule:evenodd;fill:rgb(62.745098%,32.156863%,17.647059%);fill-opacity:1;" d="M 40 30 C 40 34.417969 36.417969 38 32 38 C 27.582031 38 24 34.417969 24 30 C 24 25.582031 27.582031 22 32 22 C 36.417969 22 40 25.582031 40 30 Z M 40 30 "/>
</g>
</svg>
