<?xml version="1.0" encoding="UTF-8"?>
<svg xmlns="http://www.w3.org/2000/svg" xmlns:xlink="http://www.w3.org/1999/xlink" width="64pt" height="64pt" viewBox="0 0 64 64" version="1.1">
<g id="surface15865">
<path style="fill:none;stroke-width:8;stroke-linecap:butt;stroke-linejoin:round;stroke:rgb(75.294118%,75.294118%,75.294118%);stroke-opacity:1;stroke-miterlimit:10;" d="M 4 32 L 60 32 L 60 48 L 4 48 Z M 4 32 "/>
<path style=" stroke:none;fill-rule:evenodd;fill:rgb(75.294118%,75.294118%,75.294118%);fill-opacity:1;" d="M 2 32 L 62 32 L 62 56 L 2 56 Z M 2 32 "/>
<path style="fill:none;stroke-width:4;stroke-linecap:butt;stroke-linejoin:round;stroke:rgb(75.294118%,75.294118%,75.294118%);stroke-opacity:1;stroke-miterlimit:10;" d="M 12 2 L 52 2 L 52 34 L 12 34 Z M 12 2 "/>
<path style=" stroke:none;fill-rule:evenodd;fill:rgb(96.078431%,96.078431%,96.078431%);fill-opacity:1;" d="M 12 2 L 52 2 L 52 34 L 12 34 Z M 12 2 "/>
<path style="fill:none;stroke-width:2;stroke-linecap:butt;stroke-linejoin:miter;stroke:rgb(75.294118%,75.294118%,75.294118%);stroke-opacity:1;stroke-miterlimit:10;" d="M 16 8 L 34 8 M 16 14 L 38 14 M 16 20 L 24 20 "/>
<path style="fill:none;stroke-width:4;stroke-linecap:butt;stroke-linejoin:round;stroke:rgb(75.294118%,75.294118%,75.294118%);stroke-opacity:1;stroke-miterlimit:10;" d="M 8 50 L 56 50 L 56 62 L 8 62 Z M 8 50 "/>
<path style=" stroke:none;fill-rule:evenodd;fill:rgb(96.078431%,96.078431%,96.078431%);fill-opacity:1;" d="M 8 50 L 56 50 L 56 62 L 8 62 Z M 8 50 "/>
<path style="fill:none;stroke-width:4;stroke-linecap:butt;stroke-linejoin:miter;stroke:rgb(75.294118%,75.294118%,75.294118%);stroke-opacity:1;stroke-miterlimit:10;" d="M 4 48 L 60 48 "/>
</g>
</svg>
