<?xml version="1.0" encoding="UTF-8"?>
<svg xmlns="http://www.w3.org/2000/svg" xmlns:xlink="http://www.w3.org/1999/xlink" width="64pt" height="64pt" viewBox="0 0 64 64" version="1.1">
<g id="surface15745">
<path style="fill:none;stroke-width:2;stroke-linecap:round;stroke-linejoin:miter;stroke:rgb(96.078431%,96.078431%,96.078431%);stroke-opacity:1;stroke-miterlimit:10;" d="M 51.199219 43.199219 L 12.800781 43.199219 M 12.382812 42.777344 C 8.328125 38.269531 8.523438 31.375 12.828125 27.105469 L 13.132812 26.710938 C 12.296875 23.363281 13.050781 19.820312 15.175781 17.105469 C 17.296875 14.386719 20.550781 12.800781 24 12.800781 L 24.191406 12.804688 C 26.644531 7.988281 32.339844 5.804688 37.382812 7.742188 C 42.429688 9.679688 45.199219 15.113281 43.800781 20.332031 L 43.933594 20.765625 C 48.746094 21.613281 52.71875 25.003906 54.308594 29.625 C 55.898438 34.242188 54.855469 39.363281 51.585938 42.992188 Z M 12.382812 42.777344 "/>
<path style="fill:none;stroke-width:0.25;stroke-linecap:round;stroke-linejoin:round;stroke:rgb(75.294118%,75.294118%,75.294118%);stroke-opacity:1;stroke-miterlimit:10;" d="M 48 11.5 C 39 2.25 57 2.25 48 11.5 " transform="matrix(-1,0.000000000000000122,-0.000000000000000122,-1,64,64)"/>
<path style=" stroke:none;fill-rule:evenodd;fill:rgb(75.294118%,75.294118%,75.294118%);fill-opacity:1;" d="M 16 52.5 C 25 61.75 7 61.75 16 52.5 "/>
<path style="fill:none;stroke-width:0.222222;stroke-linecap:round;stroke-linejoin:round;stroke:rgb(75.294118%,75.294118%,75.294118%);stroke-opacity:1;stroke-miterlimit:10;" d="M 40 19.109375 C 32 10.890625 48 10.890625 40 19.109375 " transform="matrix(-1,0.000000000000000122,-0.000000000000000122,-1,64,64)"/>
<path style=" stroke:none;fill-rule:evenodd;fill:rgb(75.294118%,75.294118%,75.294118%);fill-opacity:1;" d="M 24 44.890625 C 32 53.109375 16 53.109375 24 44.890625 "/>
<path style="fill:none;stroke-width:0.25;stroke-linecap:round;stroke-linejoin:round;stroke:rgb(75.294118%,75.294118%,75.294118%);stroke-opacity:1;stroke-miterlimit:10;" d="M 32 11.5 C 23 2.25 41 2.25 32 11.5 " transform="matrix(-1,0.000000000000000122,-0.000000000000000122,-1,64,64)"/>
<path style=" stroke:none;fill-rule:evenodd;fill:rgb(75.294118%,75.294118%,75.294118%);fill-opacity:1;" d="M 32 52.5 C 41 61.75 23 61.75 32 52.5 "/>
<path style="fill:none;stroke-width:0.222222;stroke-linecap:round;stroke-linejoin:round;stroke:rgb(75.294118%,75.294118%,75.294118%);stroke-opacity:1;stroke-miterlimit:10;" d="M 24 19.109375 C 16 10.890625 32 10.890625 24 19.109375 " transform="matrix(-1,0.000000000000000122,-0.000000000000000122,-1,64,64)"/>
<path style=" stroke:none;fill-rule:evenodd;fill:rgb(75.294118%,75.294118%,75.294118%);fill-opacity:1;" d="M 40 44.890625 C 48 53.109375 32 53.109375 40 44.890625 "/>
<path style="fill:none;stroke-width:0.25;stroke-linecap:round;stroke-linejoin:round;stroke:rgb(75.294118%,75.294118%,75.294118%);stroke-opacity:1;stroke-miterlimit:10;" d="M 16 11.5 C 7 2.25 25 2.25 16 11.5 " transform="matrix(-1,0.000000000000000122,-0.000000000000000122,-1,64,64)"/>
<path style=" stroke:none;fill-rule:evenodd;fill:rgb(75.294118%,75.294118%,75.294118%);fill-opacity:1;" d="M 48 52.5 C 57 61.75 39 61.75 48 52.5 "/>
</g>
</svg>
