<?xml version="1.0" encoding="UTF-8"?>
<svg xmlns="http://www.w3.org/2000/svg" xmlns:xlink="http://www.w3.org/1999/xlink" width="64pt" height="64pt" viewBox="0 0 64 64" version="1.1">
<g id="surface15457">
<path style=" stroke:none;fill-rule:evenodd;fill:rgb(75.294118%,75.294118%,75.294118%);fill-opacity:1;" d="M 4 4 L 64 4 L 64 28 L 4 28 Z M 4 4 "/>
<path style=" stroke:none;fill-rule:evenodd;fill:rgb(96.078431%,96.078431%,96.078431%);fill-opacity:1;" d="M 24 16 C 24 20.417969 20.417969 24 16 24 C 11.582031 24 8 20.417969 8 16 C 8 11.582031 11.582031 8 16 8 C 20.417969 8 24 11.582031 24 16 Z M 24 16 "/>
<path style=" stroke:none;fill-rule:evenodd;fill:rgb(75.294118%,75.294118%,75.294118%);fill-opacity:1;" d="M 4 36 L 64 36 L 64 60 L 4 60 Z M 4 36 "/>
<path style=" stroke:none;fill-rule:evenodd;fill:rgb(96.078431%,96.078431%,96.078431%);fill-opacity:1;" d="M 56 48 C 56 52.417969 52.417969 56 48 56 C 43.582031 56 40 52.417969 40 48 C 40 43.582031 43.582031 40 48 40 C 52.417969 40 56 43.582031 56 48 Z M 56 48 "/>
</g>
</svg>
