<?xml version="1.0" encoding="UTF-8"?>
<svg xmlns="http://www.w3.org/2000/svg" xmlns:xlink="http://www.w3.org/1999/xlink" width="64pt" height="64pt" viewBox="0 0 64 64" version="1.1">
<g id="surface15601">
<path style=" stroke:none;fill-rule:evenodd;fill:rgb(75.294118%,75.294118%,75.294118%);fill-opacity:1;" d="M 48 46 L 48 54 C 48 57.3125 45.3125 60 42 60 L 22 60 C 18.6875 60 16 57.3125 16 54 L 16 38 C 16 34.6875 18.6875 32 22 32 L 42 32 C 45.3125 32 48 34.6875 48 38 Z M 48 46 "/>
<path style="fill:none;stroke-width:4;stroke-linecap:butt;stroke-linejoin:miter;stroke:rgb(75.294118%,75.294118%,75.294118%);stroke-opacity:1;stroke-miterlimit:10;" d="M 22 12 C 22 6.476562 26.476562 2 32 2 C 37.523438 2 42 6.476562 42 12 L 42 32 M 22 12 L 22 28 "/>
<path style="fill:none;stroke-width:4;stroke-linecap:butt;stroke-linejoin:miter;stroke:rgb(96.078431%,96.078431%,96.078431%);stroke-opacity:1;stroke-miterlimit:10;" d="M 24 22 L 22 22 "/>
<path style=" stroke:none;fill-rule:evenodd;fill:rgb(96.078431%,96.078431%,96.078431%);fill-opacity:1;" d="M 36 44 C 36 49.332031 28 49.332031 28 44 C 28 38.667969 36 38.667969 36 44 Z M 36 44 "/>
<path style=" stroke:none;fill-rule:evenodd;fill:rgb(96.078431%,96.078431%,96.078431%);fill-opacity:1;" d="M 32 44 L 36 56 L 28 56 Z M 32 44 "/>
</g>
</svg>
