<?xml version="1.0" encoding="UTF-8"?>
<svg xmlns="http://www.w3.org/2000/svg" xmlns:xlink="http://www.w3.org/1999/xlink" width="64pt" height="64pt" viewBox="0 0 64 64" version="1.1">
<g id="surface15533">
<path style=" stroke:none;fill-rule:evenodd;fill:rgb(75.294118%,75.294118%,75.294118%);fill-opacity:1;" d="M 32 56 C 20.953125 56 12 45.253906 12 32 C 12 18.746094 20.953125 8 32 8 Z M 32 56 "/>
<path style=" stroke:none;fill-rule:evenodd;fill:rgb(75.294118%,75.294118%,75.294118%);fill-opacity:1;" d="M 12 32 L 12 12 L 32 4 L 32 32 Z M 12 32 "/>
<path style=" stroke:none;fill-rule:evenodd;fill:rgb(41.176471%,41.176471%,41.176471%);fill-opacity:1;" d="M 32 8 C 43.046875 8 52 18.746094 52 32 C 52 45.253906 43.046875 56 32 56 Z M 32 8 "/>
<path style=" stroke:none;fill-rule:evenodd;fill:rgb(41.176471%,41.176471%,41.176471%);fill-opacity:1;" d="M 52 32 L 52 12 L 32 4 L 32 32 Z M 52 32 "/>
<path style=" stroke:none;fill-rule:evenodd;fill:rgb(96.078431%,96.078431%,96.078431%);fill-opacity:1;" d="M 28 20 L 32 40 L 36 20 Z M 28 20 "/>
<path style=" stroke:none;fill-rule:evenodd;fill:rgb(96.078431%,96.078431%,96.078431%);fill-opacity:1;" d="M 36 20 C 36 25.332031 28 25.332031 28 20 C 28 14.667969 36 14.667969 36 20 Z M 35 44 C 35 48 29 48 29 44 C 29 40 35 40 35 44 Z M 35 44 "/>
</g>
</svg>
