<?xml version="1.0" encoding="UTF-8"?>
<svg xmlns="http://www.w3.org/2000/svg" xmlns:xlink="http://www.w3.org/1999/xlink" width="64pt" height="64pt" viewBox="0 0 64 64" version="1.1">
<g id="surface14505">
<path style=" stroke:none;fill-rule:evenodd;fill:rgb(100%,100%,100%);fill-opacity:1;" d="M 61.871094 31.464844 C 55.738281 41.996094 44.515625 48.519531 32.332031 48.636719 C 20.148438 48.753906 8.800781 42.445312 2.46875 32.035156 L 2.46875 31.964844 C 8.800781 21.554688 20.148438 15.246094 32.332031 15.363281 C 44.515625 15.480469 55.738281 22.003906 61.871094 32.535156 "/>
<path style=" stroke:none;fill-rule:evenodd;fill:rgb(25.490196%,41.176471%,88.235294%);fill-opacity:1;" d="M 49.28125 32 C 49.28125 41.542969 41.542969 49.28125 32 49.28125 C 22.457031 49.28125 14.71875 41.542969 14.71875 32 C 14.71875 22.457031 22.457031 14.71875 32 14.71875 C 41.542969 14.71875 49.28125 22.457031 49.28125 32 Z M 49.28125 32 "/>
<path style=" stroke:none;fill-rule:evenodd;fill:rgb(0%,0%,0%);fill-opacity:1;" d="M 40 32 C 40 36.417969 36.417969 40 32 40 C 27.582031 40 24 36.417969 24 32 C 24 27.582031 27.582031 24 32 24 C 36.417969 24 40 27.582031 40 32 Z M 40 32 "/>
<path style=" stroke:none;fill-rule:evenodd;fill:rgb(100%,100%,100%);fill-opacity:1;" d="M 38.398438 28.800781 C 38.398438 33.066406 32 33.066406 32 28.800781 C 32 24.535156 38.398438 24.535156 38.398438 28.800781 Z M 38.398438 28.800781 "/>
<path style="fill:none;stroke-width:2.56;stroke-linecap:butt;stroke-linejoin:miter;stroke:rgb(0%,0%,0%);stroke-opacity:1;stroke-miterlimit:10;" d="M 61.871094 31.464844 C 55.738281 41.996094 44.515625 48.519531 32.332031 48.636719 C 20.148438 48.753906 8.800781 42.445312 2.46875 32.035156 L 2.46875 31.964844 C 8.800781 21.554688 20.148438 15.246094 32.332031 15.363281 C 44.515625 15.480469 55.738281 22.003906 61.871094 32.535156 "/>
</g>
</svg>
