<?xml version="1.0" encoding="UTF-8"?>
<svg xmlns="http://www.w3.org/2000/svg" xmlns:xlink="http://www.w3.org/1999/xlink" width="64pt" height="64pt" viewBox="0 0 64 64" version="1.1">
<defs>
<clipPath id="clip1">
  <path d="M 1 14 L 32.5 14 L 32.5 32 L 1 32 Z M 1 14 "/>
</clipPath>
</defs>
<g id="surface17209">
<path style="fill:none;stroke-width:36;stroke-linecap:butt;stroke-linejoin:miter;stroke:rgb(100%,100%,100%);stroke-opacity:1;stroke-miterlimit:10;" d="M 0 31 L 63 31 "/>
<path style="fill:none;stroke-width:36;stroke-linecap:butt;stroke-linejoin:miter;stroke:rgb(41.176471%,41.176471%,41.176471%);stroke-opacity:1;stroke-miterlimit:10;" d="M 1 32 L 64 32 "/>
<g clip-path="url(#clip1)" clip-rule="nonzero">
<path style="fill:none;stroke-width:8;stroke-linecap:butt;stroke-linejoin:miter;stroke:rgb(82.745098%,82.745098%,82.745098%);stroke-opacity:1;stroke-miterlimit:10;" d="M 1 14 L 30 32 M 64 14 L 34 32 M 1 50 L 30 32 M 64 50 L 34 32 " transform="matrix(0.5,0,0,0.5,0.5,7)"/>
<path style="fill:none;stroke-width:3;stroke-linecap:butt;stroke-linejoin:miter;stroke:rgb(66.27451%,66.27451%,66.27451%);stroke-opacity:1;stroke-miterlimit:10;" d="M 1 14 L 30 32 M 64 14 L 34 32 M 1 50 L 30 32 M 64 50 L 34 32 " transform="matrix(0.5,0,0,0.5,0.5,7)"/>
<path style="fill:none;stroke-width:10;stroke-linecap:butt;stroke-linejoin:miter;stroke:rgb(82.745098%,82.745098%,82.745098%);stroke-opacity:1;stroke-miterlimit:10;" d="M 32 14 L 32 50 M 1 32 L 64 32 " transform="matrix(0.5,0,0,0.5,0.5,7)"/>
<path style="fill:none;stroke-width:5;stroke-linecap:butt;stroke-linejoin:miter;stroke:rgb(66.27451%,66.27451%,66.27451%);stroke-opacity:1;stroke-miterlimit:10;" d="M 32 14 L 32 50 M 1 32 L 64 32 " transform="matrix(0.5,0,0,0.5,0.5,7)"/>
</g>
<path style=" stroke:none;fill-rule:evenodd;fill:rgb(82.745098%,82.745098%,82.745098%);fill-opacity:1;" d="M 48 17.28125 L 48.859375 19.941406 L 51.652344 19.933594 L 49.386719 21.570312 L 50.257812 24.226562 L 48 22.578125 L 45.742188 24.226562 L 46.613281 21.570312 L 44.347656 19.933594 L 47.140625 19.941406 Z M 48 39.039062 L 48.859375 41.699219 L 51.652344 41.695312 L 49.386719 43.332031 L 50.257812 45.988281 L 48 44.339844 L 45.742188 45.988281 L 46.613281 43.332031 L 44.347656 41.695312 L 47.140625 41.699219 Z M 40.320312 26.238281 L 41.175781 28.898438 L 43.972656 28.894531 L 41.707031 30.53125 L 42.578125 33.1875 L 40.320312 31.539062 L 38.0625 33.1875 L 38.933594 30.53125 L 36.667969 28.894531 L 39.460938 28.898438 Z M 55.679688 23.679688 L 56.539062 26.339844 L 59.332031 26.332031 L 57.066406 27.972656 L 57.9375 30.625 L 55.679688 28.980469 L 53.421875 30.625 L 54.292969 27.972656 L 52.027344 26.332031 L 54.824219 26.339844 Z M 55.679688 23.679688 "/>
<path style=" stroke:none;fill-rule:evenodd;fill:rgb(66.27451%,66.27451%,66.27451%);fill-opacity:1;" d="M 48 19.199219 L 48.429688 20.53125 L 49.824219 20.527344 L 48.695312 21.34375 L 49.128906 22.671875 L 48 21.847656 L 46.871094 22.671875 L 47.304688 21.34375 L 46.175781 20.527344 L 47.570312 20.53125 Z M 48 40.960938 L 48.429688 42.289062 L 49.824219 42.285156 L 48.695312 43.105469 L 49.128906 44.433594 L 48 43.609375 L 46.871094 44.433594 L 47.304688 43.105469 L 46.175781 42.285156 L 47.570312 42.289062 Z M 40.320312 28.160156 L 40.75 29.488281 L 42.144531 29.488281 L 41.015625 30.304688 L 41.449219 31.632812 L 40.320312 30.808594 L 39.191406 31.632812 L 39.625 30.304688 L 38.492188 29.488281 L 39.890625 29.488281 Z M 55.679688 25.601562 L 56.109375 26.929688 L 57.507812 26.925781 L 56.375 27.746094 L 56.808594 29.074219 L 55.679688 28.25 L 54.550781 29.074219 L 54.984375 27.746094 L 53.855469 26.925781 L 55.25 26.929688 Z M 55.679688 25.601562 "/>
</g>
</svg>
