<?xml version="1.0" encoding="UTF-8"?>
<svg xmlns="http://www.w3.org/2000/svg" xmlns:xlink="http://www.w3.org/1999/xlink" width="64pt" height="64pt" viewBox="0 0 64 64" version="1.1">
<g id="surface17057">
<path style="fill:none;stroke-width:40;stroke-linecap:butt;stroke-linejoin:miter;stroke:rgb(100%,100%,100%);stroke-opacity:1;stroke-miterlimit:10;" d="M 0 31 L 63 31 "/>
<path style="fill:none;stroke-width:40;stroke-linecap:butt;stroke-linejoin:miter;stroke:rgb(96.078431%,96.078431%,96.078431%);stroke-opacity:1;stroke-miterlimit:10;" d="M 1 32 L 64 32 "/>
<path style=" stroke:none;fill-rule:evenodd;fill:rgb(0%,20.392157%,47.058824%);fill-opacity:1;" d="M 44 32 C 44 38.628906 38.628906 44 32 44 C 25.371094 44 20 38.628906 20 32 C 20 25.371094 25.371094 20 32 20 C 38.628906 20 44 25.371094 44 32 Z M 44 32 "/>
<path style=" stroke:none;fill-rule:evenodd;fill:rgb(77.647059%,4.705882%,18.823529%);fill-opacity:1;" d="M 43.277344 36.105469 C 45.542969 29.875 42.332031 22.992188 36.105469 20.722656 C 29.875 18.457031 22.992188 21.667969 20.722656 27.894531 L 21.605469 26 C 19.945312 28.871094 20.929688 32.539062 23.800781 34.195312 C 25.179688 34.992188 26.816406 35.207031 28.351562 34.796875 C 29.890625 34.382812 31.199219 33.378906 31.996094 32 Z M 43.277344 36.105469 "/>
<path style=" stroke:none;fill-rule:evenodd;fill:rgb(0%,20.392157%,47.058824%);fill-opacity:1;" d="M 43.199219 35 C 43.199219 38.3125 40.515625 41 37.199219 41 C 33.886719 41 31.199219 38.3125 31.199219 35 C 31.199219 31.6875 33.886719 29 37.199219 29 C 40.515625 29 43.199219 31.6875 43.199219 35 Z M 43.199219 35 "/>
<path style="fill:none;stroke-width:1.5;stroke-linecap:butt;stroke-linejoin:miter;stroke:rgb(0%,0%,0%);stroke-opacity:1;stroke-miterlimit:10;" d="M 27.001722 9.00044 L 37.000832 8.999367 M 26.9999 12.001197 L 36.999009 12.000124 M 27.001278 14.999714 L 37.000387 14.998641 " transform="matrix(0.573576,-0.819152,0.819152,0.573576,-12.567311,39.858419)"/>
<path style="fill:none;stroke-width:1.5;stroke-linecap:butt;stroke-linejoin:miter;stroke:rgb(0%,0%,0%);stroke-opacity:1;stroke-miterlimit:10;" d="M 26.999168 8.999367 L 36.998278 9.00044 M 26.999613 14.998641 L 36.998722 14.999714 " transform="matrix(-0.573576,-0.819152,0.819152,-0.573576,24.141581,76.567311)"/>
<path style="fill:none;stroke-width:1.5;stroke-linecap:butt;stroke-linejoin:miter;stroke:rgb(0%,0%,0%);stroke-opacity:1;stroke-dasharray:3.34;stroke-miterlimit:10;" d="M 27.000991 12.000124 L 37.0001 12.001197 " transform="matrix(-0.573576,-0.819152,0.819152,-0.573576,24.141581,76.567311)"/>
<path style="fill:none;stroke-width:1.5;stroke-linecap:butt;stroke-linejoin:miter;stroke:rgb(0%,0%,0%);stroke-opacity:1;stroke-dasharray:3.34;stroke-miterlimit:10;" d="M 27.001722 9.00044 L 37.000832 8.999367 M 26.9999 12.001197 L 36.999009 12.000124 M 27.001278 14.999714 L 37.000387 14.998641 " transform="matrix(-0.573576,0.819152,-0.819152,-0.573576,76.567311,24.141581)"/>
<path style="fill:none;stroke-width:1.5;stroke-linecap:butt;stroke-linejoin:miter;stroke:rgb(0%,0%,0%);stroke-opacity:1;stroke-dasharray:3.34;stroke-miterlimit:10;" d="M 26.999168 8.999367 L 36.998278 9.00044 M 26.999613 14.998641 L 36.998722 14.999714 " transform="matrix(0.573576,0.819152,-0.819152,0.573576,39.858419,-12.567311)"/>
<path style="fill:none;stroke-width:1.5;stroke-linecap:butt;stroke-linejoin:miter;stroke:rgb(0%,0%,0%);stroke-opacity:1;stroke-miterlimit:10;" d="M 27.000991 12.000124 L 37.0001 12.001197 " transform="matrix(0.573576,0.819152,-0.819152,0.573576,39.858419,-12.567311)"/>
</g>
</svg>
