<?xml version="1.0" encoding="UTF-8"?>
<svg xmlns="http://www.w3.org/2000/svg" xmlns:xlink="http://www.w3.org/1999/xlink" width="64pt" height="64pt" viewBox="0 0 64 64" version="1.1">
<defs>
<clipPath id="clip1">
  <path d="M 1 14 L 32.5 14 L 32.5 32 L 1 32 Z M 1 14 "/>
</clipPath>
</defs>
<g id="surface17109">
<path style="fill:none;stroke-width:36;stroke-linecap:butt;stroke-linejoin:miter;stroke:rgb(100%,100%,100%);stroke-opacity:1;stroke-miterlimit:10;" d="M 0 31 L 63 31 "/>
<path style="fill:none;stroke-width:36;stroke-linecap:butt;stroke-linejoin:miter;stroke:rgb(41.176471%,41.176471%,41.176471%);stroke-opacity:1;stroke-miterlimit:10;" d="M 1 32 L 64 32 "/>
<g clip-path="url(#clip1)" clip-rule="nonzero">
<path style="fill:none;stroke-width:8;stroke-linecap:butt;stroke-linejoin:miter;stroke:rgb(82.745098%,82.745098%,82.745098%);stroke-opacity:1;stroke-miterlimit:10;" d="M 1 14 L 30 32 M 64 14 L 34 32 M 1 50 L 30 32 M 64 50 L 34 32 " transform="matrix(0.5,0,0,0.5,0.5,7)"/>
<path style="fill:none;stroke-width:3;stroke-linecap:butt;stroke-linejoin:miter;stroke:rgb(66.27451%,66.27451%,66.27451%);stroke-opacity:1;stroke-miterlimit:10;" d="M 1 14 L 30 32 M 64 14 L 34 32 M 1 50 L 30 32 M 64 50 L 34 32 " transform="matrix(0.5,0,0,0.5,0.5,7)"/>
<path style="fill:none;stroke-width:10;stroke-linecap:butt;stroke-linejoin:miter;stroke:rgb(82.745098%,82.745098%,82.745098%);stroke-opacity:1;stroke-miterlimit:10;" d="M 32 14 L 32 50 M 1 32 L 64 32 " transform="matrix(0.5,0,0,0.5,0.5,7)"/>
<path style="fill:none;stroke-width:5;stroke-linecap:butt;stroke-linejoin:miter;stroke:rgb(66.27451%,66.27451%,66.27451%);stroke-opacity:1;stroke-miterlimit:10;" d="M 32 14 L 32 50 M 1 32 L 64 32 " transform="matrix(0.5,0,0,0.5,0.5,7)"/>
</g>
<path style=" stroke:none;fill-rule:evenodd;fill:rgb(82.745098%,82.745098%,82.745098%);fill-opacity:1;" d="M 16 34.878906 L 16.898438 38.457031 L 20.253906 36.929688 L 18.015625 39.859375 L 21.304688 41.53125 L 17.617188 41.609375 L 18.359375 45.222656 L 16 42.386719 L 13.640625 45.222656 L 14.382812 41.609375 L 10.695312 41.53125 L 13.984375 39.859375 L 11.746094 36.929688 L 15.101562 38.457031 Z M 48 17.921875 L 48.527344 20.023438 L 50.5 19.125 L 49.183594 20.847656 L 51.121094 21.832031 L 48.949219 21.878906 L 49.386719 24.003906 L 48 22.335938 L 46.613281 24.003906 L 47.050781 21.878906 L 44.878906 21.832031 L 46.816406 20.847656 L 45.5 19.125 L 47.472656 20.023438 Z M 48 39.679688 L 48.527344 41.785156 L 50.5 40.886719 L 49.183594 42.609375 L 51.121094 43.59375 L 48.949219 43.636719 L 49.386719 45.761719 L 48 44.097656 L 46.613281 45.761719 L 47.050781 43.636719 L 44.878906 43.59375 L 46.816406 42.609375 L 45.5 40.886719 L 47.472656 41.785156 Z M 40.320312 26.878906 L 40.847656 28.984375 L 42.820312 28.085938 L 41.503906 29.808594 L 43.441406 30.792969 L 41.269531 30.839844 L 41.707031 32.964844 L 40.320312 31.296875 L 38.929688 32.964844 L 39.371094 30.839844 L 37.199219 30.792969 L 39.132812 29.808594 L 37.816406 28.085938 L 39.792969 28.984375 Z M 55.679688 24.320312 L 56.207031 26.425781 L 58.183594 25.523438 L 56.867188 27.25 L 58.800781 28.230469 L 56.628906 28.277344 L 57.070312 30.402344 L 55.679688 28.734375 L 54.292969 30.402344 L 54.730469 28.277344 L 52.558594 28.230469 L 54.496094 27.25 L 53.179688 25.523438 L 55.152344 26.425781 Z M 51.199219 31.679688 L 51.570312 33.152344 L 52.953125 32.523438 L 52.03125 33.730469 L 53.382812 34.417969 L 51.867188 34.449219 L 52.171875 35.9375 L 51.199219 34.769531 L 50.226562 35.9375 L 50.535156 34.449219 L 49.015625 34.417969 L 50.371094 33.730469 L 49.449219 32.523438 L 50.832031 33.152344 Z M 51.199219 31.679688 "/>
</g>
</svg>
