<?xml version="1.0" encoding="UTF-8"?>
<svg xmlns="http://www.w3.org/2000/svg" xmlns:xlink="http://www.w3.org/1999/xlink" width="64pt" height="64pt" viewBox="0 0 64 64" version="1.1">
<g id="surface17153">
<path style=" stroke:none;fill-rule:evenodd;fill:rgb(66.27451%,66.27451%,66.27451%);fill-opacity:1;" d="M 0 10.667969 L 64 10.667969 L 64 53.335938 L 0 53.335938 Z M 0 10.667969 "/>
<path style=" stroke:none;fill-rule:evenodd;fill:rgb(82.745098%,82.745098%,82.745098%);fill-opacity:1;" d="M 32 15.40625 L 32.53125 17.050781 L 34.253906 17.046875 L 32.855469 18.054688 L 33.394531 19.695312 L 32 18.679688 L 30.605469 19.695312 L 31.144531 18.054688 L 29.746094 17.046875 L 31.46875 17.050781 Z M 39.109375 17.3125 L 39.640625 18.953125 L 41.367188 18.949219 L 39.96875 19.960938 L 40.503906 21.601562 L 39.109375 20.582031 L 37.71875 21.601562 L 38.253906 19.960938 L 36.855469 18.949219 L 38.582031 18.953125 Z M 44.316406 22.519531 L 44.847656 24.160156 L 46.570312 24.15625 L 45.171875 25.167969 L 45.710938 26.804688 L 44.316406 25.789062 L 42.921875 26.804688 L 43.460938 25.167969 L 42.0625 24.15625 L 43.789062 24.160156 Z M 46.222656 29.628906 L 46.75 31.269531 L 48.476562 31.265625 L 47.078125 32.277344 L 47.617188 33.917969 L 46.222656 32.902344 L 44.828125 33.917969 L 45.367188 32.277344 L 43.96875 31.265625 L 45.691406 31.269531 Z M 44.316406 36.742188 L 44.847656 38.382812 L 46.570312 38.378906 L 45.171875 39.390625 L 45.710938 41.027344 L 44.316406 40.011719 L 42.921875 41.027344 L 43.460938 39.390625 L 42.0625 38.378906 L 43.789062 38.382812 Z M 39.109375 41.945312 L 39.640625 43.589844 L 41.367188 43.585938 L 39.96875 44.59375 L 40.503906 46.234375 L 39.109375 45.21875 L 37.71875 46.234375 L 38.253906 44.59375 L 36.855469 43.585938 L 38.582031 43.589844 Z M 32 43.851562 L 32.53125 45.492188 L 34.253906 45.488281 L 32.855469 46.5 L 33.394531 48.140625 L 32 47.121094 L 30.605469 48.140625 L 31.144531 46.5 L 29.746094 45.488281 L 31.46875 45.492188 Z M 24.890625 41.945312 L 25.417969 43.589844 L 27.144531 43.585938 L 25.746094 44.59375 L 26.28125 46.234375 L 24.890625 45.21875 L 23.496094 46.234375 L 24.03125 44.59375 L 22.632812 43.585938 L 24.359375 43.589844 Z M 19.683594 36.742188 L 20.210938 38.382812 L 21.9375 38.378906 L 20.539062 39.390625 L 21.078125 41.027344 L 19.683594 40.011719 L 18.289062 41.027344 L 18.828125 39.390625 L 17.429688 38.378906 L 19.152344 38.382812 Z M 17.777344 29.628906 L 18.308594 31.269531 L 20.03125 31.265625 L 18.632812 32.277344 L 19.171875 33.917969 L 17.777344 32.902344 L 16.382812 33.917969 L 16.921875 32.277344 L 15.523438 31.265625 L 17.25 31.269531 Z M 19.683594 22.519531 L 20.210938 24.160156 L 21.9375 24.15625 L 20.539062 25.167969 L 21.078125 26.804688 L 19.683594 25.789062 L 18.289062 26.804688 L 18.828125 25.167969 L 17.429688 24.15625 L 19.152344 24.160156 Z M 24.890625 17.3125 L 25.417969 18.953125 L 27.144531 18.949219 L 25.746094 19.960938 L 26.28125 21.601562 L 24.890625 20.582031 L 23.496094 21.601562 L 24.03125 19.960938 L 22.632812 18.949219 L 24.359375 18.953125 Z M 24.890625 17.3125 "/>
</g>
</svg>
