<?xml version="1.0" encoding="UTF-8"?>
<svg xmlns="http://www.w3.org/2000/svg" xmlns:xlink="http://www.w3.org/1999/xlink" width="64pt" height="64pt" viewBox="0 0 64 64" version="1.1">
<g id="surface17245">
<path style="fill:none;stroke-width:36;stroke-linecap:butt;stroke-linejoin:miter;stroke:rgb(100%,100%,100%);stroke-opacity:1;stroke-miterlimit:10;" d="M 0 31 L 63 31 "/>
<path style="fill:none;stroke-width:36;stroke-linecap:butt;stroke-linejoin:miter;stroke:rgb(82.745098%,82.745098%,82.745098%);stroke-opacity:1;stroke-miterlimit:10;" d="M 1 32 L 64 32 "/>
<path style="fill:none;stroke-width:2.8;stroke-linecap:butt;stroke-linejoin:miter;stroke:rgb(66.27451%,66.27451%,66.27451%);stroke-opacity:1;stroke-miterlimit:10;" d="M 1 15.398438 L 64 15.398438 "/>
<path style="fill:none;stroke-width:2.8;stroke-linecap:butt;stroke-linejoin:miter;stroke:rgb(66.27451%,66.27451%,66.27451%);stroke-opacity:1;stroke-miterlimit:10;" d="M 1 21 L 64 21 "/>
<path style="fill:none;stroke-width:2.8;stroke-linecap:butt;stroke-linejoin:miter;stroke:rgb(66.27451%,66.27451%,66.27451%);stroke-opacity:1;stroke-miterlimit:10;" d="M 1 26.601562 L 64 26.601562 "/>
<path style="fill:none;stroke-width:2.8;stroke-linecap:butt;stroke-linejoin:miter;stroke:rgb(66.27451%,66.27451%,66.27451%);stroke-opacity:1;stroke-miterlimit:10;" d="M 1 32.199219 L 64 32.199219 "/>
<path style="fill:none;stroke-width:2.8;stroke-linecap:butt;stroke-linejoin:miter;stroke:rgb(66.27451%,66.27451%,66.27451%);stroke-opacity:1;stroke-miterlimit:10;" d="M 1 37.800781 L 64 37.800781 "/>
<path style="fill:none;stroke-width:2.8;stroke-linecap:butt;stroke-linejoin:miter;stroke:rgb(66.27451%,66.27451%,66.27451%);stroke-opacity:1;stroke-miterlimit:10;" d="M 1 43.398438 L 64 43.398438 "/>
<path style="fill:none;stroke-width:2.8;stroke-linecap:butt;stroke-linejoin:miter;stroke:rgb(66.27451%,66.27451%,66.27451%);stroke-opacity:1;stroke-miterlimit:10;" d="M 1 49 L 64 49 "/>
<path style=" stroke:none;fill-rule:evenodd;fill:rgb(50.196078%,50.196078%,50.196078%);fill-opacity:1;" d="M 1 14 L 31 14 L 31 34 L 1 34 Z M 1 14 "/>
<path style=" stroke:none;fill-rule:evenodd;fill:rgb(82.745098%,82.745098%,82.745098%);fill-opacity:1;" d="M 4.5 16 C 4.5 17.332031 2.5 17.332031 2.5 16 C 2.5 14.667969 4.5 14.667969 4.5 16 Z M 8.5 16 C 8.5 17.332031 6.5 17.332031 6.5 16 C 6.5 14.667969 8.5 14.667969 8.5 16 Z M 12.5 16 C 12.5 17.332031 10.5 17.332031 10.5 16 C 10.5 14.667969 12.5 14.667969 12.5 16 Z M 16.5 16 C 16.5 17.332031 14.5 17.332031 14.5 16 C 14.5 14.667969 16.5 14.667969 16.5 16 Z M 20.5 16 C 20.5 17.332031 18.5 17.332031 18.5 16 C 18.5 14.667969 20.5 14.667969 20.5 16 Z M 24.5 16 C 24.5 17.332031 22.5 17.332031 22.5 16 C 22.5 14.667969 24.5 14.667969 24.5 16 Z M 28.5 16 C 28.5 17.332031 26.5 17.332031 26.5 16 C 26.5 14.667969 28.5 14.667969 28.5 16 Z M 4.5 20 C 4.5 21.332031 2.5 21.332031 2.5 20 C 2.5 18.667969 4.5 18.667969 4.5 20 Z M 8.5 20 C 8.5 21.332031 6.5 21.332031 6.5 20 C 6.5 18.667969 8.5 18.667969 8.5 20 Z M 12.5 20 C 12.5 21.332031 10.5 21.332031 10.5 20 C 10.5 18.667969 12.5 18.667969 12.5 20 Z M 16.5 20 C 16.5 21.332031 14.5 21.332031 14.5 20 C 14.5 18.667969 16.5 18.667969 16.5 20 Z M 20.5 20 C 20.5 21.332031 18.5 21.332031 18.5 20 C 18.5 18.667969 20.5 18.667969 20.5 20 Z M 24.5 20 C 24.5 21.332031 22.5 21.332031 22.5 20 C 22.5 18.667969 24.5 18.667969 24.5 20 Z M 28.5 20 C 28.5 21.332031 26.5 21.332031 26.5 20 C 26.5 18.667969 28.5 18.667969 28.5 20 Z M 4.5 24 C 4.5 25.332031 2.5 25.332031 2.5 24 C 2.5 22.667969 4.5 22.667969 4.5 24 Z M 8.5 24 C 8.5 25.332031 6.5 25.332031 6.5 24 C 6.5 22.667969 8.5 22.667969 8.5 24 Z M 12.5 24 C 12.5 25.332031 10.5 25.332031 10.5 24 C 10.5 22.667969 12.5 22.667969 12.5 24 Z M 16.5 24 C 16.5 25.332031 14.5 25.332031 14.5 24 C 14.5 22.667969 16.5 22.667969 16.5 24 Z M 20.5 24 C 20.5 25.332031 18.5 25.332031 18.5 24 C 18.5 22.667969 20.5 22.667969 20.5 24 Z M 24.5 24 C 24.5 25.332031 22.5 25.332031 22.5 24 C 22.5 22.667969 24.5 22.667969 24.5 24 Z M 28.5 24 C 28.5 25.332031 26.5 25.332031 26.5 24 C 26.5 22.667969 28.5 22.667969 28.5 24 Z M 4.5 28 C 4.5 29.332031 2.5 29.332031 2.5 28 C 2.5 26.667969 4.5 26.667969 4.5 28 Z M 8.5 28 C 8.5 29.332031 6.5 29.332031 6.5 28 C 6.5 26.667969 8.5 26.667969 8.5 28 Z M 12.5 28 C 12.5 29.332031 10.5 29.332031 10.5 28 C 10.5 26.667969 12.5 26.667969 12.5 28 Z M 16.5 28 C 16.5 29.332031 14.5 29.332031 14.5 28 C 14.5 26.667969 16.5 26.667969 16.5 28 Z M 20.5 28 C 20.5 29.332031 18.5 29.332031 18.5 28 C 18.5 26.667969 20.5 26.667969 20.5 28 Z M 24.5 28 C 24.5 29.332031 22.5 29.332031 22.5 28 C 22.5 26.667969 24.5 26.667969 24.5 28 Z M 28.5 28 C 28.5 29.332031 26.5 29.332031 26.5 28 C 26.5 26.667969 28.5 26.667969 28.5 28 Z M 4.5 32 C 4.5 33.332031 2.5 33.332031 2.5 32 C 2.5 30.667969 4.5 30.667969 4.5 32 Z M 8.5 32 C 8.5 33.332031 6.5 33.332031 6.5 32 C 6.5 30.667969 8.5 30.667969 8.5 32 Z M 12.5 32 C 12.5 33.332031 10.5 33.332031 10.5 32 C 10.5 30.667969 12.5 30.667969 12.5 32 Z M 16.5 32 C 16.5 33.332031 14.5 33.332031 14.5 32 C 14.5 30.667969 16.5 30.667969 16.5 32 Z M 20.5 32 C 20.5 33.332031 18.5 33.332031 18.5 32 C 18.5 30.667969 20.5 30.667969 20.5 32 Z M 24.5 32 C 24.5 33.332031 22.5 33.332031 22.5 32 C 22.5 30.667969 24.5 30.667969 24.5 32 Z M 28.5 32 C 28.5 33.332031 26.5 33.332031 26.5 32 C 26.5 30.667969 28.5 30.667969 28.5 32 Z M 6.5 18 C 6.5 19.332031 4.5 19.332031 4.5 18 C 4.5 16.667969 6.5 16.667969 6.5 18 Z M 10.5 18 C 10.5 19.332031 8.5 19.332031 8.5 18 C 8.5 16.667969 10.5 16.667969 10.5 18 Z M 14.5 18 C 14.5 19.332031 12.5 19.332031 12.5 18 C 12.5 16.667969 14.5 16.667969 14.5 18 Z M 18.5 18 C 18.5 19.332031 16.5 19.332031 16.5 18 C 16.5 16.667969 18.5 16.667969 18.5 18 Z M 22.5 18 C 22.5 19.332031 20.5 19.332031 20.5 18 C 20.5 16.667969 22.5 16.667969 22.5 18 Z M 26.5 18 C 26.5 19.332031 24.5 19.332031 24.5 18 C 24.5 16.667969 26.5 16.667969 26.5 18 Z M 6.5 22 C 6.5 23.332031 4.5 23.332031 4.5 22 C 4.5 20.667969 6.5 20.667969 6.5 22 Z M 10.5 22 C 10.5 23.332031 8.5 23.332031 8.5 22 C 8.5 20.667969 10.5 20.667969 10.5 22 Z M 14.5 22 C 14.5 23.332031 12.5 23.332031 12.5 22 C 12.5 20.667969 14.5 20.667969 14.5 22 Z M 18.5 22 C 18.5 23.332031 16.5 23.332031 16.5 22 C 16.5 20.667969 18.5 20.667969 18.5 22 Z M 22.5 22 C 22.5 23.332031 20.5 23.332031 20.5 22 C 20.5 20.667969 22.5 20.667969 22.5 22 Z M 26.5 22 C 26.5 23.332031 24.5 23.332031 24.5 22 C 24.5 20.667969 26.5 20.667969 26.5 22 Z M 6.5 26 C 6.5 27.332031 4.5 27.332031 4.5 26 C 4.5 24.667969 6.5 24.667969 6.5 26 Z M 10.5 26 C 10.5 27.332031 8.5 27.332031 8.5 26 C 8.5 24.667969 10.5 24.667969 10.5 26 Z M 14.5 26 C 14.5 27.332031 12.5 27.332031 12.5 26 C 12.5 24.667969 14.5 24.667969 14.5 26 Z M 18.5 26 C 18.5 27.332031 16.5 27.332031 16.5 26 C 16.5 24.667969 18.5 24.667969 18.5 26 Z M 22.5 26 C 22.5 27.332031 20.5 27.332031 20.5 26 C 20.5 24.667969 22.5 24.667969 22.5 26 Z M 26.5 26 C 26.5 27.332031 24.5 27.332031 24.5 26 C 24.5 24.667969 26.5 24.667969 26.5 26 Z M 6.5 30 C 6.5 31.332031 4.5 31.332031 4.5 30 C 4.5 28.667969 6.5 28.667969 6.5 30 Z M 10.5 30 C 10.5 31.332031 8.5 31.332031 8.5 30 C 8.5 28.667969 10.5 28.667969 10.5 30 Z M 14.5 30 C 14.5 31.332031 12.5 31.332031 12.5 30 C 12.5 28.667969 14.5 28.667969 14.5 30 Z M 18.5 30 C 18.5 31.332031 16.5 31.332031 16.5 30 C 16.5 28.667969 18.5 28.667969 18.5 30 Z M 22.5 30 C 22.5 31.332031 20.5 31.332031 20.5 30 C 20.5 28.667969 22.5 28.667969 22.5 30 Z M 26.5 30 C 26.5 31.332031 24.5 31.332031 24.5 30 C 24.5 28.667969 26.5 28.667969 26.5 30 Z M 26.5 30 "/>
</g>
</svg>
