<?xml version="1.0" encoding="UTF-8"?>
<svg xmlns="http://www.w3.org/2000/svg" xmlns:xlink="http://www.w3.org/1999/xlink" width="64pt" height="64pt" viewBox="0 0 64 64" version="1.1">
<defs>
<linearGradient id="linear0" gradientUnits="userSpaceOnUse" x1="2" y1="2" x2="40" y2="46" >
<stop offset="0" style="stop-color:rgb(75.294118%,75.294118%,75.294118%);stop-opacity:1;"/>
<stop offset="1" style="stop-color:rgb(45.098039%,45.098039%,45.098039%);stop-opacity:1;"/>
</linearGradient>
<linearGradient id="linear1" gradientUnits="userSpaceOnUse" x1="2" y1="2" x2="40" y2="46" >
<stop offset="0" style="stop-color:rgb(96.078431%,96.078431%,96.078431%);stop-opacity:1;"/>
<stop offset="1" style="stop-color:rgb(81.568627%,81.568627%,81.568627%);stop-opacity:1;"/>
</linearGradient>
<linearGradient id="linear2" gradientUnits="userSpaceOnUse" x1="2" y1="2" x2="36" y2="42" >
<stop offset="0" style="stop-color:rgb(86.27451%,86.27451%,86.27451%);stop-opacity:1;"/>
<stop offset="1" style="stop-color:rgb(51.764706%,51.764706%,51.764706%);stop-opacity:1;"/>
</linearGradient>
<linearGradient id="linear3" gradientUnits="userSpaceOnUse" x1="2" y1="2" x2="40" y2="46" >
<stop offset="0" style="stop-color:rgb(75.294118%,75.294118%,75.294118%);stop-opacity:1;"/>
<stop offset="1" style="stop-color:rgb(45.098039%,45.098039%,45.098039%);stop-opacity:1;"/>
</linearGradient>
<linearGradient id="linear4" gradientUnits="userSpaceOnUse" x1="2" y1="2" x2="40" y2="46" gradientTransform="matrix(1,0,0,1,22,16)">
<stop offset="0" style="stop-color:rgb(96.078431%,96.078431%,96.078431%);stop-opacity:1;"/>
<stop offset="1" style="stop-color:rgb(81.568627%,81.568627%,81.568627%);stop-opacity:1;"/>
</linearGradient>
<linearGradient id="linear5" gradientUnits="userSpaceOnUse" x1="2" y1="2" x2="36" y2="42" >
<stop offset="0" style="stop-color:rgb(86.27451%,86.27451%,86.27451%);stop-opacity:1;"/>
<stop offset="1" style="stop-color:rgb(51.764706%,51.764706%,51.764706%);stop-opacity:1;"/>
</linearGradient>
</defs>
<g id="surface16841">
<path style="fill:none;stroke-width:4;stroke-linecap:butt;stroke-linejoin:round;stroke:url(#linear0);stroke-miterlimit:10;" d="M 39 24 L 39 42 C 39 43.65625 37.65625 45 36 45 L 6 45 C 4.34375 45 3 43.65625 3 42 L 3 6 C 3 4.34375 4.34375 3 6 3 L 36 3 C 37.65625 3 39 4.34375 39 6 Z M 39 24 "/>
<path style=" stroke:none;fill-rule:evenodd;fill:url(#linear1);" d="M 39 24 L 39 42 C 39 43.65625 37.65625 45 36 45 L 6 45 C 4.34375 45 3 43.65625 3 42 L 3 6 C 3 4.34375 4.34375 3 6 3 L 36 3 C 37.65625 3 39 4.34375 39 6 Z M 39 24 "/>
<path style="fill:none;stroke-width:2;stroke-linecap:butt;stroke-linejoin:miter;stroke:url(#linear2);stroke-miterlimit:10;" d="M 6 12 L 34 12 M 6 20 L 12 20 M 6 28 L 28 28 M 6 36 L 24 36 "/>
<path style="fill:none;stroke-width:4;stroke-linecap:butt;stroke-linejoin:round;stroke:url(#linear3);stroke-miterlimit:10;" d="M 39 24 L 39 42 C 39 43.65625 37.65625 45 36 45 L 6 45 C 4.34375 45 3 43.65625 3 42 L 3 6 C 3 4.34375 4.34375 3 6 3 L 36 3 C 37.65625 3 39 4.34375 39 6 Z M 39 24 " transform="matrix(1,0,0,1,22,16)"/>
<path style=" stroke:none;fill-rule:evenodd;fill:url(#linear4);" d="M 61 40 L 61 58 C 61 59.65625 59.65625 61 58 61 L 28 61 C 26.34375 61 25 59.65625 25 58 L 25 22 C 25 20.34375 26.34375 19 28 19 L 58 19 C 59.65625 19 61 20.34375 61 22 Z M 61 40 "/>
<path style="fill:none;stroke-width:2;stroke-linecap:butt;stroke-linejoin:miter;stroke:url(#linear5);stroke-miterlimit:10;" d="M 6 12 L 34 12 M 6 20 L 12 20 M 6 28 L 28 28 M 6 36 L 24 36 " transform="matrix(1,0,0,1,22,16)"/>
</g>
</svg>
