<?xml version="1.0" encoding="UTF-8"?>
<svg xmlns="http://www.w3.org/2000/svg" xmlns:xlink="http://www.w3.org/1999/xlink" width="64pt" height="64pt" viewBox="0 0 64 64" version="1.1">
<g id="surface16737">
<path style="fill:none;stroke-width:4;stroke-linecap:butt;stroke-linejoin:miter;stroke:rgb(82.745098%,82.745098%,82.745098%);stroke-opacity:1;stroke-miterlimit:10;" d="M 22 18 L 26 18 L 26 22 L 22 22 Z M 22 46 L 26 46 L 26 50 L 22 50 Z M 50 46 L 54 46 L 54 50 L 50 50 Z M 50 46 "/>
<path style="fill:none;stroke-width:4;stroke-linecap:butt;stroke-linejoin:miter;stroke:rgb(82.745098%,82.745098%,82.745098%);stroke-opacity:1;stroke-miterlimit:10;" d="M 24 20 L 24 32 C 24 40.835938 31.164062 48 40 48 L 52 48 "/>
<path style="fill:none;stroke-width:4;stroke-linecap:butt;stroke-linejoin:miter;stroke:rgb(50.196078%,50.196078%,50.196078%);stroke-opacity:1;stroke-miterlimit:10;" d="M 16 12 L 20 12 L 20 16 L 16 16 Z M 16 40 L 20 40 L 20 44 L 16 44 Z M 44 40 L 48 40 L 48 44 L 44 44 Z M 44 40 "/>
<path style="fill:none;stroke-width:4;stroke-linecap:butt;stroke-linejoin:miter;stroke:rgb(50.196078%,50.196078%,50.196078%);stroke-opacity:1;stroke-miterlimit:10;" d="M 18 14 L 18 26 C 18 34.835938 25.164062 42 34 42 L 46 42 "/>
</g>
</svg>
