<?xml version="1.0" encoding="UTF-8"?>
<svg xmlns="http://www.w3.org/2000/svg" xmlns:xlink="http://www.w3.org/1999/xlink" width="64pt" height="64pt" viewBox="0 0 64 64" version="1.1">
<g id="surface16717">
<path style="fill:none;stroke-width:4;stroke-linecap:butt;stroke-linejoin:miter;stroke:rgb(82.745098%,82.745098%,82.745098%);stroke-opacity:1;stroke-miterlimit:10;" d="M 34 34 L 38 34 L 38 38 L 34 38 Z M 54 34 L 58 34 L 58 38 L 54 38 Z M 54 34 "/>
<path style="fill:none;stroke-width:4;stroke-linecap:butt;stroke-linejoin:miter;stroke:rgb(82.745098%,82.745098%,82.745098%);stroke-opacity:1;stroke-miterlimit:10;" d="M 56 36 C 56 47.046875 47.046875 56 36 56 C 24.953125 56 16 47.046875 16 36 C 16 24.953125 24.953125 16 36 16 C 47.046875 16 56 24.953125 56 36 Z M 56 36 "/>
<path style="fill:none;stroke-width:4;stroke-linecap:butt;stroke-linejoin:miter;stroke:rgb(50.196078%,50.196078%,50.196078%);stroke-opacity:1;stroke-miterlimit:10;" d="M 28 28 L 32 28 L 32 32 L 28 32 Z M 48 28 L 52 28 L 52 32 L 48 32 Z M 48 28 "/>
<path style="fill:none;stroke-width:4;stroke-linecap:butt;stroke-linejoin:miter;stroke:rgb(50.196078%,50.196078%,50.196078%);stroke-opacity:1;stroke-miterlimit:10;" d="M 50 30 C 50 41.046875 41.046875 50 30 50 C 18.953125 50 10 41.046875 10 30 C 10 18.953125 18.953125 10 30 10 C 41.046875 10 50 18.953125 50 30 Z M 50 30 "/>
</g>
</svg>
