<?xml version="1.0" encoding="UTF-8"?>
<svg xmlns="http://www.w3.org/2000/svg" xmlns:xlink="http://www.w3.org/1999/xlink" width="64pt" height="64pt" viewBox="0 0 64 64" version="1.1">
<defs>
<linearGradient id="linear0" gradientUnits="userSpaceOnUse" x1="0" y1="0" x2="64" y2="64" >
<stop offset="0" style="stop-color:rgb(91.372549%,94.901961%,93.333333%);stop-opacity:1;"/>
<stop offset="1" style="stop-color:rgb(81.568627%,85.098039%,83.529412%);stop-opacity:1;"/>
</linearGradient>
<linearGradient id="linear1" gradientUnits="userSpaceOnUse" x1="0" y1="0" x2="64" y2="64" >
<stop offset="0" style="stop-color:rgb(96.078431%,100%,98.039216%);stop-opacity:1;"/>
<stop offset="1" style="stop-color:rgb(76.862745%,80%,78.431373%);stop-opacity:1;"/>
</linearGradient>
</defs>
<g id="surface16277">
<path style="fill-rule:evenodd;fill:url(#linear0);stroke-width:2;stroke-linecap:butt;stroke-linejoin:miter;stroke:url(#linear1);stroke-miterlimit:10;" d="M 2 2 L 2 62 L 62 62 L 62 2 Z M 2 2 "/>
<path style="fill:none;stroke-width:4;stroke-linecap:butt;stroke-linejoin:miter;stroke:rgb(75.294118%,75.294118%,75.294118%);stroke-opacity:1;stroke-miterlimit:10;" d="M 16 40 L 20 40 L 20 44 L 16 44 Z M 52 30 L 56 30 L 56 34 L 52 34 Z M 52 30 "/>
<path style="fill:none;stroke-width:4;stroke-linecap:butt;stroke-linejoin:miter;stroke:rgb(75.294118%,75.294118%,75.294118%);stroke-opacity:1;stroke-miterlimit:10;" d="M 18 42 L 54 32 "/>
<path style="fill:none;stroke-width:4;stroke-linecap:butt;stroke-linejoin:miter;stroke:rgb(39.215686%,58.431373%,92.941176%);stroke-opacity:1;stroke-miterlimit:10;" d="M 10 34 L 14 34 L 14 38 L 10 38 Z M 46 24 L 50 24 L 50 28 L 46 28 Z M 46 24 "/>
<path style="fill:none;stroke-width:4;stroke-linecap:butt;stroke-linejoin:miter;stroke:rgb(0%,0%,0%);stroke-opacity:1;stroke-miterlimit:10;" d="M 12 36 L 48 26 "/>
</g>
</svg>
