<?xml version="1.0" encoding="UTF-8"?>
<svg xmlns="http://www.w3.org/2000/svg" xmlns:xlink="http://www.w3.org/1999/xlink" width="64pt" height="64pt" viewBox="0 0 64 64" version="1.1">
<g id="surface16661">
<path style=" stroke:none;fill-rule:evenodd;fill:rgb(82.745098%,82.745098%,82.745098%);fill-opacity:1;" d="M 6 52 C 6 58.667969 16 58.667969 16 52 "/>
<path style=" stroke:none;fill-rule:evenodd;fill:rgb(82.745098%,82.745098%,82.745098%);fill-opacity:1;" d="M 12.980469 46 C 12.980469 43.359375 9.019531 43.359375 9.019531 46 "/>
<path style=" stroke:none;fill-rule:evenodd;fill:rgb(82.745098%,82.745098%,82.745098%);fill-opacity:1;" d="M 13 46 L 16 52 L 6 52 L 9 46 Z M 13 46 "/>
<path style="fill:none;stroke-width:2;stroke-linecap:butt;stroke-linejoin:miter;stroke:rgb(82.745098%,82.745098%,82.745098%);stroke-opacity:1;stroke-miterlimit:10;" d="M 53.597656 37.5 C 54.425781 38.933594 53.933594 40.769531 52.5 41.597656 " transform="matrix(-1,0,0,1,64,0)"/>
<path style="fill:none;stroke-width:6;stroke-linecap:butt;stroke-linejoin:round;stroke:rgb(75.294118%,75.294118%,75.294118%);stroke-opacity:1;stroke-miterlimit:10;" d="M 39.999145 23.000961 L 50.000839 22.998199 L 39.999145 30.000214 Z M 39.999145 23.000961 " transform="matrix(-0.707107,0.707107,0.707107,0.707107,32,-13.254834)"/>
<path style=" stroke:none;fill-rule:evenodd;fill:rgb(75.294118%,75.294118%,75.294118%);fill-opacity:1;" d="M 22.808594 45.433594 L 30.585938 53.210938 C 32.148438 54.773438 34.679688 54.773438 36.242188 53.210938 L 53.210938 36.242188 C 54.773438 34.679688 54.773438 32.148438 53.214844 30.585938 L 37.65625 15.027344 C 36.09375 13.46875 33.5625 13.46875 32 15.03125 L 15.03125 32 C 13.46875 33.5625 13.46875 36.09375 15.03125 37.65625 Z M 22.808594 45.433594 "/>
<path style="fill:none;stroke-width:3;stroke-linecap:butt;stroke-linejoin:miter;stroke:rgb(75.294118%,75.294118%,75.294118%);stroke-opacity:1;stroke-miterlimit:10;" d="M 14.999054 20.998413 L 49.000946 20.998413 " transform="matrix(-0.707107,0.707107,0.707107,0.707107,32,-13.254834)"/>
<path style="fill:none;stroke-width:3;stroke-linecap:butt;stroke-linejoin:miter;stroke:rgb(75.294118%,75.294118%,75.294118%);stroke-opacity:1;stroke-miterlimit:10;" d="M 20.001282 33.999786 C 20.001282 39.524058 17.313724 44.00148 13.999161 44.00148 C 10.68736 43.998718 7.999801 39.521296 7.999801 34.002549 C 7.999801 28.478277 10.68736 24.000855 13.999161 23.998092 C 17.313724 23.998092 19.99852 28.478277 20.001282 33.999786 Z M 20.001282 33.999786 " transform="matrix(-0.707107,0.707107,0.707107,0.707107,32,-13.254834)"/>
</g>
</svg>
