<?xml version="1.0" encoding="UTF-8"?>
<svg xmlns="http://www.w3.org/2000/svg" xmlns:xlink="http://www.w3.org/1999/xlink" width="64pt" height="64pt" viewBox="0 0 64 64" version="1.1">
<defs>
<linearGradient id="linear0" gradientUnits="userSpaceOnUse" x1="8.96" y1="44.8" x2="19.2" y2="55.04" >
<stop offset="0" style="stop-color:rgb(10.196078%,10.196078%,10.196078%);stop-opacity:1;"/>
<stop offset="0.25" style="stop-color:rgb(25.098039%,25.098039%,25.098039%);stop-opacity:1;"/>
<stop offset="0.4" style="stop-color:rgb(100%,100%,100%);stop-opacity:1;"/>
<stop offset="0.55" style="stop-color:rgb(40%,40%,40%);stop-opacity:1;"/>
<stop offset="1" style="stop-color:rgb(10.196078%,10.196078%,10.196078%);stop-opacity:1;"/>
</linearGradient>
<linearGradient id="linear1" gradientUnits="userSpaceOnUse" x1="23.04" y1="3.84" x2="60.16" y2="40.96" >
<stop offset="0" style="stop-color:rgb(38.431373%,38.431373%,38.431373%);stop-opacity:1;"/>
<stop offset="0.45" style="stop-color:rgb(96.078431%,96.078431%,96.078431%);stop-opacity:1;"/>
<stop offset="1" style="stop-color:rgb(19.215686%,19.215686%,19.215686%);stop-opacity:1;"/>
</linearGradient>
<linearGradient id="linear2" gradientUnits="userSpaceOnUse" x1="25.6" y1="6.4" x2="57.6" y2="38.4" gradientTransform="matrix(-1,0,0,1,64,0)">
<stop offset="0" style="stop-color:rgb(100%,100%,100%);stop-opacity:0.34902;"/>
<stop offset="1" style="stop-color:rgb(60%,60%,60%);stop-opacity:0.34902;"/>
</linearGradient>
<linearGradient id="linear3" gradientUnits="userSpaceOnUse" x1="28" y1="0" x2="36" y2="0" gradientTransform="matrix(1,0,0,1,0,0.000000000000003553)">
<stop offset="0" style="stop-color:rgb(82.745098%,82.745098%,82.745098%);stop-opacity:1;"/>
<stop offset="1" style="stop-color:rgb(41.568627%,41.568627%,41.568627%);stop-opacity:1;"/>
</linearGradient>
<linearGradient id="linear4" gradientUnits="userSpaceOnUse" x1="28" y1="0" x2="36" y2="0" gradientTransform="matrix(1,0,0,1,0,0.000000000000003553)">
<stop offset="0" style="stop-color:rgb(86.666667%,86.666667%,86.666667%);stop-opacity:1;"/>
<stop offset="0.25" style="stop-color:rgb(96.078431%,96.078431%,96.078431%);stop-opacity:1;"/>
<stop offset="1" style="stop-color:rgb(47.843137%,47.843137%,47.843137%);stop-opacity:1;"/>
</linearGradient>
<linearGradient id="linear5" gradientUnits="userSpaceOnUse" x1="28" y1="0" x2="36" y2="0" gradientTransform="matrix(1,0,0,1,0,0.000000000000003553)">
<stop offset="0" style="stop-color:rgb(57.647059%,57.647059%,57.647059%);stop-opacity:1;"/>
<stop offset="0.1" style="stop-color:rgb(96.078431%,96.078431%,96.078431%);stop-opacity:1;"/>
<stop offset="1" style="stop-color:rgb(28.627451%,28.627451%,28.627451%);stop-opacity:1;"/>
</linearGradient>
<linearGradient id="linear6" gradientUnits="userSpaceOnUse" x1="28" y1="0" x2="36" y2="0" gradientTransform="matrix(1,0,0,1,0,0.000000000000003553)">
<stop offset="0" style="stop-color:rgb(66.27451%,66.27451%,66.27451%);stop-opacity:1;"/>
<stop offset="1" style="stop-color:rgb(32.941176%,32.941176%,32.941176%);stop-opacity:1;"/>
</linearGradient>
<linearGradient id="linear7" gradientUnits="userSpaceOnUse" x1="28" y1="0" x2="36" y2="0" gradientTransform="matrix(0.636396,0.636396,-0.636396,0.636396,42.25513,2.980195)">
<stop offset="0" style="stop-color:rgb(82.745098%,82.745098%,82.745098%);stop-opacity:1;"/>
<stop offset="1" style="stop-color:rgb(58.039216%,58.039216%,58.039216%);stop-opacity:1;"/>
</linearGradient>
<linearGradient id="linear8" gradientUnits="userSpaceOnUse" x1="30" y1="0" x2="34" y2="0" gradientTransform="matrix(0.636396,0.636396,-0.636396,0.636396,42.25513,2.980195)">
<stop offset="0" style="stop-color:rgb(50.196078%,50.196078%,50.196078%);stop-opacity:1;"/>
<stop offset="1" style="stop-color:rgb(0%,0%,0%);stop-opacity:1;"/>
</linearGradient>
</defs>
<g id="surface16861">
<path style="fill:none;stroke-width:10.24;stroke-linecap:square;stroke-linejoin:miter;stroke:url(#linear0);stroke-miterlimit:10;" d="M 23.679688 40.320312 L 7.039062 56.960938 " transform="matrix(-1,0,0,1,64,0)"/>
<path style="fill:none;stroke-width:2.56;stroke-linecap:butt;stroke-linejoin:miter;stroke:url(#linear1);stroke-miterlimit:10;" d="M 60.160156 22.398438 C 60.160156 32.652344 51.851562 40.960938 41.601562 40.960938 C 31.347656 40.960938 23.039062 32.652344 23.039062 22.398438 C 23.039062 12.148438 31.347656 3.839844 41.601562 3.839844 C 51.851562 3.839844 60.160156 12.148438 60.160156 22.398438 Z M 60.160156 22.398438 " transform="matrix(-1,0,0,1,64,0)"/>
<path style="fill:none;stroke-width:6.4;stroke-linecap:butt;stroke-linejoin:miter;stroke:rgb(100%,100%,100%);stroke-opacity:1;stroke-miterlimit:10;" d="M 30.719531 22.398438 C 30.719531 16.390625 35.590625 11.519531 41.598438 11.519531 " transform="matrix(1,0,0,1,-19.2,0)"/>
<path style=" stroke:none;fill-rule:evenodd;fill:url(#linear2);" d="M 6.398438 22.398438 C 6.398438 31.238281 13.5625 38.398438 22.398438 38.398438 C 31.238281 38.398438 38.398438 31.238281 38.398438 22.398438 C 38.398438 13.5625 31.238281 6.398438 22.398438 6.398438 C 13.5625 6.398438 6.398438 13.5625 6.398438 22.398438 Z M 6.398438 22.398438 "/>
<path style="fill:none;stroke-width:9;stroke-linecap:round;stroke-linejoin:miter;stroke:url(#linear3);stroke-miterlimit:10;" d="M 32.000132 4.000135 L 32.000132 7.001656 " transform="matrix(0.636396,0.636396,-0.636396,0.636396,42.25513,2.980195)"/>
<path style="fill:none;stroke-width:10;stroke-linecap:butt;stroke-linejoin:miter;stroke:url(#linear4);stroke-miterlimit:10;" d="M 32.000132 7.001656 L 32.000132 16.000081 " transform="matrix(0.636396,0.636396,-0.636396,0.636396,42.25513,2.980195)"/>
<path style="fill:none;stroke-width:1;stroke-linecap:butt;stroke-linejoin:miter;stroke:url(#linear5);stroke-miterlimit:10;" d="M 27.000666 8.999601 L 36.999598 8.999601 M 27.000666 14.002136 L 36.999598 14.002136 " transform="matrix(0.636396,0.636396,-0.636396,0.636396,42.25513,2.980195)"/>
<path style="fill:none;stroke-width:10;stroke-linecap:butt;stroke-linejoin:miter;stroke:url(#linear6);stroke-miterlimit:10;" d="M 32.000132 16.000081 L 32.000132 51.999919 " transform="matrix(0.636396,0.636396,-0.636396,0.636396,42.25513,2.980195)"/>
<path style=" stroke:none;fill-rule:evenodd;fill:url(#linear7);" d="M 26.34375 53.253906 L 21.890625 64.074219 L 32.710938 59.621094 Z M 26.34375 53.253906 "/>
<path style=" stroke:none;fill-rule:evenodd;fill:url(#linear8);" d="M 23.800781 59.621094 L 21.890625 64.074219 L 26.34375 62.164062 Z M 23.800781 59.621094 "/>
</g>
</svg>
