<?xml version="1.0" encoding="UTF-8"?>
<svg xmlns="http://www.w3.org/2000/svg" xmlns:xlink="http://www.w3.org/1999/xlink" width="64pt" height="64pt" viewBox="0 0 64 64" version="1.1">
<defs>
<linearGradient id="linear0" gradientUnits="userSpaceOnUse" x1="8.96" y1="44.8" x2="19.2" y2="55.04" >
<stop offset="0" style="stop-color:rgb(10.196078%,10.196078%,10.196078%);stop-opacity:1;"/>
<stop offset="0.25" style="stop-color:rgb(25.098039%,25.098039%,25.098039%);stop-opacity:1;"/>
<stop offset="0.4" style="stop-color:rgb(100%,100%,100%);stop-opacity:1;"/>
<stop offset="0.55" style="stop-color:rgb(40%,40%,40%);stop-opacity:1;"/>
<stop offset="1" style="stop-color:rgb(10.196078%,10.196078%,10.196078%);stop-opacity:1;"/>
</linearGradient>
<linearGradient id="linear1" gradientUnits="userSpaceOnUse" x1="23.04" y1="3.84" x2="60.16" y2="40.96" >
<stop offset="0" style="stop-color:rgb(38.431373%,38.431373%,38.431373%);stop-opacity:1;"/>
<stop offset="0.45" style="stop-color:rgb(96.078431%,96.078431%,96.078431%);stop-opacity:1;"/>
<stop offset="1" style="stop-color:rgb(19.215686%,19.215686%,19.215686%);stop-opacity:1;"/>
</linearGradient>
<linearGradient id="linear2" gradientUnits="userSpaceOnUse" x1="25.6" y1="6.4" x2="57.6" y2="38.4" >
<stop offset="0" style="stop-color:rgb(100%,100%,100%);stop-opacity:0.34902;"/>
<stop offset="1" style="stop-color:rgb(60%,60%,60%);stop-opacity:0.34902;"/>
</linearGradient>
</defs>
<g id="surface16857">
<path style="fill:none;stroke-width:10;stroke-linecap:butt;stroke-linejoin:miter;stroke:rgb(100%,100%,100%);stroke-opacity:1;stroke-miterlimit:10;" d="M 44 52 L 56 52 "/>
<path style=" stroke:none;fill-rule:evenodd;fill:rgb(100%,100%,100%);fill-opacity:1;" d="M 52 40 L 64 52 L 52 64 Z M 52 40 "/>
<path style="fill:none;stroke-width:10;stroke-linecap:butt;stroke-linejoin:miter;stroke:rgb(75.294118%,75.294118%,75.294118%);stroke-opacity:1;stroke-miterlimit:10;" d="M 44 52 L 56 52 " transform="matrix(1,0,0,1,-1,-1)"/>
<path style=" stroke:none;fill-rule:evenodd;fill:rgb(75.294118%,75.294118%,75.294118%);fill-opacity:1;" d="M 51 39 L 63 51 L 51 63 Z M 51 39 "/>
<path style="fill:none;stroke-width:10.24;stroke-linecap:square;stroke-linejoin:miter;stroke:url(#linear0);stroke-miterlimit:10;" d="M 23.679688 40.320312 L 7.039062 56.960938 "/>
<path style="fill:none;stroke-width:2.56;stroke-linecap:butt;stroke-linejoin:miter;stroke:url(#linear1);stroke-miterlimit:10;" d="M 60.160156 22.398438 C 60.160156 32.652344 51.851562 40.960938 41.601562 40.960938 C 31.347656 40.960938 23.039062 32.652344 23.039062 22.398438 C 23.039062 12.148438 31.347656 3.839844 41.601562 3.839844 C 51.851562 3.839844 60.160156 12.148438 60.160156 22.398438 Z M 60.160156 22.398438 "/>
<path style="fill:none;stroke-width:6.4;stroke-linecap:butt;stroke-linejoin:miter;stroke:rgb(100%,100%,100%);stroke-opacity:1;stroke-miterlimit:10;" d="M 30.71875 22.398438 C 30.71875 16.390625 35.589844 11.519531 41.601562 11.519531 "/>
<path style=" stroke:none;fill-rule:evenodd;fill:url(#linear2);" d="M 57.601562 22.398438 C 57.601562 31.238281 50.4375 38.398438 41.601562 38.398438 C 32.761719 38.398438 25.601562 31.238281 25.601562 22.398438 C 25.601562 13.5625 32.761719 6.398438 41.601562 6.398438 C 50.4375 6.398438 57.601562 13.5625 57.601562 22.398438 Z M 57.601562 22.398438 "/>
</g>
</svg>
