<?xml version="1.0" encoding="UTF-8"?>
<svg xmlns="http://www.w3.org/2000/svg" xmlns:xlink="http://www.w3.org/1999/xlink" width="64pt" height="64pt" viewBox="0 0 64 64" version="1.1">
<g id="surface16653">
<path style=" stroke:none;fill-rule:evenodd;fill:rgb(50.196078%,50.196078%,50.196078%);fill-opacity:1;" d="M 42 10 C 42 15.523438 37.523438 20 32 20 C 26.476562 20 22 15.523438 22 10 C 22 4.476562 26.476562 0 32 0 C 37.523438 0 42 4.476562 42 10 Z M 42 10 "/>
<path style="fill:none;stroke-width:2;stroke-linecap:butt;stroke-linejoin:miter;stroke:rgb(50.196078%,50.196078%,50.196078%);stroke-opacity:1;stroke-miterlimit:10;" d="M 27 22 L 37 22 L 37 51 L 27 51 Z M 27 22 "/>
<path style="fill:none;stroke-width:12;stroke-linecap:butt;stroke-linejoin:miter;stroke:rgb(50.196078%,50.196078%,50.196078%);stroke-opacity:1;stroke-miterlimit:10;" d="M 32 18 L 32 22 "/>
<path style="fill:none;stroke-width:10;stroke-linecap:butt;stroke-linejoin:miter;stroke:rgb(82.745098%,82.745098%,82.745098%);stroke-opacity:1;stroke-miterlimit:10;" d="M 32 22 L 32 52 "/>
<path style=" stroke:none;fill-rule:evenodd;fill:rgb(50.196078%,50.196078%,50.196078%);fill-opacity:1;" d="M 27 52 L 32 64 L 37 52 Z M 27 52 "/>
<path style=" stroke:none;fill-rule:evenodd;fill:rgb(50.196078%,50.196078%,50.196078%);fill-opacity:1;" d="M 30 59 L 31 64 L 33 64 L 34 59 Z M 30 59 "/>
</g>
</svg>
