<?xml version="1.0" encoding="UTF-8"?>
<svg xmlns="http://www.w3.org/2000/svg" xmlns:xlink="http://www.w3.org/1999/xlink" width="64pt" height="64pt" viewBox="0 0 64 64" version="1.1">
<defs>
<linearGradient id="linear0" gradientUnits="userSpaceOnUse" x1="0" y1="20" x2="0" y2="34" gradientTransform="matrix(0.000000000000000061,1,-1,0.000000000000000061,64,0)">
<stop offset="0" style="stop-color:rgb(45.098039%,45.098039%,45.098039%);stop-opacity:1;"/>
<stop offset="0.5" style="stop-color:rgb(75.294118%,75.294118%,75.294118%);stop-opacity:1;"/>
<stop offset="1" style="stop-color:rgb(45.098039%,45.098039%,45.098039%);stop-opacity:1;"/>
</linearGradient>
<linearGradient id="linear1" gradientUnits="userSpaceOnUse" x1="0" y1="20" x2="0" y2="34" gradientTransform="matrix(0.000000000000000061,1,-1,0.000000000000000061,64,0)">
<stop offset="0" style="stop-color:rgb(45.098039%,45.098039%,45.098039%);stop-opacity:1;"/>
<stop offset="0.5" style="stop-color:rgb(75.294118%,75.294118%,75.294118%);stop-opacity:1;"/>
<stop offset="1" style="stop-color:rgb(45.098039%,45.098039%,45.098039%);stop-opacity:1;"/>
</linearGradient>
<linearGradient id="linear2" gradientUnits="userSpaceOnUse" x1="0" y1="0" x2="64" y2="0" gradientTransform="matrix(0.000000000000000061,1,-1,0.000000000000000061,64,0)">
<stop offset="0" style="stop-color:rgb(66.27451%,66.27451%,66.27451%);stop-opacity:1;"/>
<stop offset="1" style="stop-color:rgb(32.941176%,32.941176%,32.941176%);stop-opacity:1;"/>
</linearGradient>
<linearGradient id="linear3" gradientUnits="userSpaceOnUse" x1="0" y1="0" x2="64" y2="0" gradientTransform="matrix(0.000000000000000061,1,-1,0.000000000000000061,64,0)">
<stop offset="0" style="stop-color:rgb(66.27451%,66.27451%,66.27451%);stop-opacity:1;"/>
<stop offset="1" style="stop-color:rgb(32.941176%,32.941176%,32.941176%);stop-opacity:1;"/>
</linearGradient>
</defs>
<g id="surface16581">
<path style=" stroke:none;fill-rule:evenodd;fill:rgb(86.27451%,86.27451%,86.27451%);fill-opacity:1;" d="M 64 36 C 64 40 44 48 28 48 L 28 64 C 44 64 56 64 64 52 Z M 64 36 "/>
<path style=" stroke:none;fill-rule:evenodd;fill:url(#linear0);" d="M 36 6.398438 C 31.582031 6.398438 28 5.324219 28 4 C 28 2.675781 31.582031 1.601562 36 1.601562 C 40.417969 1.601562 44 2.675781 44 4 C 44 5.324219 40.417969 6.398438 36 6.398438 Z M 36 6.398438 "/>
<path style=" stroke:none;fill-rule:evenodd;fill:url(#linear1);" d="M 44 4 L 44 60 L 28 60 L 28 4 Z M 44 4 "/>
<path style=" stroke:none;fill-rule:evenodd;fill:rgb(45.098039%,45.098039%,45.098039%);fill-opacity:1;" d="M 36 62.398438 C 31.582031 62.398438 28 61.324219 28 60 C 28 58.675781 31.582031 57.601562 36 57.601562 C 40.417969 57.601562 44 58.675781 44 60 C 44 61.324219 40.417969 62.398438 36 62.398438 Z M 36 62.398438 "/>
<path style=" stroke:none;fill-rule:evenodd;fill:url(#linear2);" d="M 64 36 C 64 12 44 12 24 12 L 24 36 C 44 36 64 36 64 52 Z M 64 36 "/>
<path style=" stroke:none;fill-rule:evenodd;fill:url(#linear3);" d="M 24 0 L 0 24 L 24 48 Z M 24 0 "/>
</g>
</svg>
