<?xml version="1.0" encoding="UTF-8"?>
<svg xmlns="http://www.w3.org/2000/svg" xmlns:xlink="http://www.w3.org/1999/xlink" width="64pt" height="64pt" viewBox="0 0 64 64" version="1.1">
<defs>
<linearGradient id="linear0" gradientUnits="userSpaceOnUse" x1="0" y1="20" x2="0" y2="34" gradientTransform="matrix(0.000000000000000061,1,1,-0.000000000000000061,0,0.000000000000003919)">
<stop offset="0" style="stop-color:rgb(45.098039%,45.098039%,45.098039%);stop-opacity:1;"/>
<stop offset="0.5" style="stop-color:rgb(75.294118%,75.294118%,75.294118%);stop-opacity:1;"/>
<stop offset="1" style="stop-color:rgb(45.098039%,45.098039%,45.098039%);stop-opacity:1;"/>
</linearGradient>
<linearGradient id="linear1" gradientUnits="userSpaceOnUse" x1="0" y1="20" x2="0" y2="34" gradientTransform="matrix(0.000000000000000061,1,1,-0.000000000000000061,0,0.000000000000003919)">
<stop offset="0" style="stop-color:rgb(45.098039%,45.098039%,45.098039%);stop-opacity:1;"/>
<stop offset="0.5" style="stop-color:rgb(75.294118%,75.294118%,75.294118%);stop-opacity:1;"/>
<stop offset="1" style="stop-color:rgb(45.098039%,45.098039%,45.098039%);stop-opacity:1;"/>
</linearGradient>
<linearGradient id="linear2" gradientUnits="userSpaceOnUse" x1="0" y1="0" x2="64" y2="0" gradientTransform="matrix(0.000000000000000061,1,1,-0.000000000000000061,0,0.000000000000003919)">
<stop offset="0" style="stop-color:rgb(66.27451%,66.27451%,66.27451%);stop-opacity:1;"/>
<stop offset="1" style="stop-color:rgb(32.941176%,32.941176%,32.941176%);stop-opacity:1;"/>
</linearGradient>
<linearGradient id="linear3" gradientUnits="userSpaceOnUse" x1="0" y1="0" x2="64" y2="0" gradientTransform="matrix(0.000000000000000061,1,1,-0.000000000000000061,0,0.000000000000003919)">
<stop offset="0" style="stop-color:rgb(66.27451%,66.27451%,66.27451%);stop-opacity:1;"/>
<stop offset="1" style="stop-color:rgb(32.941176%,32.941176%,32.941176%);stop-opacity:1;"/>
</linearGradient>
</defs>
<g id="surface16585">
<path style=" stroke:none;fill-rule:evenodd;fill:rgb(86.27451%,86.27451%,86.27451%);fill-opacity:1;" d="M 0 36 C 0 40 20 48 36 48 L 36 64 C 20 64 8 64 0 52 Z M 0 36 "/>
<path style=" stroke:none;fill-rule:evenodd;fill:url(#linear0);" d="M 28 6.398438 C 32.417969 6.398438 36 5.324219 36 4 C 36 2.675781 32.417969 1.601562 28 1.601562 C 23.582031 1.601562 20 2.675781 20 4 C 20 5.324219 23.582031 6.398438 28 6.398438 Z M 28 6.398438 "/>
<path style=" stroke:none;fill-rule:evenodd;fill:url(#linear1);" d="M 20 4 L 20 60 L 36 60 L 36 4 Z M 20 4 "/>
<path style=" stroke:none;fill-rule:evenodd;fill:rgb(45.098039%,45.098039%,45.098039%);fill-opacity:1;" d="M 28 62.398438 C 32.417969 62.398438 36 61.324219 36 60 C 36 58.675781 32.417969 57.601562 28 57.601562 C 23.582031 57.601562 20 58.675781 20 60 C 20 61.324219 23.582031 62.398438 28 62.398438 Z M 28 62.398438 "/>
<path style=" stroke:none;fill-rule:evenodd;fill:url(#linear2);" d="M 0 36 C 0 12 20 12 40 12 L 40 36 C 20 36 0 36 0 52 Z M 0 36 "/>
<path style=" stroke:none;fill-rule:evenodd;fill:url(#linear3);" d="M 40 0 L 64 24 L 40 48 Z M 40 0 "/>
</g>
</svg>
