<?xml version="1.0" encoding="UTF-8"?>
<svg xmlns="http://www.w3.org/2000/svg" xmlns:xlink="http://www.w3.org/1999/xlink" width="64pt" height="64pt" viewBox="0 0 64 64" version="1.1">
<defs>
<linearGradient id="linear0" gradientUnits="userSpaceOnUse" x1="0" y1="0" x2="64" y2="64" >
<stop offset="0" style="stop-color:rgb(96.078431%,96.078431%,96.078431%);stop-opacity:1;"/>
<stop offset="1" style="stop-color:rgb(67.058824%,67.058824%,67.058824%);stop-opacity:1;"/>
</linearGradient>
<linearGradient id="linear1" gradientUnits="userSpaceOnUse" x1="0" y1="0" x2="64" y2="64" >
<stop offset="0" style="stop-color:rgb(96.078431%,96.078431%,96.078431%);stop-opacity:1;"/>
<stop offset="1" style="stop-color:rgb(47.843137%,47.843137%,47.843137%);stop-opacity:1;"/>
</linearGradient>
</defs>
<g id="surface16617">
<path style="fill:none;stroke-width:12;stroke-linecap:butt;stroke-linejoin:miter;stroke:url(#linear0);stroke-miterlimit:10;" d="M 60 10 L 10 60 "/>
<path style="fill:none;stroke-width:4;stroke-linecap:butt;stroke-linejoin:miter;stroke:url(#linear1);stroke-miterlimit:10;" d="M 56 8 L 8 56 "/>
<path style="fill:none;stroke-width:0.5;stroke-linecap:butt;stroke-linejoin:miter;stroke:rgb(62.352941%,62.352941%,62.352941%);stroke-opacity:1;stroke-miterlimit:10;" d="M 56 6 L 64 14 L 14 64 L 6 56 "/>
<path style="fill:none;stroke-width:0.5;stroke-linecap:butt;stroke-linejoin:miter;stroke:rgb(41.176471%,41.176471%,41.176471%);stroke-opacity:1;stroke-miterlimit:10;" d="M -12.000824 61.401883 L -11.998062 57.399548 M -3.998917 61.399121 L -3.998917 57.399548 M 4.000229 61.399121 L 4.000229 57.399548 M 11.999374 61.399121 L 11.999374 57.399548 M 19.99852 61.399121 L 19.99852 57.399548 M 28.000427 61.401883 L 28.000427 57.40231 M 35.999573 61.401883 L 35.999573 57.40231 M 44.00148 61.399121 L 44.00148 57.399548 M 52.000626 61.399121 L 52.000626 57.399548 " transform="matrix(-0.707107,0.707107,-0.707107,-0.707107,88.568542,59.313708)"/>
</g>
</svg>
