<?xml version="1.0" encoding="UTF-8"?>
<svg xmlns="http://www.w3.org/2000/svg" xmlns:xlink="http://www.w3.org/1999/xlink" width="64pt" height="64pt" viewBox="0 0 64 64" version="1.1">
<g id="surface16781">
<path style="fill:none;stroke-width:4;stroke-linecap:butt;stroke-linejoin:miter;stroke:rgb(82.745098%,82.745098%,82.745098%);stroke-opacity:1;stroke-miterlimit:10;" d="M 28 28 L 44 28 L 44 44 L 28 44 Z M 28 28 "/>
<path style="fill:none;stroke-width:2;stroke-linecap:butt;stroke-linejoin:miter;stroke:rgb(82.745098%,82.745098%,82.745098%);stroke-opacity:1;stroke-miterlimit:10;" d="M 56.324219 27.582031 C 60.65625 38.035156 56.351562 50.070312 46.371094 55.402344 C 36.390625 60.734375 23.992188 57.628906 17.707031 48.222656 C 11.421875 38.8125 13.296875 26.171875 22.042969 18.992188 C 30.789062 11.816406 43.554688 12.441406 51.554688 20.445312 "/>
<path style=" stroke:none;fill-rule:evenodd;fill:rgb(82.745098%,82.745098%,82.745098%);fill-opacity:1;" d="M 55 12 L 55 24 L 43 24 Z M 55 12 "/>
<path style="fill:none;stroke-width:4;stroke-linecap:butt;stroke-linejoin:miter;stroke:rgb(50.196078%,50.196078%,50.196078%);stroke-opacity:1;stroke-miterlimit:10;" d="M 22 22 L 38 22 L 38 38 L 22 38 Z M 22 22 "/>
<path style="fill:none;stroke-width:2;stroke-linecap:butt;stroke-linejoin:miter;stroke:rgb(50.196078%,50.196078%,50.196078%);stroke-opacity:1;stroke-miterlimit:10;" d="M 50.324219 21.582031 C 54.65625 32.035156 50.351562 44.070312 40.371094 49.402344 C 30.390625 54.734375 17.992188 51.628906 11.707031 42.222656 C 5.421875 32.8125 7.296875 20.171875 16.042969 12.992188 C 24.789062 5.816406 37.554688 6.441406 45.554688 14.445312 "/>
<path style=" stroke:none;fill-rule:evenodd;fill:rgb(50.196078%,50.196078%,50.196078%);fill-opacity:1;" d="M 49 6 L 49 18 L 37 18 Z M 49 6 "/>
</g>
</svg>
