<?xml version="1.0" encoding="UTF-8"?>
<svg xmlns="http://www.w3.org/2000/svg" xmlns:xlink="http://www.w3.org/1999/xlink" width="64pt" height="64pt" viewBox="0 0 64 64" version="1.1">
<g id="surface16777">
<path style="fill:none;stroke-width:1;stroke-linecap:butt;stroke-linejoin:miter;stroke:rgb(82.745098%,82.745098%,82.745098%);stroke-opacity:1;stroke-miterlimit:10;" d="M 36 12 L 36 62 " transform="matrix(0.000000000000000061,1,-1,0.000000000000000061,76,0)"/>
<path style="fill:none;stroke-width:2;stroke-linecap:square;stroke-linejoin:miter;stroke:rgb(82.745098%,82.745098%,82.745098%);stroke-opacity:1;stroke-dasharray:0,4;stroke-miterlimit:10;" d="M 28 50 L 28 26 L 16 38 Z M 28 50 " transform="matrix(0.000000000000000061,1,-1,0.000000000000000061,76,0)"/>
<path style="fill:none;stroke-width:4;stroke-linecap:butt;stroke-linejoin:miter;stroke:rgb(82.745098%,82.745098%,82.745098%);stroke-opacity:1;stroke-miterlimit:10;" d="M 44 50 L 44 26 L 56 38 Z M 44 50 " transform="matrix(0.000000000000000061,1,-1,0.000000000000000061,76,0)"/>
<path style=" stroke:none;fill-rule:evenodd;fill:rgb(82.745098%,82.745098%,82.745098%);fill-opacity:1;" d="M 26 52 L 10 52 L 18 60 Z M 26 52 "/>
<path style="fill:none;stroke-width:1;stroke-linecap:butt;stroke-linejoin:miter;stroke:rgb(50.196078%,50.196078%,50.196078%);stroke-opacity:1;stroke-miterlimit:10;" d="M 30 6 L 30 56 " transform="matrix(0.000000000000000061,1,-1,0.000000000000000061,64,0.000000000000000735)"/>
<path style="fill:none;stroke-width:2;stroke-linecap:square;stroke-linejoin:miter;stroke:rgb(50.196078%,50.196078%,50.196078%);stroke-opacity:1;stroke-dasharray:0,4;stroke-miterlimit:10;" d="M 22 44 L 22 20 L 10 32 Z M 22 44 " transform="matrix(0.000000000000000061,1,-1,0.000000000000000061,64,0.000000000000000735)"/>
<path style="fill:none;stroke-width:4;stroke-linecap:butt;stroke-linejoin:miter;stroke:rgb(50.196078%,50.196078%,50.196078%);stroke-opacity:1;stroke-miterlimit:10;" d="M 38 44 L 38 20 L 50 32 Z M 38 44 " transform="matrix(0.000000000000000061,1,-1,0.000000000000000061,64,0.000000000000000735)"/>
<path style=" stroke:none;fill-rule:evenodd;fill:rgb(50.196078%,50.196078%,50.196078%);fill-opacity:1;" d="M 20 46 L 4 46 L 12 54 Z M 20 46 "/>
</g>
</svg>
