<?xml version="1.0" encoding="UTF-8"?>
<svg xmlns="http://www.w3.org/2000/svg" xmlns:xlink="http://www.w3.org/1999/xlink" width="64pt" height="64pt" viewBox="0 0 64 64" version="1.1">
<defs>
<linearGradient id="linear0" gradientUnits="userSpaceOnUse" x1="0" y1="4" x2="0" y2="60" >
<stop offset="0" style="stop-color:rgb(96.078431%,96.078431%,96.078431%);stop-opacity:1;"/>
<stop offset="1" style="stop-color:rgb(81.568627%,81.568627%,81.568627%);stop-opacity:1;"/>
</linearGradient>
<linearGradient id="linear1" gradientUnits="userSpaceOnUse" x1="8" y1="4" x2="56" y2="60" >
<stop offset="0" style="stop-color:rgb(75.294118%,75.294118%,75.294118%);stop-opacity:1;"/>
<stop offset="1" style="stop-color:rgb(30.196078%,30.196078%,30.196078%);stop-opacity:1;"/>
</linearGradient>
<linearGradient id="linear2" gradientUnits="userSpaceOnUse" x1="8" y1="4" x2="56" y2="60" >
<stop offset="0" style="stop-color:rgb(75.294118%,75.294118%,75.294118%);stop-opacity:1;"/>
<stop offset="1" style="stop-color:rgb(30.196078%,30.196078%,30.196078%);stop-opacity:1;"/>
</linearGradient>
<linearGradient id="linear3" gradientUnits="userSpaceOnUse" x1="12" y1="22" x2="52" y2="54" >
<stop offset="0" style="stop-color:rgb(75.294118%,75.294118%,75.294118%);stop-opacity:1;"/>
<stop offset="1" style="stop-color:rgb(37.647059%,37.647059%,37.647059%);stop-opacity:1;"/>
</linearGradient>
<linearGradient id="linear4" gradientUnits="userSpaceOnUse" x1="14" y1="27" x2="26" y2="50" >
<stop offset="0" style="stop-color:rgb(96.078431%,96.078431%,96.078431%);stop-opacity:1;"/>
<stop offset="1" style="stop-color:rgb(67.058824%,67.058824%,67.058824%);stop-opacity:1;"/>
</linearGradient>
<linearGradient id="linear5" gradientUnits="userSpaceOnUse" x1="30" y1="26" x2="50" y2="52" >
<stop offset="0" style="stop-color:rgb(96.078431%,96.078431%,96.078431%);stop-opacity:1;"/>
<stop offset="1" style="stop-color:rgb(67.058824%,67.058824%,67.058824%);stop-opacity:1;"/>
</linearGradient>
<linearGradient id="linear6" gradientUnits="userSpaceOnUse" x1="30" y1="26" x2="50" y2="52" >
<stop offset="0" style="stop-color:rgb(96.078431%,96.078431%,96.078431%);stop-opacity:1;"/>
<stop offset="1" style="stop-color:rgb(67.058824%,67.058824%,67.058824%);stop-opacity:1;"/>
</linearGradient>
</defs>
<g id="surface16953">
<path style=" stroke:none;fill-rule:evenodd;fill:rgb(72.156863%,72.156863%,72.156863%);fill-opacity:1;" d="M 35 7 L 47 7 L 59 19 L 59 57 C 59 60.3125 56.3125 63 53 63 L 17 63 C 13.6875 63 11 60.3125 11 57 L 11 13 C 11 9.6875 13.6875 7 17 7 Z M 35 7 "/>
<path style="fill-rule:evenodd;fill:url(#linear0);stroke-width:2;stroke-linecap:butt;stroke-linejoin:bevel;stroke:url(#linear1);stroke-miterlimit:10;" d="M 32 4 L 44 4 L 56 16 L 56 56 C 56 58.210938 54.210938 60 52 60 L 12 60 C 9.789062 60 8 58.210938 8 56 L 8 8 C 8 5.789062 9.789062 4 12 4 Z M 32 4 "/>
<path style="fill:none;stroke-width:2;stroke-linecap:butt;stroke-linejoin:bevel;stroke:url(#linear2);stroke-miterlimit:10;" d="M 44 4 L 44 16 L 56 16 "/>
<path style=" stroke:none;fill-rule:evenodd;fill:url(#linear3);" d="M 12 22 L 52 22 L 52 54 L 12 54 Z M 12 22 "/>
<path style="fill:none;stroke-width:4;stroke-linecap:butt;stroke-linejoin:miter;stroke:rgb(52.54902%,52.54902%,52.54902%);stroke-opacity:1;stroke-miterlimit:10;" d="M 16 18 L 26 18 "/>
<path style="fill:none;stroke-width:4;stroke-linecap:butt;stroke-linejoin:miter;stroke:url(#linear4);stroke-miterlimit:10;" d="M 16 28 L 26 28 M 16 38 L 26 38 M 16 48 L 26 48 "/>
<path style=" stroke:none;fill-rule:evenodd;fill:url(#linear5);" d="M 30 38 L 40 52 L 50 38 Z M 30 38 "/>
<path style="fill:none;stroke-width:8;stroke-linecap:butt;stroke-linejoin:miter;stroke:url(#linear6);stroke-miterlimit:10;" d="M 40 26 L 40 38 "/>
</g>
</svg>
