<?xml version="1.0" encoding="UTF-8"?>
<svg xmlns="http://www.w3.org/2000/svg" xmlns:xlink="http://www.w3.org/1999/xlink" width="64pt" height="64pt" viewBox="0 0 64 64" version="1.1">
<defs>
<linearGradient id="linear0" gradientUnits="userSpaceOnUse" x1="16" y1="0" x2="29" y2="0" gradientTransform="matrix(0.000000000000000061,1,-1,0.000000000000000061,64,-4)">
<stop offset="0" style="stop-color:rgb(41.176471%,41.176471%,41.176471%);stop-opacity:1;"/>
<stop offset="0.5" style="stop-color:rgb(75.294118%,75.294118%,75.294118%);stop-opacity:1;"/>
<stop offset="1" style="stop-color:rgb(41.176471%,41.176471%,41.176471%);stop-opacity:1;"/>
</linearGradient>
<linearGradient id="linear1" gradientUnits="userSpaceOnUse" x1="16" y1="0" x2="29" y2="0" gradientTransform="matrix(0.000000000000000061,1,-1,0.000000000000000061,64,-4)">
<stop offset="0" style="stop-color:rgb(41.176471%,41.176471%,41.176471%);stop-opacity:1;"/>
<stop offset="0.5" style="stop-color:rgb(75.294118%,75.294118%,75.294118%);stop-opacity:1;"/>
<stop offset="1" style="stop-color:rgb(41.176471%,41.176471%,41.176471%);stop-opacity:1;"/>
</linearGradient>
<linearGradient id="linear2" gradientUnits="userSpaceOnUse" x1="32" y1="0" x2="45" y2="0" gradientTransform="matrix(0.000000000000000061,1,-1,0.000000000000000061,64,-4)">
<stop offset="0" style="stop-color:rgb(41.176471%,41.176471%,41.176471%);stop-opacity:1;"/>
<stop offset="0.5" style="stop-color:rgb(75.294118%,75.294118%,75.294118%);stop-opacity:1;"/>
<stop offset="1" style="stop-color:rgb(41.176471%,41.176471%,41.176471%);stop-opacity:1;"/>
</linearGradient>
<linearGradient id="linear3" gradientUnits="userSpaceOnUse" x1="32" y1="0" x2="45" y2="0" gradientTransform="matrix(0.000000000000000061,1,-1,0.000000000000000061,64,-4)">
<stop offset="0" style="stop-color:rgb(41.176471%,41.176471%,41.176471%);stop-opacity:1;"/>
<stop offset="0.5" style="stop-color:rgb(75.294118%,75.294118%,75.294118%);stop-opacity:1;"/>
<stop offset="1" style="stop-color:rgb(41.176471%,41.176471%,41.176471%);stop-opacity:1;"/>
</linearGradient>
<linearGradient id="linear4" gradientUnits="userSpaceOnUse" x1="32" y1="0" x2="45" y2="0" gradientTransform="matrix(0.000000000000000061,1,-1,0.000000000000000061,64,-4)">
<stop offset="0" style="stop-color:rgb(41.176471%,41.176471%,41.176471%);stop-opacity:1;"/>
<stop offset="0.5" style="stop-color:rgb(75.294118%,75.294118%,75.294118%);stop-opacity:1;"/>
<stop offset="1" style="stop-color:rgb(41.176471%,41.176471%,41.176471%);stop-opacity:1;"/>
</linearGradient>
<linearGradient id="linear5" gradientUnits="userSpaceOnUse" x1="48" y1="0" x2="61" y2="0" gradientTransform="matrix(0.000000000000000061,1,-1,0.000000000000000061,64,-4)">
<stop offset="0" style="stop-color:rgb(41.176471%,41.176471%,41.176471%);stop-opacity:1;"/>
<stop offset="0.5" style="stop-color:rgb(75.294118%,75.294118%,75.294118%);stop-opacity:1;"/>
<stop offset="1" style="stop-color:rgb(41.176471%,41.176471%,41.176471%);stop-opacity:1;"/>
</linearGradient>
<linearGradient id="linear6" gradientUnits="userSpaceOnUse" x1="48" y1="0" x2="61" y2="0" gradientTransform="matrix(0.000000000000000061,1,-1,0.000000000000000061,64,-4)">
<stop offset="0" style="stop-color:rgb(41.176471%,41.176471%,41.176471%);stop-opacity:1;"/>
<stop offset="0.5" style="stop-color:rgb(75.294118%,75.294118%,75.294118%);stop-opacity:1;"/>
<stop offset="1" style="stop-color:rgb(41.176471%,41.176471%,41.176471%);stop-opacity:1;"/>
</linearGradient>
</defs>
<g id="surface15957">
<path style="fill:none;stroke-width:1;stroke-linecap:butt;stroke-linejoin:miter;stroke:rgb(41.176471%,41.176471%,41.176471%);stroke-opacity:1;stroke-miterlimit:10;" d="M 0 0 L 0 64 M 0 0 L 4 0 M 0 16 L 4 16 M 0 32 L 4 32 M 0 48 L 4 48 M 0 64 L 4 64 "/>
<path style="fill:none;stroke-width:1;stroke-linecap:butt;stroke-linejoin:miter;stroke:rgb(41.176471%,41.176471%,41.176471%);stroke-opacity:1;stroke-miterlimit:10;" d="M 0 -0.000000000000007105 L -0.000000000000014211 64 M 0 -0.000000000000007105 L 4 -0.000000000000006371 M 0 16 L 4 16 M 0 32 L 4 32 M -0.000000000000014211 48 L 4 48 M -0.000000000000014211 64 L 4 64 " transform="matrix(-0.000000000000000184,-1,1,-0.000000000000000184,0.000000000000007105,64)"/>
<path style=" stroke:none;fill-rule:evenodd;fill:url(#linear0);" d="M 32 12 L 32 22 L 6 22 L 6 12 Z M 32 12 "/>
<path style=" stroke:none;fill-rule:evenodd;fill:url(#linear1);" d="M 48 12 L 48 22 L 33 22 L 33 12 Z M 48 12 "/>
<path style=" stroke:none;fill-rule:evenodd;fill:url(#linear2);" d="M 24 28 L 24 38 L 6 38 L 6 28 Z M 24 28 "/>
<path style=" stroke:none;fill-rule:evenodd;fill:url(#linear3);" d="M 40 28 L 40 38 L 25 38 L 25 28 Z M 40 28 "/>
<path style=" stroke:none;fill-rule:evenodd;fill:url(#linear4);" d="M 56 28 L 56 38 L 41 38 L 41 28 Z M 56 28 "/>
<path style=" stroke:none;fill-rule:evenodd;fill:url(#linear5);" d="M 16 44 L 16 54 L 6 54 L 6 44 Z M 16 44 "/>
<path style=" stroke:none;fill-rule:evenodd;fill:url(#linear6);" d="M 40 44 L 40 54 L 17 54 L 17 44 Z M 40 44 "/>
</g>
</svg>
