<?xml version="1.0" encoding="UTF-8"?>
<svg xmlns="http://www.w3.org/2000/svg" xmlns:xlink="http://www.w3.org/1999/xlink" width="64pt" height="64pt" viewBox="0 0 64 64" version="1.1">
<g id="surface15105">
<path style=" stroke:none;fill-rule:evenodd;fill:rgb(100%,100%,100%);fill-opacity:1;" d="M 1 0 L 64 0 L 64 63 L 1 63 Z M 1 0 "/>
<path style="fill:none;stroke-width:1;stroke-linecap:butt;stroke-linejoin:miter;stroke:rgb(0%,0%,0%);stroke-opacity:1;stroke-miterlimit:10;" d="M 0 0 L 0 64 M 0 0 L 4 0 M 0 16 L 4 16 M 0 32 L 4 32 M 0 48 L 4 48 M 0 64 L 4 64 "/>
<path style="fill:none;stroke-width:1;stroke-linecap:butt;stroke-linejoin:miter;stroke:rgb(0%,0%,0%);stroke-opacity:1;stroke-miterlimit:10;" d="M 0 -0.000000000000007105 L -0.000000000000014211 64 M 0 -0.000000000000007105 L 4 -0.000000000000006371 M 0 16 L 4 16 M 0 32 L 4 32 M -0.000000000000014211 48 L 4 48 M -0.000000000000014211 64 L 4 64 " transform="matrix(-0.000000000000000184,-1,1,-0.000000000000000184,0.000000000000007105,64)"/>
<path style=" stroke:none;fill-rule:evenodd;fill:rgb(25.490196%,41.176471%,88.235294%);fill-opacity:1;" d="M 32 12 L 32 22 L 8 22 L 8 12 Z M 32 12 "/>
<path style=" stroke:none;fill-rule:evenodd;fill:rgb(19.607843%,80.392157%,19.607843%);fill-opacity:1;" d="M 48 12 L 48 22 L 33 22 L 33 12 Z M 48 12 "/>
<path style="fill:none;stroke-width:0.5;stroke-linecap:butt;stroke-linejoin:miter;stroke:rgb(25.490196%,41.176471%,88.235294%);stroke-opacity:1;stroke-miterlimit:10;" d="M 16 16 L 26 16 L 26 56 L 16 56 Z M 16 16 " transform="matrix(0.000000000000000061,1,-1,0.000000000000000061,64,-4)"/>
<path style=" stroke:none;fill-rule:evenodd;fill:rgb(25.490196%,41.176471%,88.235294%);fill-opacity:1;" d="M 24 28 L 24 38 L 8 38 L 8 28 Z M 24 28 "/>
<path style=" stroke:none;fill-rule:evenodd;fill:rgb(19.607843%,80.392157%,19.607843%);fill-opacity:1;" d="M 40 28 L 40 38 L 25 38 L 25 28 Z M 40 28 "/>
<path style=" stroke:none;fill-rule:evenodd;fill:rgb(100%,54.901961%,0%);fill-opacity:1;" d="M 56 28 L 56 38 L 41 38 L 41 28 Z M 56 28 "/>
<path style="fill:none;stroke-width:0.5;stroke-linecap:butt;stroke-linejoin:miter;stroke:rgb(25.490196%,41.176471%,88.235294%);stroke-opacity:1;stroke-miterlimit:10;" d="M 32 8 L 42 8 L 42 56 L 32 56 Z M 32 8 " transform="matrix(0.000000000000000061,1,-1,0.000000000000000061,64,-4)"/>
<path style=" stroke:none;fill-rule:evenodd;fill:rgb(25.490196%,41.176471%,88.235294%);fill-opacity:1;" d="M 16 44 L 16 54 L 8 54 L 8 44 Z M 16 44 "/>
<path style=" stroke:none;fill-rule:evenodd;fill:rgb(100%,54.901961%,0%);fill-opacity:1;" d="M 40 44 L 40 54 L 17 54 L 17 44 Z M 40 44 "/>
<path style="fill:none;stroke-width:0.5;stroke-linecap:butt;stroke-linejoin:miter;stroke:rgb(25.490196%,41.176471%,88.235294%);stroke-opacity:1;stroke-miterlimit:10;" d="M 48 24 L 58 24 L 58 56 L 48 56 Z M 48 24 " transform="matrix(0.000000000000000061,1,-1,0.000000000000000061,64,-4)"/>
</g>
</svg>
