<?xml version="1.0" encoding="UTF-8"?>
<svg xmlns="http://www.w3.org/2000/svg" xmlns:xlink="http://www.w3.org/1999/xlink" width="64pt" height="64pt" viewBox="0 0 64 64" version="1.1">
<g id="surface15681">
<path style=" stroke:none;fill-rule:evenodd;fill:rgb(75.294118%,75.294118%,75.294118%);fill-opacity:1;" d="M 51.800781 44.34375 C 45.550781 50.589844 37.320312 52.492188 33.414062 48.585938 C 29.507812 44.679688 31.410156 36.449219 37.65625 30.199219 C 43.90625 23.953125 52.136719 22.054688 56.042969 25.957031 C 59.945312 29.863281 58.046875 38.09375 51.800781 44.34375 Z M 51.800781 44.34375 "/>
<path style="fill:none;stroke-width:2;stroke-linecap:butt;stroke-linejoin:miter;stroke:rgb(96.078431%,96.078431%,96.078431%);stroke-opacity:1;stroke-miterlimit:10;" d="M 37.999359 32.001923 C 37.999359 38.625525 35.314563 44.000641 32 44.000641 C 28.685437 44.000641 26.000641 38.625525 26.000641 32.001923 C 26.000641 25.372797 28.688199 20.000442 32 19.99768 C 35.311801 20.000442 37.999359 25.372797 37.999359 32.001923 Z M 37.999359 32.001923 " transform="matrix(0.707107,0.707107,-0.707107,0.707107,44.727922,-7.982756)"/>
<path style=" stroke:none;fill-rule:evenodd;fill:rgb(75.294118%,75.294118%,75.294118%);fill-opacity:1;" d="M 26.34375 30.199219 C 32.589844 36.449219 34.492188 44.679688 30.585938 48.585938 C 26.679688 52.492188 18.449219 50.589844 12.199219 44.34375 C 5.953125 38.09375 4.054688 29.863281 7.957031 25.957031 C 11.863281 22.054688 20.09375 23.953125 26.34375 30.199219 Z M 26.34375 30.199219 "/>
<path style="fill:none;stroke-width:2;stroke-linecap:butt;stroke-linejoin:miter;stroke:rgb(96.078431%,96.078431%,96.078431%);stroke-opacity:1;stroke-miterlimit:10;" d="M 37.999359 32.001923 C 37.999359 38.625525 35.314563 44.000641 32 44.000641 C 28.685437 44.000641 26.000641 38.625525 26.000641 32.001923 C 26.000641 25.372797 28.688199 20.000442 32 19.99768 C 35.311801 20.000442 37.999359 25.372797 37.999359 32.001923 Z M 37.999359 32.001923 " transform="matrix(0.707107,-0.707107,0.707107,0.707107,-25.982756,37.272078)"/>
<path style="fill-rule:evenodd;fill:rgb(75.294118%,75.294118%,75.294118%);fill-opacity:1;stroke-width:2;stroke-linecap:butt;stroke-linejoin:miter;stroke:rgb(75.294118%,75.294118%,75.294118%);stroke-opacity:1;stroke-miterlimit:10;" d="M 12 44 L 52 44 L 52 60 L 12 60 Z M 12 44 "/>
<path style="fill:none;stroke-width:2;stroke-linecap:butt;stroke-linejoin:miter;stroke:rgb(96.078431%,96.078431%,96.078431%);stroke-opacity:1;stroke-miterlimit:10;" d="M 16 50 L 24 50 M 20 46 L 20 54 "/>
<path style="fill:none;stroke-width:2;stroke-linecap:butt;stroke-linejoin:miter;stroke:rgb(96.078431%,96.078431%,96.078431%);stroke-opacity:1;stroke-miterlimit:10;" d="M 28 50 L 36 50 M 32 46 L 32 54 "/>
<path style="fill:none;stroke-width:2;stroke-linecap:butt;stroke-linejoin:miter;stroke:rgb(96.078431%,96.078431%,96.078431%);stroke-opacity:1;stroke-miterlimit:10;" d="M 40 50 L 48 50 M 44 46 L 44 54 "/>
<path style="fill:none;stroke-width:2;stroke-linecap:butt;stroke-linejoin:miter;stroke:rgb(96.078431%,96.078431%,96.078431%);stroke-opacity:1;stroke-miterlimit:10;" d="M 14 57 L 50 57 "/>
<path style=" stroke:none;fill-rule:evenodd;fill:rgb(75.294118%,75.294118%,75.294118%);fill-opacity:1;" d="M 41.5 23 C 41.5 28.246094 37.246094 32.5 32 32.5 C 26.753906 32.5 22.5 28.246094 22.5 23 C 22.5 17.753906 26.753906 13.5 32 13.5 C 37.246094 13.5 41.5 17.753906 41.5 23 Z M 41.5 23 "/>
<path style="fill:none;stroke-width:1;stroke-linecap:butt;stroke-linejoin:miter;stroke:rgb(96.078431%,96.078431%,96.078431%);stroke-opacity:1;stroke-miterlimit:10;" d="M 37 23 C 37 29.667969 27 29.667969 27 23 C 27 16.332031 37 16.332031 37 23 Z M 37 23 "/>
<path style="fill:none;stroke-width:3;stroke-linecap:butt;stroke-linejoin:miter;stroke:rgb(75.294118%,75.294118%,75.294118%);stroke-opacity:1;stroke-miterlimit:10;" d="M 27 10 L 37 10 M 32 5 L 32 15 "/>
</g>
</svg>
