<?xml version="1.0" encoding="UTF-8"?>
<svg xmlns="http://www.w3.org/2000/svg" xmlns:xlink="http://www.w3.org/1999/xlink" width="64pt" height="64pt" viewBox="0 0 64 64" version="1.1">
<g id="surface14905">
<path style="fill-rule:evenodd;fill:rgb(94.117647%,97.254902%,100%);fill-opacity:1;stroke-width:2;stroke-linecap:round;stroke-linejoin:miter;stroke:rgb(94.117647%,97.254902%,100%);stroke-opacity:1;stroke-miterlimit:10;" d="M 56 48 L 8 48 M 7.480469 47.46875 C 2.410156 41.839844 2.652344 33.21875 8.035156 27.882812 L 8.414062 27.386719 C 7.375 23.207031 8.316406 18.777344 10.96875 15.378906 C 13.621094 11.984375 17.691406 10 22 10 L 22.238281 10.007812 C 25.304688 3.988281 32.421875 1.253906 38.730469 3.675781 C 45.039062 6.097656 48.5 12.890625 46.75 19.417969 L 46.917969 19.957031 C 52.929688 21.015625 57.898438 25.257812 59.882812 31.03125 C 61.871094 36.804688 60.570312 43.203125 56.484375 47.742188 Z M 7.480469 47.46875 "/>
<path style="fill:none;stroke-width:2;stroke-linecap:butt;stroke-linejoin:miter;stroke:rgb(0%,0%,100%);stroke-opacity:1;stroke-miterlimit:10;" d="M 12 26 L 12 38 M 26 32 C 26 38.667969 18 38.667969 18 32 C 18 25.332031 26 25.332031 26 32 Z M 32 26 L 32 38 M 46 32 C 46 38.667969 38 38.667969 38 32 C 38 25.332031 46 25.332031 46 32 Z M 52 26 L 52 38 "/>
</g>
</svg>
