<?xml version="1.0" encoding="UTF-8"?>
<svg xmlns="http://www.w3.org/2000/svg" xmlns:xlink="http://www.w3.org/1999/xlink" width="64pt" height="64pt" viewBox="0 0 64 64" version="1.1">
<g id="surface14761">
<path style=" stroke:none;fill-rule:evenodd;fill:rgb(100%,27.058824%,0%);fill-opacity:1;" d="M 58 52 C 58 58.667969 48 58.667969 48 52 "/>
<path style=" stroke:none;fill-rule:evenodd;fill:rgb(100%,27.058824%,0%);fill-opacity:1;" d="M 51.019531 46 C 51.019531 43.359375 54.980469 43.359375 54.980469 46 "/>
<path style=" stroke:none;fill-rule:evenodd;fill:rgb(100%,27.058824%,0%);fill-opacity:1;" d="M 51 46 L 48 52 L 58 52 L 55 46 Z M 51 46 "/>
<path style="fill:none;stroke-width:2;stroke-linecap:butt;stroke-linejoin:miter;stroke:rgb(100%,27.058824%,0%);stroke-opacity:1;stroke-miterlimit:10;" d="M 53.597656 37.5 C 54.425781 38.933594 53.933594 40.769531 52.5 41.597656 "/>
<path style=" stroke:none;fill-rule:evenodd;fill:rgb(0%,0%,0%);fill-opacity:1;" d="M 41.191406 45.433594 L 33.414062 53.210938 C 31.851562 54.773438 29.320312 54.773438 27.757812 53.210938 L 10.789062 36.242188 C 9.226562 34.679688 9.226562 32.148438 10.785156 30.585938 L 26.34375 15.027344 C 27.90625 13.46875 30.4375 13.46875 32 15.03125 L 48.96875 32 C 50.53125 33.5625 50.53125 36.09375 48.96875 37.65625 Z M 41.191406 45.433594 "/>
<path style="fill:none;stroke-width:6;stroke-linecap:butt;stroke-linejoin:round;stroke:rgb(0%,0%,0%);stroke-opacity:1;stroke-miterlimit:10;" d="M 39.999145 23.000961 L 50.000839 22.998199 L 39.999145 30.000214 Z M 39.999145 23.000961 " transform="matrix(0.707107,0.707107,-0.707107,0.707107,32,-13.254834)"/>
<path style="fill:none;stroke-width:2;stroke-linecap:butt;stroke-linejoin:miter;stroke:rgb(0%,0%,0%);stroke-opacity:1;stroke-miterlimit:10;" d="M 30 16 C 30 22.628906 27.3125 28 24 28 C 20.6875 28 18 22.628906 18 16 C 18 9.371094 20.6875 4 24 4 C 27.3125 4 30 9.371094 30 16 Z M 30 16 "/>
</g>
</svg>
