<?xml version="1.0" encoding="UTF-8"?>
<svg xmlns="http://www.w3.org/2000/svg" xmlns:xlink="http://www.w3.org/1999/xlink" width="64pt" height="64pt" viewBox="0 0 64 64" version="1.1">
<g id="surface14861">
<path style="fill:none;stroke-width:4;stroke-linecap:butt;stroke-linejoin:miter;stroke:rgb(0%,39.215686%,0%);stroke-opacity:1;stroke-miterlimit:10;" d="M 28 32 L 34 62 "/>
<path style=" stroke:none;fill-rule:evenodd;fill:rgb(19.607843%,80.392157%,19.607843%);fill-opacity:1;" d="M 47.292969 23.507812 C 43.152344 30.683594 36.304688 34.484375 32 32 C 27.695312 29.515625 27.5625 21.683594 31.707031 14.507812 C 35.847656 7.335938 42.695312 3.535156 47 6.019531 C 51.304688 8.503906 51.4375 16.335938 47.292969 23.507812 Z M 47.292969 23.507812 "/>
<path style=" stroke:none;fill-rule:evenodd;fill:rgb(19.607843%,80.392157%,19.607843%);fill-opacity:1;" d="M 49.492188 32.292969 C 42.316406 36.4375 34.484375 36.304688 32 32 C 29.515625 27.695312 33.316406 20.847656 40.492188 16.707031 C 47.664062 12.5625 55.496094 12.695312 57.980469 17 C 60.464844 21.304688 56.664062 28.152344 49.492188 32.292969 Z M 49.492188 32.292969 "/>
<path style=" stroke:none;fill-rule:evenodd;fill:rgb(19.607843%,80.392157%,19.607843%);fill-opacity:1;" d="M 40.492188 47.292969 C 33.316406 43.152344 29.515625 36.304688 32 32 C 34.484375 27.695312 42.316406 27.5625 49.492188 31.707031 C 56.664062 35.847656 60.464844 42.695312 57.980469 47 C 55.496094 51.304688 47.664062 51.4375 40.492188 47.292969 Z M 40.492188 47.292969 "/>
<path style=" stroke:none;fill-rule:evenodd;fill:rgb(19.607843%,80.392157%,19.607843%);fill-opacity:1;" d="M 31.707031 49.492188 C 27.5625 42.316406 27.695312 34.484375 32 32 C 36.304688 29.515625 43.152344 33.316406 47.292969 40.492188 C 51.4375 47.664062 51.304688 55.496094 47 57.980469 C 42.695312 60.464844 35.847656 56.664062 31.707031 49.492188 Z M 31.707031 49.492188 "/>
<path style=" stroke:none;fill-rule:evenodd;fill:rgb(19.607843%,80.392157%,19.607843%);fill-opacity:1;" d="M 16.707031 40.492188 C 20.847656 33.316406 27.695312 29.515625 32 32 C 36.304688 34.484375 36.4375 42.316406 32.292969 49.492188 C 28.152344 56.664062 21.304688 60.464844 17 57.980469 C 12.695312 55.496094 12.5625 47.664062 16.707031 40.492188 Z M 16.707031 40.492188 "/>
<path style=" stroke:none;fill-rule:evenodd;fill:rgb(19.607843%,80.392157%,19.607843%);fill-opacity:1;" d="M 14.507812 31.707031 C 21.683594 27.5625 29.515625 27.695312 32 32 C 34.484375 36.304688 30.683594 43.152344 23.507812 47.292969 C 16.335938 51.4375 8.503906 51.304688 6.019531 47 C 3.535156 42.695312 7.335938 35.847656 14.507812 31.707031 Z M 14.507812 31.707031 "/>
<path style=" stroke:none;fill-rule:evenodd;fill:rgb(19.607843%,80.392157%,19.607843%);fill-opacity:1;" d="M 23.507812 16.707031 C 30.683594 20.847656 34.484375 27.695312 32 32 C 29.515625 36.304688 21.683594 36.4375 14.507812 32.292969 C 7.335938 28.152344 3.535156 21.304688 6.019531 17 C 8.503906 12.695312 16.335938 12.5625 23.507812 16.707031 Z M 23.507812 16.707031 "/>
<path style=" stroke:none;fill-rule:evenodd;fill:rgb(19.607843%,80.392157%,19.607843%);fill-opacity:1;" d="M 32.292969 14.507812 C 36.4375 21.683594 36.304688 29.515625 32 32 C 27.695312 34.484375 20.847656 30.683594 16.707031 23.507812 C 12.5625 16.335938 12.695312 8.503906 17 6.019531 C 21.304688 3.535156 28.152344 7.335938 32.292969 14.507812 Z M 32.292969 14.507812 "/>
</g>
</svg>
