<?xml version="1.0" encoding="UTF-8"?>
<svg xmlns="http://www.w3.org/2000/svg" xmlns:xlink="http://www.w3.org/1999/xlink" width="64pt" height="64pt" viewBox="0 0 64 64" version="1.1">
<g id="surface15637">
<path style="fill:none;stroke-width:4;stroke-linecap:butt;stroke-linejoin:miter;stroke:rgb(75.294118%,75.294118%,75.294118%);stroke-opacity:1;stroke-miterlimit:10;" d="M 2 24 L 2 62 L 62 62 L 62 24 "/>
<path style=" stroke:none;fill-rule:evenodd;fill:rgb(75.294118%,75.294118%,75.294118%);fill-opacity:1;" d="M 7 16 L 17 16 L 17 59.800781 L 7 59.800781 Z M 7 16 "/>
<path style=" stroke:none;fill-rule:evenodd;fill:rgb(75.294118%,75.294118%,75.294118%);fill-opacity:1;" d="M 20 14 L 30 14 L 30 59.800781 L 20 59.800781 Z M 20 14 "/>
<path style=" stroke:none;fill-rule:evenodd;fill:rgb(75.294118%,75.294118%,75.294118%);fill-opacity:1;" d="M 30.0625 16.042969 L 39.234375 12.054688 L 58.375 56.074219 L 49.203125 60.0625 Z M 30.0625 16.042969 "/>
<path style="fill:none;stroke-width:0.5;stroke-linecap:butt;stroke-linejoin:miter;stroke:rgb(75.294118%,75.294118%,75.294118%);stroke-opacity:1;stroke-miterlimit:10;" d="M 16.785243 5.763316 L -0.680278 45.931264 M 24.121724 8.953308 L 6.656203 49.121256 M 29.504522 9.112934 L 11.241503 51.115001 M 36.841003 12.302926 L 18.577984 54.304994 M 38.001456 14.60077 L 37.999792 62.400555 M 46.001522 14.599257 L 45.999858 62.399042 " transform="matrix(0.91706,-0.398749,0.398749,0.91706,-9.691193,17.407793)"/>
<path style="fill:none;stroke-width:2;stroke-linecap:butt;stroke-linejoin:miter;stroke:rgb(96.078431%,96.078431%,96.078431%);stroke-opacity:1;stroke-miterlimit:10;" d="M 17.263491 14.694793 L 12.478502 25.699514 M 29.185272 19.878531 L 24.400283 30.883251 M 42.000008 23.998035 L 41.998928 36.000937 " transform="matrix(0.91706,-0.398749,0.398749,0.91706,-9.691193,17.407793)"/>
</g>
</svg>
