<?xml version="1.0" encoding="UTF-8"?>
<svg xmlns="http://www.w3.org/2000/svg" xmlns:xlink="http://www.w3.org/1999/xlink" width="64pt" height="64pt" viewBox="0 0 64 64" version="1.1">
<g id="surface15741">
<path style="fill:none;stroke-width:1;stroke-linecap:round;stroke-linejoin:round;stroke:rgb(75.294118%,75.294118%,75.294118%);stroke-opacity:1;stroke-miterlimit:10;" d="M 3.949219 13 L 3.949219 3 L 12.050781 13 L 12.050781 3 "/>
<path style="fill:none;stroke-width:1;stroke-linecap:round;stroke-linejoin:round;stroke:rgb(75.294118%,75.294118%,75.294118%);stroke-opacity:1;stroke-miterlimit:10;" d="M 19.769531 5.960938 C 21.207031 2.011719 26.792969 2.011719 28.230469 5.960938 M 28.230469 10.039062 C 26.792969 13.988281 21.207031 13.988281 19.769531 10.039062 M 19.726562 6.183594 L 19.726562 9.816406 M 28.273438 6.183594 L 28.273438 9.816406 "/>
<path style="fill:none;stroke-width:1;stroke-linecap:round;stroke-linejoin:round;stroke:rgb(75.294118%,75.294118%,75.294118%);stroke-opacity:1;stroke-miterlimit:10;" d="M 40.949219 3 L 35.949219 3 L 35.949219 13 M 40.949219 8 L 35.949219 8 M 40.949219 3 C 44.285156 3 44.285156 8 40.949219 8 "/>
<path style="fill:none;stroke-width:1;stroke-linecap:round;stroke-linejoin:round;stroke:rgb(75.294118%,75.294118%,75.294118%);stroke-opacity:1;stroke-miterlimit:10;" d="M 51.769531 5.960938 C 53.207031 2.011719 58.792969 2.011719 60.230469 5.960938 M 60.230469 10.039062 C 58.792969 13.988281 53.207031 13.988281 51.769531 10.039062 M 51.726562 6.183594 L 51.726562 9.816406 M 60.273438 6.183594 L 60.273438 9.816406 M 57.125 9.25 L 60.949219 13.5 "/>
<path style="fill:none;stroke-width:1;stroke-linecap:round;stroke-linejoin:round;stroke:rgb(75.294118%,75.294118%,75.294118%);stroke-opacity:1;stroke-miterlimit:10;" d="M 8.949219 19 L 3.949219 19 L 3.949219 29 M 8.949219 24 L 3.949219 24 M 8.949219 19 C 12.285156 19 12.285156 24 8.949219 24 M 8.273438 24 L 10.835938 29 "/>
<path style="fill:none;stroke-width:1;stroke-linecap:round;stroke-linejoin:round;stroke:rgb(75.294118%,75.294118%,75.294118%);stroke-opacity:1;stroke-miterlimit:10;" d="M 21.675781 19.425781 C 23.796875 18.203125 26.492188 18.675781 28.070312 20.554688 M 21.730469 19.386719 C 19.46875 20.210938 19.90625 23.53125 22.304688 23.742188 L 26 24.75 M 26.195312 24.757812 C 28.59375 24.96875 29.03125 28.289062 26.769531 29.113281 M 26.824219 29.074219 C 24.703125 30.296875 22.007812 29.824219 20.429688 27.945312 "/>
<path style="fill:none;stroke-width:1;stroke-linecap:round;stroke-linejoin:round;stroke:rgb(75.294118%,75.294118%,75.294118%);stroke-opacity:1;stroke-miterlimit:10;" d="M 35.949219 19 L 44.050781 19 M 40 19 L 40 29 "/>
<path style="fill:none;stroke-width:1;stroke-linecap:round;stroke-linejoin:round;stroke:rgb(75.294118%,75.294118%,75.294118%);stroke-opacity:1;stroke-miterlimit:10;" d="M 59.804688 26.335938 C 58.511719 29.886719 53.488281 29.886719 52.195312 26.335938 M 52.152344 19 L 52.152344 26.175781 M 59.847656 19 L 59.847656 26.175781 "/>
<path style="fill:none;stroke-width:1;stroke-linecap:round;stroke-linejoin:round;stroke:rgb(75.294118%,75.294118%,75.294118%);stroke-opacity:1;stroke-miterlimit:10;" d="M 3.5 35 L 8 45 L 12.5 35 "/>
<path style="fill:none;stroke-width:1;stroke-linecap:round;stroke-linejoin:round;stroke:rgb(75.294118%,75.294118%,75.294118%);stroke-opacity:1;stroke-miterlimit:10;" d="M 16.5 35 L 20.25 45 L 24 37.5 L 27.75 45 L 31.5 35 "/>
<path style="fill:none;stroke-width:1;stroke-linecap:round;stroke-linejoin:round;stroke:rgb(75.294118%,75.294118%,75.294118%);stroke-opacity:1;stroke-miterlimit:10;" d="M 35.949219 35 L 44.050781 45 M 44.050781 35 L 35.949219 45 "/>
<path style="fill:none;stroke-width:1;stroke-linecap:round;stroke-linejoin:round;stroke:rgb(75.294118%,75.294118%,75.294118%);stroke-opacity:1;stroke-miterlimit:10;" d="M 51.5 35 L 56 40 L 60.5 35 M 56 40 L 56 45 "/>
<path style="fill:none;stroke-width:1;stroke-linecap:round;stroke-linejoin:round;stroke:rgb(75.294118%,75.294118%,75.294118%);stroke-opacity:1;stroke-miterlimit:10;" d="M 3.949219 51 L 12.050781 51 L 3.949219 61 L 12.050781 61 "/>
</g>
</svg>
