<?xml version="1.0" encoding="UTF-8"?>
<svg xmlns="http://www.w3.org/2000/svg" xmlns:xlink="http://www.w3.org/1999/xlink" width="64pt" height="64pt" viewBox="0 0 64 64" version="1.1">
<g id="surface14553">
<path style=" stroke:none;fill-rule:evenodd;fill:rgb(75.294118%,0%,0%);fill-opacity:1;" d="M 58.667969 32 C 58.667969 46.726562 46.726562 58.667969 32 58.667969 C 17.273438 58.667969 5.332031 46.726562 5.332031 32 C 5.332031 17.273438 17.273438 5.332031 32 5.332031 C 46.726562 5.332031 58.667969 17.273438 58.667969 32 Z M 58.667969 32 "/>
<path style="fill:none;stroke-width:4;stroke-linecap:butt;stroke-linejoin:miter;stroke:rgb(100%,100%,100%);stroke-opacity:1;stroke-miterlimit:10;" d="M 44.800781 32 C 44.800781 39.070312 39.070312 44.800781 32 44.800781 C 24.929688 44.800781 19.199219 39.070312 19.199219 32 C 19.199219 24.929688 24.929688 19.199219 32 19.199219 C 39.070312 19.199219 44.800781 24.929688 44.800781 32 Z M 32 12 L 32 30 "/>
</g>
</svg>
