<?xml version="1.0" encoding="UTF-8"?>
<svg xmlns="http://www.w3.org/2000/svg" xmlns:xlink="http://www.w3.org/1999/xlink" width="64pt" height="64pt" viewBox="0 0 64 64" version="1.1">
<g id="surface15005">
<path style="fill:none;stroke-width:4;stroke-linecap:butt;stroke-linejoin:miter;stroke:rgb(85.490196%,64.705882%,12.54902%);stroke-opacity:1;stroke-miterlimit:10;" d="M 4 32 L 4 20 C 4 17.789062 5.789062 16 8 16 L 16 16 C 18.210938 16 20 17.789062 20 20 C 20 21.105469 20.894531 22 22 22 "/>
<path style=" stroke:none;fill-rule:evenodd;fill:rgb(100%,100%,100%);fill-opacity:1;" d="M 24 48 L 24 2 L 48 2 L 62 16 L 62 48 Z M 24 48 "/>
<path style="fill:none;stroke-width:2;stroke-linecap:butt;stroke-linejoin:miter;stroke:rgb(0%,0%,50.196078%);stroke-opacity:1;stroke-miterlimit:10;" d="M 24 48 L 24 2 L 48 2 L 62 16 L 62 48 Z M 48 2 L 48 16 L 62 16 "/>
<path style="fill:none;stroke-width:2;stroke-linecap:butt;stroke-linejoin:miter;stroke:rgb(0%,0%,50.196078%);stroke-opacity:1;stroke-miterlimit:10;" d="M 30 12 L 38 12 M 30 18 L 48 18 M 30 24 L 44 24 "/>
<path style="fill:none;stroke-width:8;stroke-linecap:butt;stroke-linejoin:round;stroke:rgb(85.490196%,64.705882%,12.54902%);stroke-opacity:1;stroke-miterlimit:10;" d="M 4 32 L 52 32 L 52 60 L 4 60 Z M 4 32 "/>
<path style=" stroke:none;fill-rule:evenodd;fill:rgb(85.490196%,64.705882%,12.54902%);fill-opacity:1;" d="M 4 32 L 52 32 L 52 60 L 4 60 Z M 4 32 "/>
</g>
</svg>
