<?xml version="1.0" encoding="UTF-8"?>
<svg xmlns="http://www.w3.org/2000/svg" xmlns:xlink="http://www.w3.org/1999/xlink" width="64pt" height="64pt" viewBox="0 0 64 64" version="1.1">
<g id="surface14469">
<path style="fill:none;stroke-width:10.666667;stroke-linecap:butt;stroke-linejoin:miter;stroke:rgb(100%,100%,0%);stroke-opacity:1;stroke-miterlimit:10;" d="M 19.199219 21.121094 C 19.199219 17.53125 20.707031 14.105469 23.351562 11.683594 C 26 9.257812 29.539062 8.054688 33.117188 8.367188 C 36.691406 8.679688 39.96875 10.480469 42.15625 13.328125 C 44.339844 16.175781 45.230469 19.808594 44.605469 23.34375 "/>
<path style="fill:none;stroke-width:10.666667;stroke-linecap:butt;stroke-linejoin:miter;stroke:rgb(100%,100%,0%);stroke-opacity:1;stroke-miterlimit:10;" d="M 44.800781 21.121094 C 44.800781 32 30.71875 28.800781 32 42.558594 "/>
<path style=" stroke:none;fill-rule:evenodd;fill:rgb(100%,100%,0%);fill-opacity:1;" d="M 38.398438 52.480469 C 38.398438 56.015625 35.535156 58.878906 32 58.878906 C 28.464844 58.878906 25.601562 56.015625 25.601562 52.480469 C 25.601562 48.945312 28.464844 46.078125 32 46.078125 C 35.535156 46.078125 38.398438 48.945312 38.398438 52.480469 Z M 38.398438 52.480469 "/>
</g>
</svg>
