<?xml version="1.0" encoding="UTF-8"?>
<svg xmlns="http://www.w3.org/2000/svg" xmlns:xlink="http://www.w3.org/1999/xlink" width="64pt" height="64pt" viewBox="0 0 64 64" version="1.1">
<g id="surface14729">
<path style=" stroke:none;fill-rule:evenodd;fill:rgb(100%,64.705882%,0%);fill-opacity:1;" d="M 12 2 L 14.234375 8.925781 L 21.511719 8.910156 L 15.613281 13.175781 L 17.878906 20.089844 L 12 15.800781 L 6.121094 20.089844 L 8.386719 13.175781 L 2.488281 8.910156 L 9.765625 8.925781 Z M 12 22 L 14.234375 28.925781 L 21.511719 28.910156 L 15.613281 33.175781 L 17.878906 40.089844 L 12 35.800781 L 6.121094 40.089844 L 8.386719 33.175781 L 2.488281 28.910156 L 9.765625 28.925781 Z M 32 22 L 34.234375 28.925781 L 41.511719 28.910156 L 35.613281 33.175781 L 37.878906 40.089844 L 32 35.800781 L 26.121094 40.089844 L 28.386719 33.175781 L 22.488281 28.910156 L 29.765625 28.925781 Z M 12 42 L 14.234375 48.925781 L 21.511719 48.910156 L 15.613281 53.175781 L 17.878906 60.089844 L 12 55.800781 L 6.121094 60.089844 L 8.386719 53.175781 L 2.488281 48.910156 L 9.765625 48.925781 Z M 32 42 L 34.234375 48.925781 L 41.511719 48.910156 L 35.613281 53.175781 L 37.878906 60.089844 L 32 55.800781 L 26.121094 60.089844 L 28.386719 53.175781 L 22.488281 48.910156 L 29.765625 48.925781 Z M 52 42 L 54.234375 48.925781 L 61.511719 48.910156 L 55.613281 53.175781 L 57.878906 60.089844 L 52 55.800781 L 46.121094 60.089844 L 48.386719 53.175781 L 42.488281 48.910156 L 49.765625 48.925781 Z M 52 42 "/>
<path style=" stroke:none;fill-rule:evenodd;fill:rgb(96.078431%,96.078431%,96.078431%);fill-opacity:1;" d="M 32 2 L 34.234375 8.925781 L 41.511719 8.910156 L 35.613281 13.175781 L 37.878906 20.089844 L 32 15.800781 L 26.121094 20.089844 L 28.386719 13.175781 L 22.488281 8.910156 L 29.765625 8.925781 Z M 52 2 L 54.234375 8.925781 L 61.511719 8.910156 L 55.613281 13.175781 L 57.878906 20.089844 L 52 15.800781 L 46.121094 20.089844 L 48.386719 13.175781 L 42.488281 8.910156 L 49.765625 8.925781 Z M 52 22 L 54.234375 28.925781 L 61.511719 28.910156 L 55.613281 33.175781 L 57.878906 40.089844 L 52 35.800781 L 46.121094 40.089844 L 48.386719 33.175781 L 42.488281 28.910156 L 49.765625 28.925781 Z M 52 22 "/>
</g>
</svg>
