<?xml version="1.0" encoding="UTF-8"?>
<svg xmlns="http://www.w3.org/2000/svg" xmlns:xlink="http://www.w3.org/1999/xlink" width="64pt" height="64pt" viewBox="0 0 64 64" version="1.1">
<g id="surface14605">
<path style="fill:none;stroke-width:6;stroke-linecap:butt;stroke-linejoin:miter;stroke:rgb(0%,0%,50.196078%);stroke-opacity:1;stroke-miterlimit:10;" d="M 47.556349 47.556349 C 38.966107 56.146592 25.033893 56.146592 16.443651 47.556349 C 7.853408 38.966107 7.853408 25.033893 16.443651 16.443651 C 25.033893 7.853408 38.966107 7.853408 47.556349 16.443651 C 56.146592 25.033893 56.146592 38.966107 47.556349 47.556349 Z M 41.899495 13.615224 L 44.727922 13.615224 L 50.384776 10.786797 L 53.213203 13.615224 L 50.384776 19.272078 L 50.384776 22.100505 M 52.000626 25.997879 L 54.000412 27.997665 L 60.002533 30.000214 L 60.002533 33.999786 L 54.000412 36.002335 L 52.000626 38.002121 M 50.384776 41.899495 L 50.384776 44.727922 L 53.213203 50.384776 L 50.384776 53.213203 L 44.727922 50.384776 L 41.899495 50.384776 M 38.002121 52.000626 L 36.002335 54.000412 L 33.999786 60.002533 L 30.000214 60.002533 L 27.997665 54.000412 L 25.997879 52.000626 M 22.100505 50.384776 L 19.272078 50.384776 L 13.615224 53.213203 L 10.786797 50.384776 L 13.615224 44.727922 L 13.615224 41.899495 M 11.999374 38.002121 L 9.999588 36.002335 L 3.997467 33.999786 L 3.997467 30.000214 L 9.999588 27.997665 L 11.999374 25.997879 M 13.615224 22.100505 L 13.615224 19.272078 L 10.786797 13.615224 L 13.615224 10.786797 L 19.272078 13.615224 L 22.100505 13.615224 M 25.997879 11.999374 L 27.997665 9.999588 L 30.000214 3.997467 L 33.999786 3.997467 L 36.002335 9.999588 L 38.002121 11.999374 " transform="matrix(0.707107,-0.707107,0.707107,0.707107,-13.254834,32)"/>
</g>
</svg>
