<?xml version="1.0" encoding="UTF-8"?>
<svg xmlns="http://www.w3.org/2000/svg" xmlns:xlink="http://www.w3.org/1999/xlink" width="64pt" height="64pt" viewBox="0 0 64 64" version="1.1">
<g id="surface15709">
<path style="fill-rule:evenodd;fill:rgb(75.294118%,75.294118%,75.294118%);fill-opacity:1;stroke-width:14;stroke-linecap:butt;stroke-linejoin:round;stroke:rgb(75.294118%,75.294118%,75.294118%);stroke-opacity:1;stroke-miterlimit:10;" d="M 8 10 L 56 10 L 56 16 L 52 16 L 52 10 L 14 10 L 14 16 L 8 16 Z M 24 32 L 8 50 L 8 56 L 56 56 L 56 50 L 40 32 Z M 24 32 "/>
<path style="fill:none;stroke-width:6;stroke-linecap:round;stroke-linejoin:miter;stroke:rgb(75.294118%,75.294118%,75.294118%);stroke-opacity:1;stroke-miterlimit:10;" d="M 38 22 L 38 32 M 24 22 L 24 33 " transform="matrix(-1,0,0,1,63,0)"/>
<path style="fill-rule:evenodd;fill:rgb(96.078431%,96.078431%,96.078431%);fill-opacity:1;stroke-width:4;stroke-linecap:butt;stroke-linejoin:round;stroke:rgb(96.078431%,96.078431%,96.078431%);stroke-opacity:1;stroke-miterlimit:10;" d="M 18 33 L 23 33 L 23 35.5 L 18 35.5 Z M 29 33 L 34 33 L 34 35.5 L 29 35.5 Z M 40 33 L 45 33 L 45 35.5 L 40 35.5 Z M 18 43 L 23 43 L 23 45.5 L 18 45.5 Z M 29 43 L 34 43 L 34 45.5 L 29 45.5 Z M 40 43 L 45 43 L 45 45.5 L 40 45.5 Z M 18 53 L 23 53 L 23 55.5 L 18 55.5 Z M 29 53 L 34 53 L 34 55.5 L 29 55.5 Z M 40 53 L 45 53 L 45 55.5 L 40 55.5 Z M 40 53 "/>
</g>
</svg>
