<?xml version="1.0" encoding="UTF-8"?>
<svg xmlns="http://www.w3.org/2000/svg" xmlns:xlink="http://www.w3.org/1999/xlink" width="64pt" height="64pt" viewBox="0 0 64 64" version="1.1">
<g id="surface14973">
<path style="fill:none;stroke-width:4;stroke-linecap:butt;stroke-linejoin:bevel;stroke:rgb(0%,0%,50.196078%);stroke-opacity:1;stroke-miterlimit:10;" d="M 7 7 L 57 7 L 57 62 L 7 62 Z M 7 7 "/>
<path style="fill:none;stroke-width:2;stroke-linecap:butt;stroke-linejoin:miter;stroke:rgb(0%,0%,50.196078%);stroke-opacity:1;stroke-miterlimit:10;" d="M 25 8 C 25 4.132812 28.132812 1 32 1 C 35.867188 1 39 4.132812 39 8 "/>
<path style=" stroke:none;fill-rule:evenodd;fill:rgb(0%,0%,50.196078%);fill-opacity:1;" d="M 33 21 C 33 17.6875 35.6875 15 39 15 C 42.3125 15 45 17.6875 45 21 "/>
<path style=" stroke:none;fill-rule:evenodd;fill:rgb(0%,0%,50.196078%);fill-opacity:1;" d="M 19 21 C 19 17.6875 21.6875 15 25 15 C 28.3125 15 31 17.6875 31 21 "/>
<path style="fill:none;stroke-width:14;stroke-linecap:butt;stroke-linejoin:round;stroke:rgb(0%,0%,50.196078%);stroke-opacity:1;stroke-miterlimit:10;" d="M 25 14 L 39 14 "/>
<path style=" stroke:none;fill-rule:evenodd;fill:rgb(0%,0%,0%);fill-opacity:1;" d="M 48 28 L 32 40 L 48 52 Z M 48 28 "/>
<path style="fill:none;stroke-width:8;stroke-linecap:butt;stroke-linejoin:miter;stroke:rgb(0%,0%,0%);stroke-opacity:1;stroke-miterlimit:10;" d="M 48 40 L 64 40 "/>
</g>
</svg>
