<?xml version="1.0" encoding="UTF-8"?>
<svg xmlns="http://www.w3.org/2000/svg" xmlns:xlink="http://www.w3.org/1999/xlink" width="64pt" height="64pt" viewBox="0 0 64 64" version="1.1">
<g id="surface14893">
<path style="fill:none;stroke-width:1;stroke-linecap:round;stroke-linejoin:round;stroke:rgb(0%,0%,100%);stroke-opacity:1;stroke-miterlimit:10;" d="M 3.5 13 L 8 3 L 12.5 13 M 5.5 9.667969 L 10.5 9.667969 "/>
<path style="fill:none;stroke-width:1;stroke-linecap:round;stroke-linejoin:round;stroke:rgb(0%,0%,100%);stroke-opacity:1;stroke-miterlimit:10;" d="M 24.324219 3 L 19.949219 3 L 19.949219 13 M 24.949219 8 L 19.949219 8 M 24.324219 3 C 27.65625 3 27.65625 8 24.324219 8 M 24.949219 13 L 19.949219 13 M 24.949219 8 C 28.285156 8 28.285156 13 24.949219 13 "/>
<path style="fill:none;stroke-width:1;stroke-linecap:round;stroke-linejoin:round;stroke:rgb(0%,0%,100%);stroke-opacity:1;stroke-miterlimit:10;" d="M 35.769531 5.960938 C 37.207031 2.011719 42.792969 2.011719 44.230469 5.960938 M 44.230469 10.039062 C 42.792969 13.988281 37.207031 13.988281 35.769531 10.039062 M 35.726562 6.183594 L 35.726562 9.816406 "/>
<path style="fill:none;stroke-width:1;stroke-linecap:round;stroke-linejoin:round;stroke:rgb(0%,0%,100%);stroke-opacity:1;stroke-miterlimit:10;" d="M 54.378906 3 L 51.949219 3 L 51.949219 13 M 54.378906 13 L 51.949219 13 M 54.378906 3 C 61.046875 3 61.046875 13 54.378906 13 "/>
<path style="fill:none;stroke-width:1;stroke-linecap:round;stroke-linejoin:round;stroke:rgb(0%,0%,100%);stroke-opacity:1;stroke-miterlimit:10;" d="M 12.050781 19 L 3.949219 19 L 3.949219 29 L 12.050781 29 M 3.949219 24 L 11.238281 24 "/>
<path style="fill:none;stroke-width:1;stroke-linecap:round;stroke-linejoin:round;stroke:rgb(0%,0%,100%);stroke-opacity:1;stroke-miterlimit:10;" d="M 28.050781 19 L 19.949219 19 L 19.949219 29 M 19.949219 24 L 27.238281 24 "/>
<path style="fill:none;stroke-width:1;stroke-linecap:round;stroke-linejoin:round;stroke:rgb(0%,0%,100%);stroke-opacity:1;stroke-miterlimit:10;" d="M 35.769531 21.960938 C 37.207031 18.011719 42.792969 18.011719 44.230469 21.960938 M 44.230469 26.039062 C 42.792969 29.988281 37.207031 29.988281 35.769531 26.039062 M 35.726562 22.183594 L 35.726562 25.816406 M 40.898438 25 L 44.273438 25 L 44.273438 25.816406 "/>
<path style="fill:none;stroke-width:1;stroke-linecap:round;stroke-linejoin:round;stroke:rgb(0%,0%,100%);stroke-opacity:1;stroke-miterlimit:10;" d="M 51.949219 19 L 51.949219 29 M 60.050781 19 L 60.050781 29 M 51.949219 24 L 60.050781 24 "/>
<path style="fill:none;stroke-width:1;stroke-linecap:round;stroke-linejoin:round;stroke:rgb(0%,0%,100%);stroke-opacity:1;stroke-miterlimit:10;" d="M 8 35 L 8 45 "/>
<path style="fill:none;stroke-width:1;stroke-linecap:round;stroke-linejoin:round;stroke:rgb(0%,0%,100%);stroke-opacity:1;stroke-miterlimit:10;" d="M 24 35 L 24 42.75 M 24 42.5 C 24 45.832031 19 45.832031 19 42.5 "/>
<path style="fill:none;stroke-width:1;stroke-linecap:round;stroke-linejoin:round;stroke:rgb(0%,0%,100%);stroke-opacity:1;stroke-miterlimit:10;" d="M 37 35 L 37 45 M 37 41.667969 L 43 35 M 39.625 39.5 L 43 45 "/>
<path style="fill:none;stroke-width:1;stroke-linecap:round;stroke-linejoin:round;stroke:rgb(0%,0%,100%);stroke-opacity:1;stroke-miterlimit:10;" d="M 53.75 35 L 53.75 45 L 58.25 45 "/>
<path style="fill:none;stroke-width:1;stroke-linecap:round;stroke-linejoin:round;stroke:rgb(0%,0%,100%);stroke-opacity:1;stroke-miterlimit:10;" d="M 3.5 61 L 3.5 51 L 8 56.25 L 12.5 51 L 12.5 61 "/>
</g>
</svg>
