<?xml version="1.0" encoding="UTF-8"?>
<svg xmlns="http://www.w3.org/2000/svg" xmlns:xlink="http://www.w3.org/1999/xlink" width="64pt" height="64pt" viewBox="0 0 64 64" version="1.1">
<g id="surface16093">
<path style="fill:none;stroke-width:4;stroke-linecap:butt;stroke-linejoin:miter;stroke:rgb(100%,100%,100%);stroke-opacity:1;stroke-miterlimit:10;" d="M 19.99852 52.000626 L 19.99852 13.999161 C 20.001282 7.372797 25.373636 2.000442 32 1.99768 C 38.626364 2.000442 43.998718 7.372797 44.00148 13.999161 L 44.00148 50.000839 C 43.998718 54.969922 39.968762 58.999878 35.002442 58.999878 C 30.030597 58.999878 26.000641 54.969922 26.000641 49.998077 L 26.000641 24.000855 C 26.000641 20.686292 28.685437 18.001495 32 18.001495 C 35.314563 18.001495 37.999359 20.686292 37.999359 24.000855 L 37.999359 50.003602 " transform="matrix(0.707107,0.707107,-0.707107,0.707107,32,-13.254834)"/>
<path style="fill:none;stroke-width:4;stroke-linecap:butt;stroke-linejoin:miter;stroke:rgb(75.294118%,75.294118%,75.294118%);stroke-opacity:1;stroke-miterlimit:10;" d="M 19.998413 52.000519 L 19.998413 13.999054 C 20.001175 7.37269 25.373529 2.000336 31.999893 1.997573 C 38.626257 2.000336 43.998611 7.37269 44.001374 13.999054 L 44.001374 50.000733 C 43.998611 54.969815 39.968655 58.999771 35.002335 58.999771 C 30.03049 58.999771 26.000534 54.969815 26.000534 49.99797 L 26.000534 24.000748 C 26.000534 20.686185 28.68533 18.001389 31.999893 18.001389 C 35.314456 18.001389 37.999252 20.686185 37.999252 24.000748 L 37.999252 50.003495 " transform="matrix(0.707107,0.707107,-0.707107,0.707107,32,-11.84062)"/>
</g>
</svg>
