<?xml version="1.0" encoding="UTF-8"?>
<svg xmlns="http://www.w3.org/2000/svg" xmlns:xlink="http://www.w3.org/1999/xlink" width="64pt" height="64pt" viewBox="0 0 64 64" version="1.1">
<g id="surface15125">
<rect x="0" y="0" width="64" height="64" style="fill:rgb(100%,100%,100%);fill-opacity:1;stroke:none;"/>
<path style="fill-rule:evenodd;fill:rgb(80%,80%,0%);fill-opacity:1;stroke-width:2;stroke-linecap:butt;stroke-linejoin:miter;stroke:rgb(0%,0%,0%);stroke-opacity:1;stroke-miterlimit:10;" d="M 60 32 L 60 40 C 60 48.835938 47.464844 56 32 56 L 32 48 Z M 60 32 " transform="matrix(1,0,0,1,0,-4)"/>
<path style="fill-rule:evenodd;fill:rgb(31.372549%,46.666667%,74.509804%);fill-opacity:1;stroke-width:2;stroke-linecap:butt;stroke-linejoin:miter;stroke:rgb(0%,0%,0%);stroke-opacity:1;stroke-miterlimit:10;" d="M 32 48 L 32 56 C 16.535156 56 4 48.835938 4 40 L 4 32 Z M 32 48 " transform="matrix(1,0,0,1,0,-4)"/>
<path style="fill-rule:evenodd;fill:rgb(100%,54.901961%,0%);fill-opacity:1;stroke-width:2;stroke-linecap:butt;stroke-linejoin:miter;stroke:rgb(0%,0%,0%);stroke-opacity:1;stroke-miterlimit:10;" d="M 32 32 L 12.304688 20.628906 C 23.214844 14.457031 40.785156 14.457031 51.695312 20.628906 Z M 32 32 " transform="matrix(1,0,0,1,0,-4)"/>
<path style="fill-rule:evenodd;fill:rgb(100%,100%,0%);fill-opacity:1;stroke-width:2;stroke-linecap:butt;stroke-linejoin:miter;stroke:rgb(0%,0%,0%);stroke-opacity:1;stroke-miterlimit:10;" d="M 32 32 L 51.695312 20.628906 C 59.765625 25.191406 62.214844 32.085938 57.894531 38.085938 C 53.578125 44.082031 43.351562 48 32 48 Z M 32 32 " transform="matrix(1,0,0,1,0,-4)"/>
<path style="fill-rule:evenodd;fill:rgb(39.215686%,58.431373%,92.941176%);fill-opacity:1;stroke-width:2;stroke-linecap:butt;stroke-linejoin:miter;stroke:rgb(0%,0%,0%);stroke-opacity:1;stroke-miterlimit:10;" d="M 32 32 L 32 48 C 20.648438 48 10.421875 44.082031 6.105469 38.085938 C 1.785156 32.085938 4.234375 25.191406 12.304688 20.628906 Z M 32 32 " transform="matrix(1,0,0,1,0,-4)"/>
</g>
</svg>
