<?xml version="1.0" encoding="UTF-8"?>
<svg xmlns="http://www.w3.org/2000/svg" xmlns:xlink="http://www.w3.org/1999/xlink" width="64pt" height="64pt" viewBox="0 0 64 64" version="1.1">
<g id="surface15961">
<path style="fill:none;stroke-width:1;stroke-linecap:butt;stroke-linejoin:miter;stroke:rgb(41.176471%,41.176471%,41.176471%);stroke-opacity:1;stroke-miterlimit:10;" d="M 0 0 L 0 64 M 0 0 L 4 0 M 0 16 L 4 16 M 0 32 L 4 32 M 0 48 L 4 48 M 0 64 L 4 64 "/>
<path style="fill:none;stroke-width:1;stroke-linecap:butt;stroke-linejoin:miter;stroke:rgb(41.176471%,41.176471%,41.176471%);stroke-opacity:1;stroke-miterlimit:10;" d="M 0 -0.000000000000007105 L -0.000000000000014211 64 M 0 -0.000000000000007105 L 4 -0.000000000000006371 M 0 16 L 4 16 M 0 32 L 4 32 M -0.000000000000014211 48 L 4 48 M -0.000000000000014211 64 L 4 64 " transform="matrix(-0.000000000000000184,-1,1,-0.000000000000000184,0.000000000000007105,64)"/>
<path style="fill-rule:evenodd;fill:rgb(75.294118%,75.294118%,75.294118%);fill-opacity:1;stroke-width:1;stroke-linecap:butt;stroke-linejoin:miter;stroke:rgb(37.647059%,37.647059%,37.647059%);stroke-opacity:1;stroke-miterlimit:10;" d="M 8 36 L 16 44 L 32 38 L 48 48 L 64 44 L 64 58 L 8 58 Z M 8 36 "/>
<path style="fill-rule:evenodd;fill:rgb(75.294118%,75.294118%,75.294118%);fill-opacity:1;stroke-width:1;stroke-linecap:butt;stroke-linejoin:miter;stroke:rgb(37.647059%,37.647059%,37.647059%);stroke-opacity:1;stroke-miterlimit:10;" d="M 8 32 L 16 14 L 32 30 L 48 16 L 64 24 L 64 44 L 48 48 L 32 38 L 16 44 L 8 36 Z M 8 32 "/>
</g>
</svg>
