<?xml version="1.0" encoding="UTF-8"?>
<svg xmlns="http://www.w3.org/2000/svg" xmlns:xlink="http://www.w3.org/1999/xlink" width="64pt" height="64pt" viewBox="0 0 64 64" version="1.1">
<g id="surface14825">
<path style="fill:none;stroke-width:5;stroke-linecap:round;stroke-linejoin:round;stroke:rgb(0%,0%,0%);stroke-opacity:1;stroke-miterlimit:10;" d="M 31 50 C 31 54.980469 27.65625 59.335938 22.847656 60.625 C 18.039062 61.914062 12.964844 59.8125 10.472656 55.5 L 4 55.601562 M 60 55.601562 L 54 55.601562 M 53.527344 55.5 C 51.035156 59.8125 45.960938 61.914062 41.152344 60.625 C 36.34375 59.335938 33 54.980469 33 50 "/>
<path style="fill:none;stroke-width:3;stroke-linecap:round;stroke-linejoin:round;stroke:rgb(96.078431%,96.078431%,96.078431%);stroke-opacity:1;stroke-miterlimit:10;" d="M 30.832031 48.089844 C 31.761719 53.347656 28.777344 58.511719 23.761719 60.335938 C 18.746094 62.164062 13.144531 60.121094 10.472656 55.5 L 4 55.601562 M 60 55.601562 L 54 55.601562 M 53.527344 55.5 C 50.855469 60.121094 45.253906 62.164062 40.238281 60.335938 C 35.222656 58.511719 32.238281 53.347656 33.167969 48.089844 "/>
<path style="fill:none;stroke-width:2;stroke-linecap:butt;stroke-linejoin:miter;stroke:rgb(0%,0%,0%);stroke-opacity:1;stroke-miterlimit:10;" d="M 20 48 C 20 41.371094 25.371094 36 32 36 C 38.628906 36 44 41.371094 44 48 Z M 20 48 "/>
<path style=" stroke:none;fill-rule:evenodd;fill:rgb(96.078431%,96.078431%,96.078431%);fill-opacity:1;" d="M 20 48 C 20 41.371094 25.371094 36 32 36 C 38.628906 36 44 41.371094 44 48 Z M 20 48 "/>
<path style="fill:none;stroke-width:2;stroke-linecap:butt;stroke-linejoin:miter;stroke:rgb(0%,0%,0%);stroke-opacity:1;stroke-miterlimit:10;" d="M 25 38.125 C 19.511719 34.957031 16.835938 28.496094 18.476562 22.375 C 20.117188 16.257812 25.664062 12 32 12 C 38.335938 12 43.882812 16.257812 45.523438 22.375 C 47.164062 28.496094 44.488281 34.957031 39 38.125 "/>
<path style=" stroke:none;fill-rule:evenodd;fill:rgb(96.078431%,96.078431%,96.078431%);fill-opacity:1;" d="M 25 38.125 C 19.511719 34.957031 16.835938 28.496094 18.476562 22.375 C 20.117188 16.257812 25.664062 12 32 12 C 38.335938 12 43.882812 16.257812 45.523438 22.375 C 47.164062 28.496094 44.488281 34.957031 39 38.125 "/>
<path style="fill:none;stroke-width:2;stroke-linecap:butt;stroke-linejoin:miter;stroke:rgb(0%,0%,0%);stroke-opacity:1;stroke-miterlimit:10;" d="M 36 7 C 36 13.667969 28 13.667969 28 7 C 28 0.332031 36 0.332031 36 7 Z M 36 7 "/>
<path style=" stroke:none;fill-rule:evenodd;fill:rgb(96.078431%,96.078431%,96.078431%);fill-opacity:1;" d="M 36 7 C 36 13.667969 28 13.667969 28 7 C 28 0.332031 36 0.332031 36 7 Z M 36 7 "/>
<path style="fill:none;stroke-width:2.6;stroke-linecap:butt;stroke-linejoin:miter;stroke:rgb(0%,0%,0%);stroke-opacity:1;stroke-miterlimit:10;" d="M 26 25 L 38 25 M 32 19 L 32 31 "/>
</g>
</svg>
