<?xml version="1.0" encoding="UTF-8"?>
<svg xmlns="http://www.w3.org/2000/svg" xmlns:xlink="http://www.w3.org/1999/xlink" width="64pt" height="64pt" viewBox="0 0 64 64" version="1.1">
<g id="surface15649">
<path style="fill:none;stroke-width:1;stroke-linecap:round;stroke-linejoin:round;stroke:rgb(75.294118%,75.294118%,75.294118%);stroke-opacity:1;stroke-miterlimit:10;" d="M 8 62 L 56 62 L 56 44 M 8.039062 43.945312 C 13.710938 36.421875 22.582031 32 32 32 C 41.417969 32 50.289062 36.421875 55.960938 43.945312 M 8 44 L 8 62 L 12 62 M 44 26 C 44 32.628906 38.628906 38 32 38 C 25.371094 38 20 32.628906 20 26 C 20 19.371094 25.371094 14 32 14 C 38.628906 14 44 19.371094 44 26 Z M 40 12 C 40 16.417969 36.417969 20 32 20 C 27.582031 20 24 16.417969 24 12 C 24 7.582031 27.582031 4 32 4 C 36.417969 4 40 7.582031 40 12 Z M 40 12 "/>
<path style=" stroke:none;fill-rule:evenodd;fill:rgb(75.294118%,75.294118%,75.294118%);fill-opacity:1;" d="M 8 43.800781 L 56 43.800781 L 56 61.800781 L 8 61.800781 Z M 8 43.800781 "/>
<path style=" stroke:none;fill-rule:evenodd;fill:rgb(75.294118%,75.294118%,75.294118%);fill-opacity:1;" d="M 8.039062 43.945312 C 13.710938 36.421875 22.582031 32 32 32 C 41.417969 32 50.289062 36.421875 55.960938 43.945312 Z M 8.039062 43.945312 "/>
<path style=" stroke:none;fill-rule:evenodd;fill:rgb(75.294118%,75.294118%,75.294118%);fill-opacity:1;" d="M 44 26 C 44 32.628906 38.628906 38 32 38 C 25.371094 38 20 32.628906 20 26 C 20 19.371094 25.371094 14 32 14 C 38.628906 14 44 19.371094 44 26 Z M 44 26 "/>
<path style=" stroke:none;fill-rule:evenodd;fill:rgb(75.294118%,75.294118%,75.294118%);fill-opacity:1;" d="M 40 12 C 40 16.417969 36.417969 20 32 20 C 27.582031 20 24 16.417969 24 12 C 24 7.582031 27.582031 4 32 4 C 36.417969 4 40 7.582031 40 12 Z M 40 12 "/>
</g>
</svg>
