<?xml version="1.0" encoding="UTF-8"?>
<svg xmlns="http://www.w3.org/2000/svg" xmlns:xlink="http://www.w3.org/1999/xlink" width="64pt" height="64pt" viewBox="0 0 64 64" version="1.1">
<g id="surface15661">
<path style="fill:none;stroke-width:2;stroke-linecap:round;stroke-linejoin:round;stroke:rgb(75.294118%,75.294118%,75.294118%);stroke-opacity:1;stroke-miterlimit:10;" d="M 20.558594 61.722656 C 21.082031 51.769531 25.003906 42.300781 31.671875 34.894531 L 31.671875 26 L 24 36 L 13.398438 46 L 13.398438 40 L 13.53125 40.113281 C 12.140625 43.09375 8.304688 43.945312 5.785156 41.832031 C 3.269531 39.71875 3.4375 35.789062 6.132812 33.902344 L 14 24 L 14 16 L 18 14 L 18 6 L 24 11.398438 L 28 4 L 32 11.398438 L 32.828125 11.695312 C 50.332031 22.421875 61 41.472656 61 62 L 20.5 62 "/>
<path style=" stroke:none;fill-rule:evenodd;fill:rgb(96.078431%,96.078431%,96.078431%);fill-opacity:1;" d="M 20.558594 61.722656 C 21.082031 51.769531 25.003906 42.300781 31.671875 34.894531 L 31.671875 26 L 24 36 L 13.398438 46 L 13.398438 40 L 13.53125 40.113281 C 12.140625 43.09375 8.304688 43.945312 5.785156 41.832031 C 3.269531 39.71875 3.4375 35.789062 6.132812 33.902344 L 14 24 L 14 16 L 18 14 L 18 6 L 24 11.398438 L 28 4 L 32 11.398438 L 32.828125 11.695312 C 50.332031 22.421875 61 41.472656 61 62 L 20.5 62 "/>
<path style="fill:none;stroke-width:1;stroke-linecap:round;stroke-linejoin:miter;stroke:rgb(75.294118%,75.294118%,75.294118%);stroke-opacity:1;stroke-dasharray:2;stroke-miterlimit:10;" d="M 44.132812 26.648438 C 50.339844 34.042969 54.488281 42.941406 56.164062 52.449219 "/>
<path style="fill:none;stroke-width:3;stroke-linecap:round;stroke-linejoin:round;stroke:rgb(75.294118%,75.294118%,75.294118%);stroke-opacity:1;stroke-miterlimit:10;" d="M 8 38 L 8 39 "/>
<path style=" stroke:none;fill-rule:evenodd;fill:rgb(75.294118%,75.294118%,75.294118%);fill-opacity:1;" d="M 20 22 C 20 24.667969 16 24.667969 16 22 C 16 19.332031 20 19.332031 20 22 Z M 20 22 "/>
</g>
</svg>
