<?xml version="1.0" encoding="UTF-8"?>
<svg xmlns="http://www.w3.org/2000/svg" xmlns:xlink="http://www.w3.org/1999/xlink" width="64pt" height="64pt" viewBox="0 0 64 64" version="1.1">
<g id="surface15653">
<path style="fill:none;stroke-width:2;stroke-linecap:butt;stroke-linejoin:miter;stroke:rgb(75.294118%,75.294118%,75.294118%);stroke-opacity:1;stroke-miterlimit:10;" d="M 22 20 L 42 20 L 42 40 L 22 40 Z M 10 56 L 54 56 L 54 62 L 10 62 Z M 22 40 L 16 48 L 16 56 M 42 40 L 48 48 L 48 56 M 16 48 L 48 48 M 22 20 L 14 14 L 14 4 L 22 4 L 22 8 L 28 8 L 28 4 L 36 4 L 36 8 L 42 8 L 42 4 L 50 4 L 50 14 L 42 20 M 14 14 L 50 14 "/>
<path style=" stroke:none;fill-rule:evenodd;fill:rgb(96.078431%,96.078431%,96.078431%);fill-opacity:1;" d="M 22 20 L 42 20 L 42 40 L 22 40 Z M 10 56 L 54 56 L 54 62 L 10 62 Z M 16 48 L 48 48 L 48 56 L 16 56 Z M 16 48 L 22 40 L 42 40 L 48 48 Z M 22 20 L 14 14 L 14 4 L 22 4 L 22 8 L 28 8 L 28 4 L 36 4 L 36 8 L 42 8 L 42 4 L 50 4 L 50 14 L 42 20 "/>
<path style="fill:none;stroke-width:1;stroke-linecap:butt;stroke-linejoin:miter;stroke:rgb(75.294118%,75.294118%,75.294118%);stroke-opacity:1;stroke-miterlimit:10;" d="M 16 55 L 48 55 M 16.5 47 L 47.5 47 M 22 39 L 42 39 M 22 21 L 42 21 M 14 14 L 50 14 "/>
</g>
</svg>
