<?xml version="1.0" encoding="UTF-8"?>
<svg xmlns="http://www.w3.org/2000/svg" xmlns:xlink="http://www.w3.org/1999/xlink" width="64pt" height="64pt" viewBox="0 0 64 64" version="1.1">
<g id="surface15613">
<path style=" stroke:none;fill-rule:evenodd;fill:rgb(66.27451%,66.27451%,66.27451%);fill-opacity:1;" d="M 24.199219 18 C 24.199219 13.691406 27.691406 10.199219 32 10.199219 C 36.308594 10.199219 39.800781 13.691406 39.800781 18 M 24.199219 18 L 32 31.601562 L 39.800781 18 Z M 24.199219 18 "/>
<path style=" stroke:none;fill-rule:evenodd;fill:rgb(50.196078%,50.196078%,50.196078%);fill-opacity:1;" d="M 40.222656 18.246094 C 43.953125 16.089844 48.726562 17.371094 50.878906 21.101562 C 53.035156 24.832031 51.753906 29.601562 48.023438 31.753906 M 40.222656 18.246094 L 32.347656 31.800781 L 48.023438 31.753906 Z M 40.222656 18.246094 "/>
<path style=" stroke:none;fill-rule:evenodd;fill:rgb(75.294118%,75.294118%,75.294118%);fill-opacity:1;" d="M 48.023438 32.246094 C 51.753906 34.398438 53.035156 39.167969 50.878906 42.898438 C 48.726562 46.628906 43.953125 47.910156 40.222656 45.753906 M 48.023438 32.246094 L 32.347656 32.199219 L 40.222656 45.753906 Z M 48.023438 32.246094 "/>
<path style=" stroke:none;fill-rule:evenodd;fill:rgb(66.27451%,66.27451%,66.27451%);fill-opacity:1;" d="M 39.800781 46 C 39.800781 50.308594 36.308594 53.800781 32 53.800781 C 27.691406 53.800781 24.199219 50.308594 24.199219 46 M 39.800781 46 L 32 32.398438 L 24.199219 46 Z M 39.800781 46 "/>
<path style=" stroke:none;fill-rule:evenodd;fill:rgb(50.196078%,50.196078%,50.196078%);fill-opacity:1;" d="M 23.777344 45.753906 C 20.046875 47.910156 15.273438 46.628906 13.121094 42.898438 C 10.964844 39.167969 12.246094 34.398438 15.976562 32.246094 M 23.777344 45.753906 L 31.652344 32.199219 L 15.976562 32.246094 Z M 23.777344 45.753906 "/>
<path style=" stroke:none;fill-rule:evenodd;fill:rgb(75.294118%,75.294118%,75.294118%);fill-opacity:1;" d="M 15.976562 31.753906 C 12.246094 29.601562 10.964844 24.832031 13.121094 21.101562 C 15.273438 17.371094 20.046875 16.089844 23.777344 18.246094 M 15.976562 31.753906 L 31.652344 31.800781 L 23.777344 18.246094 Z M 15.976562 31.753906 "/>
</g>
</svg>
