<?xml version="1.0" encoding="UTF-8"?>
<svg xmlns="http://www.w3.org/2000/svg" xmlns:xlink="http://www.w3.org/1999/xlink" width="64pt" height="64pt" viewBox="0 0 64 64" version="1.1">
<g id="surface15697">
<path style="fill:none;stroke-width:4;stroke-linecap:butt;stroke-linejoin:round;stroke:rgb(75.294118%,75.294118%,75.294118%);stroke-opacity:1;stroke-miterlimit:10;" d="M 18.84375 11.210938 C 20.855469 5.679688 26.113281 2 32 2 C 37.886719 2 43.144531 5.679688 45.15625 11.210938 L 45.15625 24 L 40 30 L 38 34 L 26 34 L 24 30 L 19 24 L 19 10 "/>
<path style=" stroke:none;fill-rule:evenodd;fill:rgb(75.294118%,75.294118%,75.294118%);fill-opacity:1;" d="M 18.84375 11.210938 C 20.855469 5.679688 26.113281 2 32 2 C 37.886719 2 43.144531 5.679688 45.15625 11.210938 L 45.15625 24 L 40 30 L 38 34 L 26 34 L 24 30 L 19 24 L 19 10 "/>
<path style=" stroke:none;fill-rule:evenodd;fill:rgb(96.078431%,96.078431%,96.078431%);fill-opacity:1;" d="M 30 18 C 30 22 20 22 20 18 C 20 14 30 14 30 18 Z M 45 18 C 45 22 35 22 35 18 C 35 14 45 14 45 18 Z M 34.398438 28 C 34.398438 33.332031 29.601562 33.332031 29.601562 28 C 29.601562 22.667969 34.398438 22.667969 34.398438 28 Z M 34.398438 28 "/>
<path style="fill:none;stroke-width:6;stroke-linecap:butt;stroke-linejoin:miter;stroke:rgb(75.294118%,75.294118%,75.294118%);stroke-opacity:1;stroke-miterlimit:10;" d="M 8.000541 43.99788 L 57.998726 44.000822 " transform="matrix(0.906308,0.422618,-0.422618,0.906308,21.593354,-9.401327)"/>
<path style=" stroke:none;fill-rule:evenodd;fill:rgb(75.294118%,75.294118%,75.294118%);fill-opacity:1;" d="M 14.234375 32.40625 C 12.542969 36.03125 7.105469 33.496094 8.796875 29.871094 C 10.488281 26.246094 15.925781 28.78125 14.234375 32.40625 Z M 59.550781 53.535156 C 57.859375 57.164062 52.421875 54.625 54.113281 51 C 55.804688 47.375 61.242188 49.910156 59.550781 53.535156 Z M 59.550781 53.535156 "/>
<path style=" stroke:none;fill-rule:evenodd;fill:rgb(75.294118%,75.294118%,75.294118%);fill-opacity:1;" d="M 12.605469 38.265625 C 10.351562 43.101562 3.101562 39.71875 5.355469 34.886719 C 7.609375 30.050781 14.859375 33.433594 12.605469 38.265625 Z M 57.921875 59.398438 C 55.667969 64.230469 48.417969 60.851562 50.671875 56.015625 C 52.925781 51.183594 60.175781 54.5625 57.921875 59.398438 Z M 57.921875 59.398438 "/>
<path style="fill:none;stroke-width:6;stroke-linecap:butt;stroke-linejoin:miter;stroke:rgb(75.294118%,75.294118%,75.294118%);stroke-opacity:1;stroke-miterlimit:10;" d="M 8.000541 44.00212 L 57.998726 43.999178 " transform="matrix(0.906308,-0.422618,0.422618,0.906308,-15.597053,17.646242)"/>
<path style=" stroke:none;fill-rule:evenodd;fill:rgb(75.294118%,75.294118%,75.294118%);fill-opacity:1;" d="M 11.699219 50.15625 C 13.390625 53.78125 7.953125 56.316406 6.261719 52.691406 C 4.570312 49.066406 10.007812 46.53125 11.699219 50.15625 Z M 57.015625 29.023438 C 58.707031 32.648438 53.269531 35.1875 51.578125 31.5625 C 49.886719 27.9375 55.324219 25.398438 57.015625 29.023438 Z M 57.015625 29.023438 "/>
<path style=" stroke:none;fill-rule:evenodd;fill:rgb(75.294118%,75.294118%,75.294118%);fill-opacity:1;" d="M 15.140625 55.171875 C 17.394531 60.003906 10.144531 63.386719 7.890625 58.550781 C 5.636719 53.71875 12.886719 50.335938 15.140625 55.171875 Z M 60.457031 34.039062 C 62.710938 38.875 55.460938 42.253906 53.207031 37.421875 C 50.953125 32.585938 58.203125 29.207031 60.457031 34.039062 Z M 60.457031 34.039062 "/>
</g>
</svg>
