<?xml version="1.0" encoding="UTF-8"?>
<svg xmlns="http://www.w3.org/2000/svg" xmlns:xlink="http://www.w3.org/1999/xlink" width="64pt" height="64pt" viewBox="0 0 64 64" version="1.1">
<g id="surface15877">
<path style="fill-rule:evenodd;fill:rgb(96.078431%,96.078431%,96.078431%);fill-opacity:1;stroke-width:4;stroke-linecap:butt;stroke-linejoin:miter;stroke:rgb(75.294118%,75.294118%,75.294118%);stroke-opacity:1;stroke-miterlimit:10;" d="M 8 4 L 44 4 L 56 16 L 56 60 L 8 60 Z M 8 4 "/>
<path style="fill:none;stroke-width:2;stroke-linecap:butt;stroke-linejoin:miter;stroke:rgb(75.294118%,75.294118%,75.294118%);stroke-opacity:1;stroke-miterlimit:10;" d="M 44 4 L 44 16 L 56 16 "/>
<path style="fill:none;stroke-width:2;stroke-linecap:butt;stroke-linejoin:miter;stroke:rgb(75.294118%,75.294118%,75.294118%);stroke-opacity:1;stroke-miterlimit:10;" d="M 14 18 L 38 18 M 14 26 L 40 26 M 14 34 L 30 34 M 14 42 L 20 42 M 14 50 L 18 50 "/>
<path style="fill:none;stroke-width:9;stroke-linecap:round;stroke-linejoin:miter;stroke:rgb(75.294118%,75.294118%,75.294118%);stroke-opacity:1;stroke-miterlimit:10;" d="M 32.000132 4.000135 L 32.000132 12.99856 " transform="matrix(0.636396,0.636396,-0.636396,0.636396,40.25513,-3.019805)"/>
<path style="fill:none;stroke-width:10;stroke-linecap:butt;stroke-linejoin:miter;stroke:rgb(96.078431%,96.078431%,96.078431%);stroke-opacity:1;stroke-miterlimit:10;" d="M 32.000132 10.997546 L 32.000132 13.999067 " transform="matrix(0.636396,0.636396,-0.636396,0.636396,40.25513,-3.019805)"/>
<path style="fill:none;stroke-width:10;stroke-linecap:butt;stroke-linejoin:miter;stroke:rgb(75.294118%,75.294118%,75.294118%);stroke-opacity:1;stroke-miterlimit:10;" d="M 32.000132 13.999067 L 32.000132 51.999919 " transform="matrix(0.636396,0.636396,-0.636396,0.636396,40.25513,-3.019805)"/>
<path style=" stroke:none;fill-rule:evenodd;fill:rgb(96.078431%,96.078431%,96.078431%);fill-opacity:1;" d="M 24.34375 47.253906 L 19.890625 58.074219 L 30.710938 53.621094 Z M 24.34375 47.253906 "/>
<path style=" stroke:none;fill-rule:evenodd;fill:rgb(75.294118%,75.294118%,75.294118%);fill-opacity:1;" d="M 22.4375 52.21875 L 19.890625 58.074219 L 25.746094 55.527344 Z M 22.4375 52.21875 "/>
</g>
</svg>
