<?xml version="1.0" encoding="UTF-8"?>
<svg xmlns="http://www.w3.org/2000/svg" xmlns:xlink="http://www.w3.org/1999/xlink" width="64pt" height="64pt" viewBox="0 0 64 64" version="1.1">
<g id="surface15477">
<path style="fill:none;stroke-width:4;stroke-linecap:round;stroke-linejoin:round;stroke:rgb(75.294118%,75.294118%,75.294118%);stroke-opacity:1;stroke-miterlimit:10;" d="M 2 28 L 2 60 L 40 60 M 32 52 L 44 52 M 40 52 C 45.332031 52 45.332031 60 40 60 M 32 44 L 52 44 M 44 44 C 49.332031 44 49.332031 52 44 52 M 32 36 L 52 36 M 52 36 C 57.332031 36 57.332031 44 52 44 M 2 28 L 44 28 M 44 28 C 49.332031 28 49.332031 36 44 36 M 29.605469 6.515625 C 27.5625 18.105469 17.988281 26.875 6.265625 27.902344 M 29.398438 6 L 27.398438 6 L 4 28 "/>
</g>
</svg>
