<?xml version="1.0" encoding="UTF-8"?>
<svg xmlns="http://www.w3.org/2000/svg" xmlns:xlink="http://www.w3.org/1999/xlink" width="64pt" height="64pt" viewBox="0 0 64 64" version="1.1">
<g id="surface14765">
<path style=" stroke:none;fill-rule:evenodd;fill:rgb(25.490196%,41.176471%,88.235294%);fill-opacity:1;" d="M 60 32 L 60 50 C 60 55.523438 55.523438 60 50 60 L 14 60 C 8.476562 60 4 55.523438 4 50 L 4 14 C 4 8.476562 8.476562 4 14 4 L 50 4 C 55.523438 4 60 8.476562 60 14 Z M 60 32 "/>
<path style=" stroke:none;fill-rule:evenodd;fill:rgb(96.078431%,96.078431%,96.078431%);fill-opacity:1;" d="M 54 32 C 54 41.941406 44.148438 50 32 50 C 19.851562 50 10 41.941406 10 32 C 10 22.058594 19.851562 14 32 14 C 44.148438 14 54 22.058594 54 32 Z M 54 32 "/>
<path style=" stroke:none;fill-rule:evenodd;fill:rgb(96.078431%,96.078431%,96.078431%);fill-opacity:1;" d="M 26 48 L 14 54 L 20 44 Z M 26 48 "/>
</g>
</svg>
