<?xml version="1.0" encoding="UTF-8"?>
<svg xmlns="http://www.w3.org/2000/svg" xmlns:xlink="http://www.w3.org/1999/xlink" width="64pt" height="64pt" viewBox="0 0 64 64" version="1.1">
<g id="surface14777">
<path style="fill:none;stroke-width:7;stroke-linecap:butt;stroke-linejoin:miter;stroke:rgb(0%,0%,0%);stroke-opacity:1;stroke-miterlimit:10;" d="M 48 32 C 48 40.835938 40.835938 48 32 48 C 23.164062 48 16 40.835938 16 32 C 16 23.164062 23.164062 16 32 16 C 40.835938 16 48 23.164062 48 32 Z M 48 32 "/>
<path style="fill:none;stroke-width:4;stroke-linecap:butt;stroke-linejoin:miter;stroke:rgb(0%,0%,0%);stroke-opacity:1;stroke-miterlimit:10;" d="M 38 32 C 38 35.3125 35.3125 38 32 38 C 28.6875 38 26 35.3125 26 32 C 26 28.6875 28.6875 26 32 26 C 35.3125 26 38 28.6875 38 32 Z M 38 32 "/>
<path style=" stroke:none;fill-rule:evenodd;fill:rgb(25.490196%,41.176471%,88.235294%);fill-opacity:1;" d="M 28 26 L 32 2 L 36 26 M 38 28 L 62 32 L 38 36 M 36 38 L 32 62 L 28 38 M 26 36 L 2 32 L 26 28 Z M 26 36 "/>
<path style=" stroke:none;fill-rule:evenodd;fill:rgb(100%,84.313725%,0%);fill-opacity:1;" d="M 25.636719 29.878906 L 15.03125 15.03125 L 29.878906 25.636719 M 34.121094 25.636719 L 48.96875 15.03125 L 38.363281 29.878906 M 38.363281 34.121094 L 48.96875 48.96875 L 34.121094 38.363281 M 29.878906 38.363281 L 15.03125 48.96875 L 25.636719 34.121094 Z M 29.878906 38.363281 "/>
<path style="fill:none;stroke-width:4;stroke-linecap:butt;stroke-linejoin:miter;stroke:rgb(0%,0%,0%);stroke-opacity:1;stroke-miterlimit:10;" d="M 37.999359 32 C 37.999359 35.314563 35.314563 37.999359 32 37.999359 C 28.685437 37.999359 26.000641 35.314563 26.000641 32 C 26.000641 28.685437 28.685437 26.000641 32 26.000641 C 35.314563 26.000641 37.999359 28.685437 37.999359 32 Z M 37.999359 32 " transform="matrix(-0.707107,-0.707107,0.707107,-0.707107,32,77.254834)"/>
</g>
</svg>
