<?xml version="1.0" encoding="UTF-8"?>
<svg xmlns="http://www.w3.org/2000/svg" xmlns:xlink="http://www.w3.org/1999/xlink" width="64pt" height="64pt" viewBox="0 0 64 64" version="1.1">
<g id="surface15001">
<path style="fill:none;stroke-width:8;stroke-linecap:butt;stroke-linejoin:round;stroke:rgb(85.490196%,64.705882%,12.54902%);stroke-opacity:1;stroke-miterlimit:10;" d="M 4 24 L 60 24 L 60 54 L 4 54 Z M 4 24 "/>
<path style=" stroke:none;fill-rule:evenodd;fill:rgb(85.490196%,64.705882%,12.54902%);fill-opacity:1;" d="M 4 24 L 60 24 L 60 54 L 4 54 Z M 4 24 "/>
<path style="fill:none;stroke-width:4;stroke-linecap:butt;stroke-linejoin:miter;stroke:rgb(85.490196%,64.705882%,12.54902%);stroke-opacity:1;stroke-miterlimit:10;" d="M 4 32 L 4 12 C 4 9.789062 5.789062 8 8 8 L 20 8 C 22.210938 8 24 9.789062 24 12 "/>
<path style="fill:none;stroke-width:4;stroke-linecap:butt;stroke-linejoin:miter;stroke:rgb(85.490196%,64.705882%,12.54902%);stroke-opacity:1;stroke-miterlimit:10;" d="M 4 32 L 4 12 C 4 9.789062 5.789062 8 8 8 L 20 8 C 22.210938 8 24 9.789062 24 12 C 24 13.105469 24.894531 14 26 14 L 56 14 C 58.210938 14 60 15.789062 60 18 L 60 32 "/>
</g>
</svg>
