<?xml version="1.0" encoding="UTF-8"?>
<svg xmlns="http://www.w3.org/2000/svg" xmlns:xlink="http://www.w3.org/1999/xlink" width="64pt" height="64pt" viewBox="0 0 64 64" version="1.1">
<g id="surface14889">
<path style="fill:none;stroke-width:4;stroke-linecap:round;stroke-linejoin:miter;stroke:rgb(0%,0%,0%);stroke-opacity:1;stroke-miterlimit:10;" d="M 32 32 L 7.751289 18 M 13.48334 12.071797 L 18.143594 24 L 5.48334 25.928203 " transform="matrix(0.5,0.866025,-0.866025,0.5,43.712813,-11.712813)"/>
<path style="fill:none;stroke-width:4;stroke-linecap:round;stroke-linejoin:miter;stroke:rgb(0%,0%,0%);stroke-opacity:1;stroke-miterlimit:10;" d="M 32 32 L 7.750644 17.998884 M 13.485143 12.071951 L 18.144062 24.000812 L 5.482572 25.929842 " transform="matrix(-0.5,0.866025,-0.866025,-0.5,75.712813,20.287187)"/>
<path style="fill:none;stroke-width:4;stroke-linecap:round;stroke-linejoin:miter;stroke:rgb(0%,0%,0%);stroke-opacity:1;stroke-miterlimit:10;" d="M 32 32 L 7.75 18 M 13.484375 12.070312 L 18.144531 24 L 5.484375 25.929687 " transform="matrix(-1,0.000000000000000389,-0.000000000000000389,-1,64,64)"/>
<path style="fill:none;stroke-width:4;stroke-linecap:round;stroke-linejoin:miter;stroke:rgb(0%,0%,0%);stroke-opacity:1;stroke-miterlimit:10;" d="M 32 32 L 7.751289 18 M 13.48334 12.071797 L 18.143594 24 L 5.48334 25.928203 " transform="matrix(-0.5,-0.866025,0.866025,-0.5,20.287187,75.712813)"/>
<path style="fill:none;stroke-width:4;stroke-linecap:round;stroke-linejoin:miter;stroke:rgb(0%,0%,0%);stroke-opacity:1;stroke-miterlimit:10;" d="M 32 32 L 7.750644 17.998884 M 13.485143 12.071951 L 18.144062 24.000812 L 5.482572 25.929842 " transform="matrix(0.5,-0.866025,0.866025,0.5,-11.712813,43.712813)"/>
<path style="fill:none;stroke-width:4;stroke-linecap:round;stroke-linejoin:miter;stroke:rgb(0%,0%,0%);stroke-opacity:1;stroke-miterlimit:10;" d="M 32 32 L 7.75 18 M 13.484375 12.070312 L 18.144531 24 L 5.484375 25.929687 " transform="matrix(1,-0.000000000000000888,0.000000000000000888,1,-0.000000000000026645,0.000000000000028422)"/>
</g>
</svg>
