<?xml version="1.0" encoding="UTF-8"?>
<svg xmlns="http://www.w3.org/2000/svg" xmlns:xlink="http://www.w3.org/1999/xlink" width="64pt" height="64pt" viewBox="0 0 64 64" version="1.1">
<g id="surface15517">
<path style="fill:none;stroke-width:6;stroke-linecap:butt;stroke-linejoin:miter;stroke:rgb(75.294118%,75.294118%,75.294118%);stroke-opacity:1;stroke-miterlimit:10;" d="M 38.785156 16.46875 C 37.992188 20.898438 35.199219 24 32 24 C 28.800781 24 26.007812 20.898438 25.214844 16.46875 M 25.398438 8 L 25.398438 18 M 38.601562 8 L 38.601562 18 "/>
<path style="fill:none;stroke-width:8;stroke-linecap:round;stroke-linejoin:miter;stroke:rgb(75.294118%,75.294118%,75.294118%);stroke-opacity:1;stroke-miterlimit:10;" d="M 32 26 L 32 52 "/>
<path style=" stroke:none;fill-rule:evenodd;fill:rgb(75.294118%,75.294118%,75.294118%);fill-opacity:1;" d="M 56.496094 31.046875 L 54.078125 21.34375 L 21.570312 31.507812 L 23.507812 39.269531 Z M 56.496094 31.046875 "/>
<path style=" stroke:none;fill-rule:evenodd;fill:rgb(75.294118%,75.294118%,75.294118%);fill-opacity:1;" d="M 17.921875 49.9375 L 25.683594 48.003906 M 23.742188 48.488281 L 23.257812 46.546875 L 25.199219 46.0625 L 19.878906 24.714844 L 17.9375 25.199219 L 16.96875 21.320312 L 18.910156 20.835938 L 17.457031 15.011719 L 9.695312 16.949219 L 11.148438 22.769531 L 13.089844 22.285156 L 14.054688 26.167969 L 12.117188 26.652344 L 17.4375 48 L 19.378906 47.515625 L 19.863281 49.453125 "/>
<path style=" stroke:none;fill-rule:evenodd;fill:rgb(75.294118%,75.294118%,75.294118%);fill-opacity:1;" d="M 25.683594 48.003906 C 26.753906 52.289062 25.882812 56.199219 23.738281 56.734375 C 21.59375 57.269531 18.992188 54.226562 17.921875 49.9375 "/>
</g>
</svg>
