<?xml version="1.0" encoding="UTF-8"?>
<svg xmlns="http://www.w3.org/2000/svg" xmlns:xlink="http://www.w3.org/1999/xlink" width="64pt" height="64pt" viewBox="0 0 64 64" version="1.1">
<g id="surface14693">
<path style=" stroke:none;fill-rule:evenodd;fill:rgb(100%,0%,0%);fill-opacity:1;" d="M 32 56 C 20.953125 56 12 45.253906 12 32 C 12 18.746094 20.953125 8 32 8 Z M 32 56 "/>
<path style=" stroke:none;fill-rule:evenodd;fill:rgb(100%,0%,0%);fill-opacity:1;" d="M 12 32 L 12 12 L 32 4 L 32 32 Z M 12 32 "/>
<path style=" stroke:none;fill-rule:evenodd;fill:rgb(75.294118%,0%,0%);fill-opacity:1;" d="M 32 8 C 43.046875 8 52 18.746094 52 32 C 52 45.253906 43.046875 56 32 56 Z M 32 8 "/>
<path style=" stroke:none;fill-rule:evenodd;fill:rgb(75.294118%,0%,0%);fill-opacity:1;" d="M 52 32 L 52 12 L 32 4 L 32 32 Z M 52 32 "/>
<path style="fill:none;stroke-width:3.2;stroke-linecap:butt;stroke-linejoin:miter;stroke:rgb(0%,0%,0%);stroke-opacity:1;stroke-miterlimit:10;" d="M 19.200262 32 L 44.799738 32 M 32 19.200262 L 32 44.799738 " transform="matrix(0.707107,0.707107,-0.707107,0.707107,32,-13.254834)"/>
</g>
</svg>
