<?xml version="1.0" encoding="UTF-8"?>
<svg xmlns="http://www.w3.org/2000/svg" xmlns:xlink="http://www.w3.org/1999/xlink" width="64pt" height="64pt" viewBox="0 0 64 64" version="1.1">
<g id="surface17137">
<path style="fill:none;stroke-width:40;stroke-linecap:butt;stroke-linejoin:miter;stroke:rgb(66.27451%,66.27451%,66.27451%);stroke-opacity:1;stroke-miterlimit:10;" d="M 0 31 L 64 31 "/>
<path style=" stroke:none;fill-rule:evenodd;fill:rgb(82.745098%,82.745098%,82.745098%);fill-opacity:1;" d="M 14.078125 15.359375 L 15.9375 21.121094 L 21.992188 21.109375 L 17.085938 24.65625 L 18.96875 30.410156 L 14.078125 26.839844 L 9.191406 30.410156 L 11.074219 24.65625 L 6.167969 21.109375 L 12.222656 21.121094 Z M 25.710938 14.828125 L 27.367188 15.679688 L 28.683594 14.359375 L 28.386719 16.199219 L 30.046875 17.039062 L 28.207031 17.328125 L 27.921875 19.167969 L 27.078125 17.507812 L 25.238281 17.800781 L 26.558594 16.488281 Z M 30.058594 18.007812 L 31.070312 19.570312 L 32.867188 19.085938 L 31.691406 20.53125 L 32.710938 22.089844 L 30.972656 21.417969 L 29.800781 22.871094 L 29.902344 21.011719 L 28.164062 20.347656 L 29.964844 19.867188 Z M 31.382812 23.765625 L 31.476562 25.628906 L 33.277344 26.105469 L 31.535156 26.769531 L 31.636719 28.628906 L 30.46875 27.179688 L 28.730469 27.851562 L 29.75 26.289062 L 28.574219 24.847656 L 30.371094 25.332031 Z M 29.332031 28.269531 L 28.480469 29.929688 L 29.800781 31.242188 L 27.960938 30.945312 L 27.121094 32.609375 L 26.832031 30.769531 L 24.992188 30.480469 L 26.652344 29.636719 L 26.359375 27.800781 L 27.671875 29.121094 Z M 29.332031 28.269531 "/>
</g>
</svg>
