<?xml version="1.0" encoding="UTF-8"?>
<svg xmlns="http://www.w3.org/2000/svg" xmlns:xlink="http://www.w3.org/1999/xlink" width="64pt" height="64pt" viewBox="0 0 64 64" version="1.1">
<g id="surface16993">
<path style="fill:none;stroke-width:36;stroke-linecap:butt;stroke-linejoin:miter;stroke:rgb(100%,100%,100%);stroke-opacity:1;stroke-miterlimit:10;" d="M 0 31 L 63 31 "/>
<path style="fill:none;stroke-width:15.5;stroke-linecap:butt;stroke-linejoin:miter;stroke:rgb(100%,0%,0%);stroke-opacity:1;stroke-miterlimit:10;" d="M 8.75 14 L 8.75 50 "/>
<path style="fill:none;stroke-width:15.5;stroke-linecap:butt;stroke-linejoin:miter;stroke:rgb(100%,0%,0%);stroke-opacity:1;stroke-miterlimit:10;" d="M 56.25 14 L 56.25 50 "/>
<path style=" stroke:none;fill-rule:evenodd;fill:rgb(100%,0%,0%);fill-opacity:1;" d="M 32 39.167969 L 25.214844 39.9375 L 25.855469 37.824219 L 19.390625 32.574219 L 21.246094 31.742188 L 20.03125 27.390625 L 23.9375 28.222656 L 24.574219 26.238281 L 28.414062 30.015625 L 27.070312 22.398438 L 29.441406 23.617188 L 32 19.007812 L 34.558594 23.617188 L 36.929688 22.398438 L 35.585938 30.015625 L 39.425781 26.238281 L 40.0625 28.222656 L 43.96875 27.390625 L 42.753906 31.742188 L 44.609375 32.574219 L 38.144531 37.824219 L 38.785156 39.9375 Z M 32 39.167969 "/>
<path style="fill:none;stroke-width:2;stroke-linecap:butt;stroke-linejoin:miter;stroke:rgb(100%,0%,0%);stroke-opacity:1;stroke-miterlimit:10;" d="M 32 46 L 32 36 "/>
</g>
</svg>
